<svg width="512" height="512" viewBox="0 0 512 512" fill="none" xmlns="http://www.w3.org/2000/svg">
<g clip-path="url(#clip0)">
<path d="M364.469 373.158C395.854 373.158 421.296 347.716 421.296 316.331C421.296 284.946 395.854 259.504 364.469 259.504C333.084 259.504 307.642 284.946 307.642 316.331C307.642 347.716 333.084 373.158 364.469 373.158Z" fill="#F4CEB4"/>
<path d="M129.827 373.158C161.212 373.158 186.654 347.716 186.654 316.331C186.654 284.946 161.212 259.504 129.827 259.504C98.4423 259.504 73 284.946 73 316.331C73 347.716 98.4423 373.158 129.827 373.158Z" fill="#F4CEB4"/>
<path d="M186.521 206.118H325.351C340.779 206.13 355.572 212.264 366.481 223.173C377.39 234.082 383.524 248.875 383.536 264.303V452.081H128.335V264.303C128.335 248.871 134.466 234.072 145.378 223.16C156.289 212.248 171.089 206.118 186.521 206.118Z" fill="#F4CEB4"/>
<path d="M209.965 286.714C213.566 286.714 216.486 283.794 216.486 280.193C216.486 276.592 213.566 273.673 209.965 273.673C206.364 273.673 203.445 276.592 203.445 280.193C203.445 283.794 206.364 286.714 209.965 286.714Z" fill="#0E2732"/>
<path d="M180.729 322.217C182.704 322.217 184.306 320.615 184.306 318.64C184.306 316.664 182.704 315.062 180.729 315.062C178.753 315.062 177.151 316.664 177.151 318.64C177.151 320.615 178.753 322.217 180.729 322.217Z" fill="#CB853C"/>
<path d="M155.872 340.599C157.848 340.599 159.449 338.997 159.449 337.022C159.449 335.046 157.848 333.444 155.872 333.444C153.896 333.444 152.295 335.046 152.295 337.022C152.295 338.997 153.896 340.599 155.872 340.599Z" fill="#CB853C"/>
<path d="M180.729 361.474C182.704 361.474 184.306 359.872 184.306 357.897C184.306 355.921 182.704 354.319 180.729 354.319C178.753 354.319 177.151 355.921 177.151 357.897C177.151 359.872 178.753 361.474 180.729 361.474Z" fill="#CB853C"/>
<path d="M324.289 322.217C326.264 322.217 327.866 320.615 327.866 318.64C327.866 316.664 326.264 315.062 324.289 315.062C322.313 315.062 320.711 316.664 320.711 318.64C320.711 320.615 322.313 322.217 324.289 322.217Z" fill="#CB853C"/>
<path d="M324.289 361.474C326.264 361.474 327.866 359.872 327.866 357.897C327.866 355.921 326.264 354.319 324.289 354.319C322.313 354.319 320.711 355.921 320.711 357.897C320.711 359.872 322.313 361.474 324.289 361.474Z" fill="#CB853C"/>
<path d="M298.219 286.714C301.82 286.714 304.74 283.794 304.74 280.193C304.74 276.592 301.82 273.673 298.219 273.673C294.618 273.673 291.699 276.592 291.699 280.193C291.699 283.794 294.618 286.714 298.219 286.714Z" fill="#0E2732"/>
<path d="M285.48 328.102H221.182V343.859H285.48V328.102Z" fill="white"/>
<path d="M221.182 346.304H285.48V353.73C285.48 355.799 285.072 357.848 284.28 359.76C283.489 361.672 282.328 363.409 280.865 364.872C279.401 366.335 277.664 367.496 275.752 368.288C273.841 369.08 271.792 369.487 269.722 369.487H236.939C234.87 369.487 232.821 369.08 230.909 368.288C228.997 367.496 227.26 366.335 225.797 364.872C224.334 363.409 223.173 361.672 222.381 359.76C221.589 357.848 221.182 355.799 221.182 353.73V346.304Z" fill="#8F0026"/>
<path fill-rule="evenodd" clip-rule="evenodd" d="M273.618 368.998C272.348 369.322 271.038 369.487 269.721 369.487H236.938C234.869 369.487 232.82 369.08 230.908 368.288C228.996 367.496 227.259 366.335 225.796 364.872C225.695 364.771 225.595 364.668 225.497 364.565C225.933 355.825 238.123 348.84 253.151 348.84C268.456 348.84 274.025 355.994 274.025 365.05C274.025 366.412 273.894 367.734 273.618 368.998Z" fill="#CE003A"/>
<path d="M255.796 561.794C326.268 561.794 383.397 539.027 383.397 510.944C383.397 482.86 326.268 460.094 255.796 460.094C185.324 460.094 128.196 482.86 128.196 510.944C128.196 539.027 185.324 561.794 255.796 561.794Z" fill="#A72534"/>
<path d="M383.442 449.094H128.196V510.041H383.442V449.094Z" fill="#CB0059"/>
<path d="M194.08 133.576C218.288 133.576 237.912 114.114 237.912 90.1065C237.912 66.0991 218.288 46.6372 194.08 46.6372C169.873 46.6372 150.249 66.0991 150.249 90.1065C150.249 114.114 169.873 133.576 194.08 133.576Z" fill="#D82E1E"/>
<path d="M237.955 196.2C267.965 196.2 292.292 172.075 292.292 142.316C292.292 112.557 267.965 88.4321 237.955 88.4321C207.946 88.4321 183.619 112.557 183.619 142.316C183.619 172.075 207.946 196.2 237.955 196.2Z" fill="#D82E1E"/>
<path d="M288.944 134.302C330.682 134.302 364.517 104.237 364.517 67.151C364.517 30.0645 330.682 0 288.944 0C247.206 0 213.371 30.0645 213.371 67.151C213.371 104.237 247.206 134.302 288.944 134.302Z" fill="#DA401D"/>
<path d="M375.111 195.427C410.296 195.427 438.82 170.086 438.82 138.826C438.82 107.567 410.296 82.2256 375.111 82.2256C339.925 82.2256 311.401 107.567 311.401 138.826C311.401 170.086 339.925 195.427 375.111 195.427Z" fill="#D82E1E"/>
<path d="M389.919 237.496C387.73 237.501 385.547 237.713 383.398 238.13V230.297C383.697 228.361 383.573 226.383 383.035 224.499C382.498 222.616 381.559 220.871 380.284 219.384C379.009 217.897 377.427 216.704 375.647 215.885C373.867 215.067 371.932 214.644 369.973 214.644C368.014 214.644 366.078 215.067 364.299 215.885C362.519 216.704 360.937 217.897 359.662 219.384C358.387 220.871 357.448 222.616 356.91 224.499C356.373 226.383 356.249 228.361 356.547 230.297V327.197C356.249 329.133 356.373 331.111 356.91 332.994C357.448 334.878 358.387 336.623 359.662 338.11C360.937 339.597 362.519 340.79 364.299 341.608C366.078 342.426 368.014 342.85 369.973 342.85C371.932 342.85 373.867 342.426 375.647 341.608C377.427 340.79 379.009 339.597 380.284 338.11C381.559 336.623 382.498 334.878 383.035 332.994C383.573 331.111 383.697 329.133 383.398 327.197V303.651C385.547 304.068 387.73 304.28 389.919 304.285C394.408 304.45 398.884 303.709 403.08 302.105C407.276 300.501 411.105 298.068 414.339 294.951C417.573 291.834 420.146 288.096 421.903 283.962C423.66 279.828 424.566 275.383 424.566 270.891C424.566 266.399 423.66 261.953 421.903 257.819C420.146 253.685 417.573 249.948 414.339 246.83C411.105 243.713 407.276 241.28 403.08 239.676C398.884 238.072 394.408 237.331 389.919 237.496Z" fill="#D82E1E"/>
<path d="M161.386 205.439C196.572 205.439 225.096 180.078 225.096 148.793C225.096 117.509 196.572 92.1475 161.386 92.1475C126.2 92.1475 97.6763 117.509 97.6763 148.793C97.6763 180.078 126.2 205.439 161.386 205.439Z" fill="#DA401D"/>
<path d="M326.21 216.893C361.396 216.893 389.92 191.532 389.92 160.247C389.92 128.962 361.396 103.601 326.21 103.601C291.024 103.601 262.5 128.962 262.5 160.247C262.5 191.532 291.024 216.893 326.21 216.893Z" fill="#DE551C"/>
<path d="M127.793 216.847C124.19 216.847 120.735 218.278 118.187 220.826C115.64 223.373 114.208 226.829 114.208 230.431V238.265C112.045 237.846 109.846 237.633 107.643 237.631C98.9988 237.949 90.815 241.607 84.8123 247.835C78.8096 254.063 75.4556 262.375 75.4556 271.025C75.4556 279.675 78.8096 287.988 84.8123 294.216C90.815 300.444 98.9988 304.101 107.643 304.42C109.846 304.417 112.045 304.205 114.208 303.786V327.332C113.91 329.268 114.034 331.245 114.572 333.129C115.109 335.012 116.048 336.757 117.323 338.244C118.598 339.731 120.18 340.925 121.96 341.743C123.74 342.561 125.675 342.985 127.634 342.985C129.593 342.985 131.529 342.561 133.308 341.743C135.088 340.925 136.67 339.731 137.945 338.244C139.22 336.757 140.159 335.012 140.697 333.129C141.234 331.245 141.358 329.268 141.06 327.332V230.295C141.025 226.771 139.622 223.397 137.147 220.888C134.671 218.378 131.317 216.929 127.793 216.847Z" fill="#D82E1E"/>
<path d="M392.277 175.416H137.982C124.953 175.416 114.391 185.978 114.391 199.007V225.089C114.391 238.118 124.953 248.68 137.982 248.68H392.277C405.306 248.68 415.868 238.118 415.868 225.089V199.007C415.868 185.978 405.306 175.416 392.277 175.416Z" fill="#9F0B38"/>
<path d="M415.868 200.455H114.391V222.507H415.868V200.455Z" fill="#CB0059"/>
</g>
<defs>
<clipPath id="clip0">
<rect width="511.999" height="511.999" fill="white"/>
</clipPath>
</defs>
</svg>
