<svg width="928" height="342" viewBox="0 0 928 342" fill="none" xmlns="http://www.w3.org/2000/svg">
<rect y="332" width="928" height="10" rx="5" fill="#B1B1B3"/>
<g clip-path="url(#clip0)">
<path d="M119.208 234.23C128.311 234.23 135.69 226.851 135.69 217.748C135.69 208.646 128.311 201.266 119.208 201.266C110.105 201.266 102.726 208.646 102.726 217.748C102.726 226.851 110.105 234.23 119.208 234.23Z" fill="#FFCEB3"/>
<path d="M51.153 234.23C60.2558 234.23 67.635 226.851 67.635 217.748C67.635 208.646 60.2558 201.266 51.153 201.266C42.0502 201.266 34.6709 208.646 34.6709 217.748C34.6709 226.851 42.0502 234.23 51.153 234.23Z" fill="#FFCEB3"/>
<path d="M67.5963 185.782H107.862C112.337 185.786 116.628 187.565 119.792 190.729C122.956 193.893 124.735 198.184 124.738 202.658V257.121H50.7202V202.658C50.7202 198.182 52.4982 193.89 55.6631 190.725C58.828 187.56 63.1205 185.782 67.5963 185.782Z" fill="#FFCEB3"/>
<path d="M79.396 209.158C80.4405 209.158 81.2872 208.312 81.2872 207.267C81.2872 206.223 80.4405 205.376 79.396 205.376C78.3516 205.376 77.5049 206.223 77.5049 207.267C77.5049 208.312 78.3516 209.158 79.396 209.158Z" fill="#0E2732"/>
<path d="M70.9164 219.455C71.4894 219.455 71.9539 218.991 71.9539 218.418C71.9539 217.845 71.4894 217.38 70.9164 217.38C70.3434 217.38 69.8789 217.845 69.8789 218.418C69.8789 218.991 70.3434 219.455 70.9164 219.455Z" fill="#CB853C"/>
<path d="M63.707 224.787C64.28 224.787 64.7445 224.322 64.7445 223.749C64.7445 223.176 64.28 222.712 63.707 222.712C63.1339 222.712 62.6694 223.176 62.6694 223.749C62.6694 224.322 63.1339 224.787 63.707 224.787Z" fill="#CB853C"/>
<path d="M70.9164 230.842C71.4894 230.842 71.9539 230.377 71.9539 229.804C71.9539 229.231 71.4894 228.767 70.9164 228.767C70.3434 228.767 69.8789 229.231 69.8789 229.804C69.8789 230.377 70.3434 230.842 70.9164 230.842Z" fill="#CB853C"/>
<path d="M110.555 219.455C111.128 219.455 111.592 218.991 111.592 218.418C111.592 217.845 111.128 217.38 110.555 217.38C109.982 217.38 109.517 217.845 109.517 218.418C109.517 218.991 109.982 219.455 110.555 219.455Z" fill="#CB853C"/>
<path d="M110.555 230.842C111.128 230.842 111.592 230.377 111.592 229.804C111.592 229.231 111.128 228.767 110.555 228.767C109.982 228.767 109.517 229.231 109.517 229.804C109.517 230.377 109.982 230.842 110.555 230.842Z" fill="#CB853C"/>
<path d="M113.562 263.167C118.41 271.792 123.699 280.162 129.409 288.244C132.167 292.172 135.24 295.87 138.599 299.299C139.206 299.864 139.914 300.31 140.687 300.612C141.043 300.753 141.412 300.858 141.789 300.927C142.195 300.972 142.605 300.972 143.01 300.927C143.722 300.899 144.412 300.68 145.009 300.292C145.605 299.903 146.085 299.36 146.398 298.721C146.982 297.492 147.266 296.142 147.225 294.782C147.214 294.51 147.187 294.238 147.146 293.968C147.091 293.672 147.007 293.382 146.897 293.102C146.691 292.565 146.363 292.084 145.938 291.697C143.025 288.687 140.36 285.447 137.969 282.007C132.496 274.261 127.425 266.237 122.778 257.968L113.562 263.167Z" fill="#FFCEB3"/>
<path d="M113.562 263.167C118.41 271.792 123.699 280.162 129.409 288.244L131.444 291.001L139.82 284.646L137.929 282.021C132.456 274.274 127.386 266.25 122.739 257.981L113.562 263.167Z" fill="#CB0059"/>
<path d="M104.993 209.158C106.038 209.158 106.884 208.312 106.884 207.267C106.884 206.223 106.038 205.376 104.993 205.376C103.949 205.376 103.102 206.223 103.102 207.267C103.102 208.312 103.949 209.158 104.993 209.158Z" fill="#0E2732"/>
<path d="M101.298 221.162H82.6494V225.732H101.298V221.162Z" fill="white"/>
<path d="M82.6494 226.442H101.298V228.595C101.298 229.196 101.18 229.79 100.951 230.344C100.721 230.899 100.384 231.403 99.9598 231.827C99.5354 232.252 99.0316 232.588 98.4771 232.818C97.9226 233.048 97.3283 233.166 96.7281 233.166H87.2197C86.6196 233.166 86.0252 233.048 85.4707 232.818C84.9163 232.588 84.4124 232.252 83.988 231.827C83.5636 231.403 83.227 230.899 82.9973 230.344C82.7676 229.79 82.6494 229.196 82.6494 228.595V226.442Z" fill="#8F0026"/>
<path fill-rule="evenodd" clip-rule="evenodd" d="M97.8581 233.024C97.4895 233.118 97.1098 233.166 96.7277 233.166H87.2193C86.6191 233.166 86.0248 233.048 85.4703 232.818C84.9158 232.588 84.412 232.252 83.9876 231.827C83.9583 231.798 83.9294 231.768 83.9009 231.738C84.0275 229.203 87.5631 227.177 91.9217 227.177C96.3607 227.177 97.9761 229.252 97.9761 231.879C97.9761 232.274 97.9381 232.657 97.8581 233.024Z" fill="#CE003A"/>
<path d="M62.6573 282.284L56.1695 310.796L53.5429 322.616C53.3298 323.464 53.2885 324.347 53.4214 325.212C53.5543 326.077 53.8588 326.907 54.3169 327.652C54.775 328.398 55.3775 329.045 56.089 329.554C56.8005 330.063 57.6067 330.426 58.4602 330.619C59.3136 330.812 60.1971 330.833 61.0588 330.681C61.9204 330.528 62.7428 330.204 63.4777 329.729C64.2125 329.254 64.8449 328.636 65.3378 327.913C65.8307 327.19 66.174 326.376 66.3477 325.518L68.9743 313.698L75.4621 285.186L62.6573 282.284Z" fill="#FFCEB3"/>
<path d="M54.7784 317.179L53.1893 324.127C52.8212 325.818 53.1356 327.586 54.0642 329.046C54.9927 330.507 56.4603 331.542 58.1478 331.926C59.8353 332.31 61.6063 332.013 63.0756 331.098C64.545 330.184 65.5938 328.726 65.9941 327.042L67.5832 320.095L54.7784 317.179Z" fill="#101B2D"/>
<path d="M62.6844 282.231L56.1966 310.743L55.9077 312.044L68.7125 314.959L69.0014 313.659L75.4892 285.147L62.6844 282.231Z" fill="#A72534"/>
<path d="M100.179 285.147L106.667 313.659L109.359 325.479C109.533 326.336 109.876 327.151 110.369 327.874C110.862 328.597 111.494 329.214 112.229 329.69C112.964 330.165 113.787 330.488 114.648 330.641C115.51 330.794 116.393 330.773 117.247 330.58C118.1 330.386 118.906 330.024 119.618 329.515C120.329 329.005 120.932 328.359 121.39 327.613C121.848 326.867 122.153 326.038 122.286 325.173C122.418 324.308 122.377 323.425 122.164 322.576L119.537 310.757L112.984 282.284L100.179 285.147Z" fill="#FFCEB3"/>
<path d="M52.4255 256.228C47.7785 264.497 42.7083 272.52 37.235 280.267C34.8526 283.706 32.1962 286.946 29.2918 289.957C28.8632 290.343 28.5306 290.824 28.3202 291.361C28.2139 291.642 28.1347 291.932 28.0839 292.228C28.0427 292.498 28.0164 292.769 28.0051 293.042C27.9577 294.403 28.2415 295.754 28.8322 296.981C29.1449 297.62 29.625 298.163 30.2214 298.551C30.8178 298.94 31.5084 299.159 32.2196 299.186C32.6253 299.232 33.0349 299.232 33.4406 299.186C33.8177 299.118 34.1872 299.013 34.5435 298.871C35.316 298.57 36.0244 298.124 36.631 297.558C39.986 294.126 43.0594 290.429 45.8215 286.504C51.5265 278.422 56.8115 270.052 61.6554 261.427L52.4255 256.228Z" fill="#FFCEB3"/>
<path d="M52.4254 256.228C47.7784 264.497 42.7082 272.52 37.2349 280.267L35.3442 282.893L43.7338 289.182L45.7689 286.425C51.4739 278.343 56.7588 269.973 61.6028 261.348L52.4254 256.228Z" fill="#CB0059"/>
<path d="M108.125 320.095L109.714 327.042C110.114 328.726 111.163 330.184 112.633 331.098C114.102 332.013 115.873 332.31 117.56 331.926C119.248 331.542 120.716 330.507 121.644 329.046C122.573 327.586 122.887 325.818 122.519 324.127L120.943 317.179L108.125 320.095Z" fill="#101B2D"/>
<path d="M100.179 285.147L106.667 313.659L106.969 314.959L119.774 312.044L119.472 310.743L112.984 282.231L100.179 285.147Z" fill="#A72534"/>
<path d="M87.6888 288.942C108.128 288.942 124.698 282.339 124.698 274.194C124.698 266.048 108.128 259.445 87.6888 259.445C67.2492 259.445 50.6797 266.048 50.6797 274.194C50.6797 282.339 67.2492 288.942 87.6888 288.942Z" fill="#A72534"/>
<path d="M124.711 256.255H50.6797V273.932H124.711V256.255Z" fill="#CB0059"/>
<path d="M69.789 164.742C76.8101 164.742 82.5019 159.097 82.5019 152.134C82.5019 145.171 76.8101 139.527 69.789 139.527C62.7679 139.527 57.0762 145.171 57.0762 152.134C57.0762 159.097 62.7679 164.742 69.789 164.742Z" fill="#D82E1E"/>
<path d="M82.5146 182.905C91.2185 182.905 98.2743 175.908 98.2743 167.277C98.2743 158.646 91.2185 151.649 82.5146 151.649C73.8108 151.649 66.7549 158.646 66.7549 167.277C66.7549 175.908 73.8108 182.905 82.5146 182.905Z" fill="#D82E1E"/>
<path d="M97.3029 164.953C109.409 164.953 119.222 156.233 119.222 145.476C119.222 134.72 109.409 126 97.3029 126C85.1973 126 75.3838 134.72 75.3838 145.476C75.3838 156.233 85.1973 164.953 97.3029 164.953Z" fill="#DA401D"/>
<path d="M122.295 182.681C132.5 182.681 140.773 175.332 140.773 166.265C140.773 157.198 132.5 149.849 122.295 149.849C112.089 149.849 103.816 157.198 103.816 166.265C103.816 175.332 112.089 182.681 122.295 182.681Z" fill="#D82E1E"/>
<path d="M126.59 194.883C125.955 194.884 125.322 194.946 124.699 195.067V192.795C124.785 192.233 124.749 191.66 124.593 191.113C124.437 190.567 124.165 190.061 123.795 189.63C123.425 189.199 122.967 188.852 122.45 188.615C121.934 188.378 121.373 188.255 120.805 188.255C120.237 188.255 119.675 188.378 119.159 188.615C118.643 188.852 118.184 189.199 117.814 189.63C117.444 190.061 117.172 190.567 117.016 191.113C116.86 191.66 116.824 192.233 116.911 192.795V220.9C116.824 221.461 116.86 222.035 117.016 222.581C117.172 223.127 117.444 223.634 117.814 224.065C118.184 224.496 118.643 224.842 119.159 225.08C119.675 225.317 120.237 225.44 120.805 225.44C121.373 225.44 121.934 225.317 122.45 225.08C122.967 224.842 123.425 224.496 123.795 224.065C124.165 223.634 124.437 223.127 124.593 222.581C124.749 222.035 124.785 221.461 124.699 220.9V214.071C125.322 214.192 125.955 214.253 126.59 214.254C127.892 214.302 129.19 214.087 130.407 213.622C131.624 213.157 132.735 212.451 133.673 211.547C134.611 210.643 135.357 209.559 135.866 208.36C136.376 207.161 136.639 205.872 136.639 204.569C136.639 203.266 136.376 201.976 135.866 200.777C135.357 199.578 134.611 198.494 133.673 197.59C132.735 196.686 131.624 195.98 130.407 195.515C129.19 195.05 127.892 194.835 126.59 194.883Z" fill="#D82E1E"/>
<path d="M60.3064 185.585C70.5117 185.585 78.7847 178.23 78.7847 169.156C78.7847 160.082 70.5117 152.726 60.3064 152.726C50.1011 152.726 41.8281 160.082 41.8281 169.156C41.8281 178.23 50.1011 185.585 60.3064 185.585Z" fill="#DA401D"/>
<path d="M108.112 188.907C118.317 188.907 126.59 181.552 126.59 172.478C126.59 163.404 118.317 156.048 108.112 156.048C97.9063 156.048 89.6333 163.404 89.6333 172.478C89.6333 181.552 97.9063 188.907 108.112 188.907Z" fill="#DE551C"/>
<path d="M50.5631 188.894C49.5181 188.894 48.516 189.309 47.7771 190.048C47.0382 190.787 46.6231 191.789 46.6231 192.834V195.106C45.9956 194.984 45.358 194.923 44.7188 194.922C42.2117 195.014 39.8381 196.075 38.0971 197.882C36.3561 199.688 35.3833 202.099 35.3833 204.608C35.3833 207.117 36.3561 209.528 38.0971 211.334C39.8381 213.14 42.2117 214.201 44.7188 214.293C45.358 214.293 45.9956 214.231 46.6231 214.11V220.939C46.5366 221.5 46.5725 222.074 46.7284 222.62C46.8844 223.167 47.1566 223.673 47.5265 224.104C47.8964 224.535 48.3551 224.881 48.8713 225.119C49.3875 225.356 49.949 225.479 50.5171 225.479C51.0852 225.479 51.6466 225.356 52.1628 225.119C52.679 224.881 53.1378 224.535 53.5077 224.104C53.8776 223.673 54.1498 223.167 54.3057 222.62C54.4617 222.074 54.4976 221.5 54.4111 220.939V192.795C54.4011 191.772 53.9941 190.794 53.2761 190.066C52.5581 189.338 51.5852 188.918 50.5631 188.894Z" fill="#D82E1E"/>
<path d="M127.274 176.877H53.5181C49.7392 176.877 46.6758 179.941 46.6758 183.72V191.284C46.6758 195.063 49.7392 198.127 53.5181 198.127H127.274C131.053 198.127 134.116 195.063 134.116 191.284V183.72C134.116 179.941 131.053 176.877 127.274 176.877Z" fill="#9F0B38"/>
<path d="M134.116 184.14H46.6758V190.536H134.116V184.14Z" fill="#CB0059"/>
</g>
<path d="M221 67C221 58.7157 214.284 52 206 52H127C118.716 52 112 58.7157 112 67V104C112 112.284 118.716 119 127 119H221V67Z" fill="#98CDD4"/>
<path d="M130.33 95.15C129.95 95.15 129.63 95.02 129.37 94.76C129.11 94.5 128.98 94.18 128.98 93.8V75.29C128.98 74.91 129.11 74.59 129.37 74.33C129.63 74.05 129.95 73.91 130.33 73.91C130.71 73.91 131.03 74.05 131.29 74.33C131.57 74.59 131.71 74.91 131.71 75.29V83.27H143.08V75.29C143.08 74.91 143.21 74.59 143.47 74.33C143.73 74.05 144.05 73.91 144.43 73.91C144.81 73.91 145.13 74.05 145.39 74.33C145.67 74.59 145.81 74.91 145.81 75.29V93.8C145.81 94.18 145.67 94.5 145.39 94.76C145.13 95.02 144.81 95.15 144.43 95.15C144.05 95.15 143.73 95.02 143.47 94.76C143.21 94.5 143.08 94.18 143.08 93.8V85.82H131.71V93.8C131.71 94.18 131.57 94.5 131.29 94.76C131.03 95.02 130.71 95.15 130.33 95.15ZM157.517 95.3C155.077 95.3 153.167 94.61 151.787 93.23C150.427 91.83 149.747 89.87 149.747 87.35C149.747 85.93 150.007 84.62 150.527 83.42C151.047 82.22 151.847 81.25 152.927 80.51C154.007 79.77 155.337 79.4 156.917 79.4C158.397 79.4 159.677 79.75 160.757 80.45C161.837 81.13 162.657 82.05 163.217 83.21C163.777 84.35 164.057 85.6 164.057 86.96C164.057 87.34 163.927 87.66 163.667 87.92C163.427 88.18 163.097 88.31 162.677 88.31H152.507C152.667 89.71 153.187 90.8 154.067 91.58C154.947 92.36 156.177 92.75 157.757 92.75C158.597 92.75 159.327 92.67 159.947 92.51C160.587 92.35 161.207 92.12 161.807 91.82C161.967 91.74 162.147 91.7 162.347 91.7C162.667 91.7 162.947 91.81 163.187 92.03C163.427 92.25 163.547 92.53 163.547 92.87C163.547 93.31 163.287 93.68 162.767 93.98C161.987 94.42 161.217 94.75 160.457 94.97C159.697 95.19 158.717 95.3 157.517 95.3ZM161.357 86.09C161.297 85.11 161.037 84.29 160.577 83.63C160.137 82.97 159.587 82.49 158.927 82.19C158.267 81.87 157.597 81.71 156.917 81.71C156.237 81.71 155.567 81.87 154.907 82.19C154.247 82.49 153.697 82.97 153.257 83.63C152.817 84.29 152.567 85.11 152.507 86.09H161.357ZM169.019 95.15C168.639 95.15 168.319 95.02 168.059 94.76C167.799 94.5 167.669 94.18 167.669 93.8V74.33C167.669 73.95 167.799 73.63 168.059 73.37C168.319 73.09 168.639 72.95 169.019 72.95C169.419 72.95 169.749 73.08 170.009 73.34C170.269 73.6 170.399 73.93 170.399 74.33V93.8C170.399 94.18 170.259 94.5 169.979 94.76C169.719 95.02 169.399 95.15 169.019 95.15ZM176.49 95.15C176.11 95.15 175.79 95.02 175.53 94.76C175.27 94.5 175.14 94.18 175.14 93.8V74.33C175.14 73.95 175.27 73.63 175.53 73.37C175.79 73.09 176.11 72.95 176.49 72.95C176.89 72.95 177.22 73.08 177.48 73.34C177.74 73.6 177.87 73.93 177.87 74.33V93.8C177.87 94.18 177.73 94.5 177.45 94.76C177.19 95.02 176.87 95.15 176.49 95.15ZM189.36 95.3C187.82 95.3 186.47 94.97 185.31 94.31C184.15 93.65 183.25 92.72 182.61 91.52C181.99 90.3 181.68 88.91 181.68 87.35C181.68 85.79 181.99 84.41 182.61 83.21C183.25 81.99 184.15 81.05 185.31 80.39C186.47 79.73 187.82 79.4 189.36 79.4C190.88 79.4 192.22 79.73 193.38 80.39C194.54 81.05 195.44 81.99 196.08 83.21C196.72 84.41 197.04 85.79 197.04 87.35C197.04 88.91 196.72 90.3 196.08 91.52C195.44 92.72 194.54 93.65 193.38 94.31C192.22 94.97 190.88 95.3 189.36 95.3ZM189.36 92.81C190.18 92.81 190.96 92.62 191.7 92.24C192.46 91.86 193.08 91.26 193.56 90.44C194.06 89.62 194.31 88.58 194.31 87.32C194.31 86.08 194.06 85.05 193.56 84.23C193.08 83.41 192.46 82.82 191.7 82.46C190.96 82.08 190.18 81.89 189.36 81.89C188.52 81.89 187.72 82.08 186.96 82.46C186.22 82.82 185.61 83.41 185.13 84.23C184.65 85.05 184.41 86.08 184.41 87.32C184.41 88.58 184.65 89.62 185.13 90.44C185.61 91.26 186.22 91.86 186.96 92.24C187.72 92.62 188.52 92.81 189.36 92.81ZM202.722 89.21C202.422 89.21 202.182 89.13 202.002 88.97C201.822 88.81 201.722 88.6 201.702 88.34L201.162 78.44V75.47C201.162 75.03 201.312 74.66 201.612 74.36C201.912 74.06 202.282 73.91 202.722 73.91C203.162 73.91 203.522 74.06 203.802 74.36C204.102 74.66 204.252 75.03 204.252 75.47V78.44L203.712 88.34C203.692 88.6 203.592 88.81 203.412 88.97C203.252 89.13 203.022 89.21 202.722 89.21ZM202.722 95.12C202.242 95.12 201.822 94.95 201.462 94.61C201.122 94.25 200.952 93.82 200.952 93.32C200.952 92.84 201.122 92.43 201.462 92.09C201.822 91.73 202.242 91.55 202.722 91.55C203.222 91.55 203.642 91.73 203.982 92.09C204.342 92.43 204.522 92.84 204.522 93.32C204.522 93.82 204.342 94.25 203.982 94.61C203.642 94.95 203.222 95.12 202.722 95.12Z" fill="white"/>
<path d="M221 144V108H185L221 144Z" fill="#98CDD4"/>
<path d="M511 15C511 6.71573 517.716 0 526 0H629C637.284 0 644 6.71573 644 15V52C644 60.2843 637.284 67 629 67H511V15Z" fill="#742B9F"/>
<path d="M540.397 31.15C539.917 31.15 539.497 30.98 539.137 30.64C538.797 30.28 538.627 29.86 538.627 29.38C538.627 28.88 538.797 28.46 539.137 28.12C539.497 27.76 539.917 27.58 540.397 27.58C540.897 27.58 541.317 27.76 541.657 28.12C542.017 28.46 542.197 28.88 542.197 29.38C542.197 29.86 542.017 30.28 541.657 30.64C541.317 30.98 540.897 31.15 540.397 31.15ZM540.397 48.79C539.957 48.79 539.587 48.64 539.287 48.34C538.987 48.04 538.837 47.67 538.837 47.23V44.26L539.377 34.36C539.397 34.1 539.497 33.89 539.677 33.73C539.857 33.57 540.097 33.49 540.397 33.49C540.697 33.49 540.927 33.57 541.087 33.73C541.267 33.89 541.367 34.1 541.387 34.36L541.927 44.26V47.23C541.927 47.67 541.777 48.04 541.477 48.34C541.197 48.64 540.837 48.79 540.397 48.79ZM548.521 43.15C548.141 43.15 547.821 43.02 547.561 42.76C547.301 42.5 547.171 42.18 547.171 41.8V23.29C547.171 22.91 547.301 22.59 547.561 22.33C547.821 22.05 548.141 21.91 548.521 21.91C548.901 21.91 549.221 22.05 549.481 22.33C549.761 22.59 549.901 22.91 549.901 23.29V31.27H561.271V23.29C561.271 22.91 561.401 22.59 561.661 22.33C561.921 22.05 562.241 21.91 562.621 21.91C563.001 21.91 563.321 22.05 563.581 22.33C563.861 22.59 564.001 22.91 564.001 23.29V41.8C564.001 42.18 563.861 42.5 563.581 42.76C563.321 43.02 563.001 43.15 562.621 43.15C562.241 43.15 561.921 43.02 561.661 42.76C561.401 42.5 561.271 42.18 561.271 41.8V33.82H549.901V41.8C549.901 42.18 549.761 42.5 549.481 42.76C549.221 43.02 548.901 43.15 548.521 43.15ZM575.617 43.3C574.077 43.3 572.727 42.97 571.567 42.31C570.407 41.65 569.507 40.72 568.867 39.52C568.247 38.3 567.937 36.91 567.937 35.35C567.937 33.79 568.247 32.41 568.867 31.21C569.507 29.99 570.407 29.05 571.567 28.39C572.727 27.73 574.077 27.4 575.617 27.4C577.137 27.4 578.477 27.73 579.637 28.39C580.797 29.05 581.697 29.99 582.337 31.21C582.977 32.41 583.297 33.79 583.297 35.35C583.297 36.91 582.977 38.3 582.337 39.52C581.697 40.72 580.797 41.65 579.637 42.31C578.477 42.97 577.137 43.3 575.617 43.3ZM575.617 40.81C576.437 40.81 577.217 40.62 577.957 40.24C578.717 39.86 579.337 39.26 579.817 38.44C580.317 37.62 580.567 36.58 580.567 35.32C580.567 34.08 580.317 33.05 579.817 32.23C579.337 31.41 578.717 30.82 577.957 30.46C577.217 30.08 576.437 29.89 575.617 29.89C574.777 29.89 573.977 30.08 573.217 30.46C572.477 30.82 571.867 31.41 571.387 32.23C570.907 33.05 570.667 34.08 570.667 35.32C570.667 36.58 570.907 37.62 571.387 38.44C571.867 39.26 572.477 39.86 573.217 40.24C573.977 40.62 574.777 40.81 575.617 40.81ZM588.469 43.15C588.089 43.15 587.769 43.02 587.509 42.76C587.249 42.5 587.119 42.18 587.119 41.8V22.33C587.119 21.95 587.249 21.63 587.509 21.37C587.769 21.09 588.089 20.95 588.469 20.95C588.869 20.95 589.199 21.08 589.459 21.34C589.719 21.6 589.849 21.93 589.849 22.33V41.8C589.849 42.18 589.709 42.5 589.429 42.76C589.169 43.02 588.849 43.15 588.469 43.15ZM598.49 43.3C597.61 43.3 596.79 43.12 596.03 42.76C595.29 42.4 594.7 41.88 594.26 41.2C593.82 40.5 593.6 39.7 593.6 38.8C593.6 37.32 594.18 36.14 595.34 35.26C596.52 34.38 598.24 33.94 600.5 33.94H604.13V33.7C604.13 32.38 603.8 31.43 603.14 30.85C602.5 30.27 601.49 29.98 600.11 29.98C599.35 29.98 598.67 30.04 598.07 30.16C597.49 30.28 596.84 30.46 596.12 30.7C595.96 30.74 595.83 30.76 595.73 30.76C595.43 30.76 595.17 30.65 594.95 30.43C594.73 30.21 594.62 29.94 594.62 29.62C594.62 29.08 594.88 28.7 595.4 28.48C597.1 27.76 598.83 27.4 600.59 27.4C601.97 27.4 603.13 27.68 604.07 28.24C605.03 28.8 605.73 29.53 606.17 30.43C606.63 31.31 606.86 32.27 606.86 33.31V41.8C606.86 42.18 606.72 42.5 606.44 42.76C606.18 43.02 605.86 43.15 605.48 43.15C605.1 43.15 604.78 43.02 604.52 42.76C604.26 42.5 604.13 42.18 604.13 41.8V41.02C602.65 42.54 600.77 43.3 598.49 43.3ZM599.51 40.9C600.39 40.9 601.24 40.69 602.06 40.27C602.88 39.83 603.57 39.29 604.13 38.65V36.13H600.86C597.84 36.13 596.33 36.92 596.33 38.5C596.33 39.22 596.57 39.8 597.05 40.24C597.55 40.68 598.37 40.9 599.51 40.9ZM613.295 37.21C612.995 37.21 612.755 37.13 612.575 36.97C612.395 36.81 612.295 36.6 612.275 36.34L611.735 26.44V23.47C611.735 23.03 611.885 22.66 612.185 22.36C612.485 22.06 612.855 21.91 613.295 21.91C613.735 21.91 614.095 22.06 614.375 22.36C614.675 22.66 614.825 23.03 614.825 23.47V26.44L614.285 36.34C614.265 36.6 614.165 36.81 613.985 36.97C613.825 37.13 613.595 37.21 613.295 37.21ZM613.295 43.12C612.815 43.12 612.395 42.95 612.035 42.61C611.695 42.25 611.525 41.82 611.525 41.32C611.525 40.84 611.695 40.43 612.035 40.09C612.395 39.73 612.815 39.55 613.295 39.55C613.795 39.55 614.215 39.73 614.555 40.09C614.915 40.43 615.095 40.84 615.095 41.32C615.095 41.82 614.915 42.25 614.555 42.61C614.215 42.95 613.795 43.12 613.295 43.12Z" fill="white"/>
<path d="M511 92V56H547L511 92Z" fill="#742B9F"/>
<path d="M681 79C681 70.7157 687.716 64 696 64H813C821.284 64 828 70.7157 828 79V110C828 118.284 821.284 125 813 125H681V79Z" fill="#742B9F"/>
<path d="M681 156V120H717L681 156Z" fill="#742B9F"/>
<path d="M693.734 105C693.354 105 693.034 104.87 692.774 104.61C692.514 104.35 692.384 104.03 692.384 103.65V85.44C692.384 85.06 692.514 84.74 692.774 84.48C693.034 84.2 693.354 84.06 693.734 84.06H700.814C702.954 84.06 704.604 84.55 705.764 85.53C706.944 86.51 707.534 87.83 707.534 89.49C707.534 90.65 707.254 91.62 706.694 92.4C706.154 93.16 705.454 93.73 704.594 94.11C705.794 94.49 706.774 95.1 707.534 95.94C708.314 96.78 708.704 97.84 708.704 99.12C708.704 100.96 708.084 102.4 706.844 103.44C705.604 104.48 703.654 105 700.994 105H693.734ZM700.094 93.12C701.874 93.12 703.124 92.82 703.844 92.22C704.564 91.62 704.924 90.78 704.924 89.7C704.924 88.76 704.534 88.01 703.754 87.45C702.994 86.89 701.944 86.61 700.604 86.61H695.114V93.12H700.094ZM700.724 102.45C702.664 102.45 704.034 102.15 704.834 101.55C705.654 100.95 706.064 100.1 706.064 99C706.064 96.72 704.294 95.58 700.754 95.58H695.114V102.45H700.724ZM719.248 105.3C717.708 105.3 716.358 104.97 715.198 104.31C714.038 103.65 713.138 102.72 712.498 101.52C711.878 100.3 711.568 98.91 711.568 97.35C711.568 95.79 711.878 94.41 712.498 93.21C713.138 91.99 714.038 91.05 715.198 90.39C716.358 89.73 717.708 89.4 719.248 89.4C720.768 89.4 722.108 89.73 723.268 90.39C724.428 91.05 725.328 91.99 725.968 93.21C726.608 94.41 726.928 95.79 726.928 97.35C726.928 98.91 726.608 100.3 725.968 101.52C725.328 102.72 724.428 103.65 723.268 104.31C722.108 104.97 720.768 105.3 719.248 105.3ZM719.248 102.81C720.068 102.81 720.848 102.62 721.588 102.24C722.348 101.86 722.968 101.26 723.448 100.44C723.948 99.62 724.198 98.58 724.198 97.32C724.198 96.08 723.948 95.05 723.448 94.23C722.968 93.41 722.348 92.82 721.588 92.46C720.848 92.08 720.068 91.89 719.248 91.89C718.408 91.89 717.608 92.08 716.848 92.46C716.108 92.82 715.498 93.41 715.018 94.23C714.538 95.05 714.298 96.08 714.298 97.32C714.298 98.58 714.538 99.62 715.018 100.44C715.498 101.26 716.108 101.86 716.848 102.24C717.608 102.62 718.408 102.81 719.248 102.81ZM732.1 105.15C731.72 105.15 731.4 105.02 731.14 104.76C730.88 104.5 730.75 104.18 730.75 103.8V90.93C730.75 90.55 730.88 90.23 731.14 89.97C731.4 89.69 731.72 89.55 732.1 89.55C732.48 89.55 732.8 89.69 733.06 89.97C733.34 90.23 733.48 90.55 733.48 90.93V92.16C734.24 91.32 735.06 90.65 735.94 90.15C736.82 89.65 737.86 89.4 739.06 89.4C740.16 89.4 741.11 89.66 741.91 90.18C742.73 90.7 743.35 91.41 743.77 92.31C744.21 93.21 744.43 94.2 744.43 95.28V103.8C744.43 104.18 744.29 104.5 744.01 104.76C743.75 105.02 743.43 105.15 743.05 105.15C742.67 105.15 742.35 105.02 742.09 104.76C741.83 104.5 741.7 104.18 741.7 103.8V95.58C741.7 93.14 740.6 91.92 738.4 91.92C737.4 91.92 736.5 92.18 735.7 92.7C734.92 93.22 734.18 93.92 733.48 94.8V103.8C733.48 104.18 733.34 104.5 733.06 104.76C732.8 105.02 732.48 105.15 732.1 105.15ZM750.471 86.58C750.051 86.58 749.691 86.43 749.391 86.13C749.091 85.83 748.941 85.47 748.941 85.05V84.93C748.941 84.51 749.091 84.15 749.391 83.85C749.691 83.55 750.051 83.4 750.471 83.4H750.651C751.071 83.4 751.431 83.55 751.731 83.85C752.031 84.15 752.181 84.51 752.181 84.93V85.05C752.181 85.47 752.031 85.83 751.731 86.13C751.431 86.43 751.071 86.58 750.651 86.58H750.471ZM747.981 112.2C747.261 112.2 746.631 112.11 746.091 111.93C745.851 111.85 745.661 111.71 745.521 111.51C745.381 111.33 745.311 111.11 745.311 110.85C745.311 110.55 745.421 110.28 745.641 110.04C745.861 109.82 746.131 109.71 746.451 109.71C746.571 109.71 746.721 109.72 746.901 109.74C747.081 109.78 747.231 109.8 747.351 109.8C747.971 109.8 748.431 109.69 748.731 109.47C749.031 109.25 749.181 108.77 749.181 108.03V90.96C749.181 90.58 749.311 90.26 749.571 90C749.831 89.72 750.151 89.58 750.531 89.58C750.931 89.58 751.261 89.71 751.521 89.97C751.781 90.23 751.911 90.56 751.911 90.96V108.09C751.911 109.33 751.591 110.32 750.951 111.06C750.331 111.82 749.341 112.2 747.981 112.2ZM763.398 105.3C761.858 105.3 760.508 104.97 759.348 104.31C758.188 103.65 757.288 102.72 756.648 101.52C756.028 100.3 755.718 98.91 755.718 97.35C755.718 95.79 756.028 94.41 756.648 93.21C757.288 91.99 758.188 91.05 759.348 90.39C760.508 89.73 761.858 89.4 763.398 89.4C764.918 89.4 766.258 89.73 767.418 90.39C768.578 91.05 769.478 91.99 770.118 93.21C770.758 94.41 771.078 95.79 771.078 97.35C771.078 98.91 770.758 100.3 770.118 101.52C769.478 102.72 768.578 103.65 767.418 104.31C766.258 104.97 764.918 105.3 763.398 105.3ZM763.398 102.81C764.218 102.81 764.998 102.62 765.738 102.24C766.498 101.86 767.118 101.26 767.598 100.44C768.098 99.62 768.348 98.58 768.348 97.32C768.348 96.08 768.098 95.05 767.598 94.23C767.118 93.41 766.498 92.82 765.738 92.46C764.998 92.08 764.218 91.89 763.398 91.89C762.558 91.89 761.758 92.08 760.998 92.46C760.258 92.82 759.648 93.41 759.168 94.23C758.688 95.05 758.448 96.08 758.448 97.32C758.448 98.58 758.688 99.62 759.168 100.44C759.648 101.26 760.258 101.86 760.998 102.24C761.758 102.62 762.558 102.81 763.398 102.81ZM780.12 105.3C779.02 105.3 778.06 105.04 777.24 104.52C776.44 104 775.82 103.29 775.38 102.39C774.96 101.49 774.75 100.5 774.75 99.42V90.9C774.75 90.52 774.88 90.2 775.14 89.94C775.42 89.68 775.75 89.55 776.13 89.55C776.51 89.55 776.83 89.68 777.09 89.94C777.35 90.2 777.48 90.52 777.48 90.9V99.12C777.48 101.56 778.58 102.78 780.78 102.78C781.78 102.78 782.67 102.52 783.45 102C784.25 101.48 785 100.78 785.7 99.9V90.9C785.7 90.52 785.83 90.2 786.09 89.94C786.37 89.68 786.7 89.55 787.08 89.55C787.46 89.55 787.78 89.68 788.04 89.94C788.3 90.2 788.43 90.52 788.43 90.9V103.77C788.43 104.15 788.3 104.48 788.04 104.76C787.78 105.02 787.46 105.15 787.08 105.15C786.7 105.15 786.37 105.02 786.09 104.76C785.83 104.48 785.7 104.15 785.7 103.77V102.54C784.94 103.38 784.12 104.05 783.24 104.55C782.36 105.05 781.32 105.3 780.12 105.3ZM794.532 105.15C794.152 105.15 793.832 105.02 793.572 104.76C793.312 104.5 793.182 104.18 793.182 103.8V90.93C793.182 90.55 793.312 90.23 793.572 89.97C793.832 89.69 794.152 89.55 794.532 89.55C794.912 89.55 795.232 89.69 795.492 89.97C795.772 90.23 795.912 90.55 795.912 90.93V92.22C797.312 90.34 798.882 89.4 800.622 89.4H800.772C801.152 89.4 801.462 89.53 801.702 89.79C801.962 90.05 802.092 90.37 802.092 90.75C802.092 91.13 801.962 91.44 801.702 91.68C801.442 91.92 801.112 92.04 800.712 92.04H800.562C799.602 92.04 798.722 92.28 797.922 92.76C797.122 93.22 796.452 93.86 795.912 94.68V103.8C795.912 104.18 795.772 104.5 795.492 104.76C795.232 105.02 794.912 105.15 794.532 105.15ZM814.319 99.21C814.019 99.21 813.779 99.13 813.599 98.97C813.419 98.81 813.319 98.6 813.299 98.34L812.759 88.44V85.47C812.759 85.03 812.909 84.66 813.209 84.36C813.509 84.06 813.879 83.91 814.319 83.91C814.759 83.91 815.119 84.06 815.399 84.36C815.699 84.66 815.849 85.03 815.849 85.47V88.44L815.309 98.34C815.289 98.6 815.189 98.81 815.009 98.97C814.849 99.13 814.619 99.21 814.319 99.21ZM814.319 105.12C813.839 105.12 813.419 104.95 813.059 104.61C812.719 104.25 812.549 103.82 812.549 103.32C812.549 102.84 812.719 102.43 813.059 102.09C813.419 101.73 813.839 101.55 814.319 101.55C814.819 101.55 815.239 101.73 815.579 102.09C815.939 102.43 816.119 102.84 816.119 103.32C816.119 103.82 815.939 104.25 815.579 104.61C815.239 104.95 814.819 105.12 814.319 105.12Z" fill="white"/>
<g clip-path="url(#clip1)">
<path d="M827.866 151V153.916C814.996 153.918 802.615 158.842 793.259 167.68C783.903 176.517 778.282 188.598 777.547 201.447H777.457V273.54H878.274V201.409C878.274 188.039 872.963 175.218 863.51 165.764C854.057 156.311 841.235 151 827.866 151V151Z" fill="#AD2C65"/>
<path d="M842.46 184.864H813.401C805.022 184.864 798.23 191.656 798.23 200.035V269.61C798.23 277.989 805.022 284.782 813.401 284.782H842.46C850.839 284.782 857.631 277.989 857.631 269.61V200.035C857.631 191.656 850.839 184.864 842.46 184.864Z" fill="#BA8071"/>
<path d="M803.217 284.601L802.561 313.98L802.305 325.863C802.267 327.567 802.908 329.215 804.086 330.446C805.264 331.678 806.883 332.39 808.586 332.428C810.29 332.465 811.939 331.824 813.17 330.646C814.401 329.468 815.113 327.849 815.151 326.146L815.408 314.263L816.063 284.884L803.217 284.601Z" fill="#BA8071"/>
<path d="M802.418 320.471L802.264 327.434C802.227 329.138 802.868 330.786 804.046 332.017C805.224 333.248 806.843 333.961 808.546 333.999C810.25 334.036 811.898 333.395 813.129 332.217C814.36 331.039 815.073 329.42 815.111 327.717L815.265 320.754L802.418 320.471Z" fill="#101B2D"/>
<path d="M803.21 284.642L802.555 314.021L802.529 315.318L815.376 315.601L815.401 314.304L816.044 284.924L803.21 284.642Z" fill="#AD2C65"/>
<path d="M837.645 285.064L838.853 312.478L839.38 324.348C839.454 326.052 840.203 327.656 841.461 328.807C842.718 329.959 844.382 330.564 846.085 330.489C847.789 330.414 849.393 329.665 850.544 328.408C851.696 327.15 852.301 325.486 852.226 323.783L851.699 311.913L850.492 284.499L837.645 285.064Z" fill="#BA8071"/>
<path d="M839.133 318.918L839.442 325.893C839.517 327.597 840.265 329.201 841.523 330.352C842.78 331.504 844.444 332.109 846.147 332.034C847.851 331.959 849.455 331.21 850.606 329.952C851.758 328.695 852.363 327.031 852.288 325.328L851.98 318.352L839.133 318.918Z" fill="#101B2D"/>
<path d="M837.645 285.064L838.853 312.478L838.904 313.776L851.738 313.21L851.686 311.913L850.479 284.499L837.645 285.064Z" fill="#AD2C65"/>
<path d="M799.899 259.319C794.805 268.442 789.146 277.238 782.955 285.655C781.197 287.992 779.296 290.219 777.264 292.322C776.845 292.7 776.519 293.171 776.313 293.696C776.209 293.971 776.132 294.255 776.082 294.544C776.042 294.804 776.016 295.065 776.005 295.328C775.959 296.659 776.237 297.982 776.814 299.182C777.12 299.807 777.59 300.339 778.173 300.719C778.757 301.099 779.433 301.313 780.129 301.34C780.526 301.384 780.926 301.384 781.323 301.34C781.695 301.252 782.056 301.128 782.402 300.967C783.158 300.672 783.851 300.236 784.445 299.683C786.841 297.262 789.077 294.687 791.138 291.975C797.632 283.144 803.554 273.906 808.866 264.317L799.899 259.319Z" fill="#BA8071"/>
<path d="M799.899 259.319C794.821 268.408 789.179 277.169 783.006 285.552L791.176 291.782C797.653 283.014 803.561 273.84 808.866 264.317L799.899 259.319Z" fill="#E93379"/>
<path d="M850 263.997C855.332 273.558 861.266 282.77 867.767 291.579C869.828 294.291 872.063 296.865 874.46 299.286C875.053 299.84 875.746 300.276 876.502 300.571C876.851 300.709 877.212 300.812 877.581 300.879C877.974 300.923 878.37 300.923 878.763 300.879C879.461 300.855 880.14 300.641 880.726 300.261C881.312 299.881 881.783 299.349 882.09 298.721C882.662 297.519 882.939 296.198 882.9 294.867C882.889 294.605 882.863 294.343 882.823 294.084C882.769 293.794 882.687 293.51 882.579 293.236C882.378 292.711 882.056 292.24 881.641 291.861C879.6 289.808 877.691 287.628 875.924 285.335C869.733 276.918 864.074 268.123 858.98 259L850 263.997Z" fill="#BA8071"/>
<path d="M850 263.997C855.313 273.524 861.221 282.706 867.69 291.489L875.924 285.232C869.733 276.851 864.074 268.09 858.98 259L850 263.997Z" fill="#E93379"/>
<path d="M827.868 289.92C845.328 289.92 859.483 283.461 859.483 275.494C859.483 267.526 845.328 261.067 827.868 261.067C810.408 261.067 796.253 267.526 796.253 275.494C796.253 283.461 810.408 289.92 827.868 289.92Z" fill="#AD2C65"/>
<path d="M859.483 257.94H796.253V275.231H859.483V257.94Z" fill="#E93379"/>
<path d="M827.866 151V153.916C814.996 153.918 802.615 158.842 793.259 167.68C783.903 176.517 778.282 188.598 777.547 201.447H777.457V273.54H798.204V200.034C798.204 198.04 798.597 196.065 799.361 194.222C800.125 192.38 801.245 190.706 802.657 189.297C804.068 187.888 805.744 186.771 807.587 186.01C809.431 185.249 811.406 184.859 813.401 184.863H842.446C844.439 184.863 846.411 185.255 848.252 186.018C850.093 186.78 851.765 187.898 853.174 189.306C854.583 190.715 855.7 192.388 856.463 194.228C857.225 196.069 857.618 198.042 857.618 200.034V273.54H878.274V201.409C878.274 188.039 872.963 175.218 863.51 165.764C854.057 156.311 841.235 151 827.866 151V151Z" fill="#AD2C65"/>
<path d="M810.442 222.58C811.463 222.58 812.292 221.752 812.292 220.73C812.292 219.709 811.463 218.88 810.442 218.88C809.42 218.88 808.592 219.709 808.592 220.73C808.592 221.752 809.42 222.58 810.442 222.58Z" fill="#0E2732"/>
<path d="M835.595 222.58C836.617 222.58 837.445 221.752 837.445 220.73C837.445 219.709 836.617 218.88 835.595 218.88C834.573 218.88 833.745 219.709 833.745 220.73C833.745 221.752 834.573 222.58 835.595 222.58Z" fill="#0E2732"/>
<path d="M831.78 239.643H815.375V244.113H831.78V239.643Z" fill="white"/>
<path d="M815.375 244.778H831.78V246.884C831.78 248.07 831.309 249.207 830.471 250.045C829.632 250.884 828.495 251.355 827.31 251.355H819.859C818.673 251.355 817.536 250.884 816.698 250.045C815.859 249.207 815.388 248.07 815.388 246.884V244.778H815.375Z" fill="#701926"/>
<path fill-rule="evenodd" clip-rule="evenodd" d="M830.584 249.928C830.547 249.968 830.509 250.007 830.471 250.045C829.633 250.883 828.496 251.354 827.31 251.354H819.859C818.673 251.354 817.536 250.883 816.698 250.045C816.625 249.972 816.556 249.898 816.489 249.821C816.7 247.947 818.907 247.585 821.773 247.115C822.339 247.022 822.931 246.925 823.538 246.812C827.279 246.111 830.423 247.482 830.584 249.928Z" fill="#CA3858"/>
<path d="M792.466 219.366C791.252 218.789 789.911 218.529 788.57 218.61C787.228 218.69 785.929 219.109 784.792 219.827C783.656 220.545 782.72 221.539 782.072 222.716C781.423 223.894 781.083 225.216 781.083 226.56C781.083 227.904 781.423 229.226 782.072 230.403C782.72 231.581 783.656 232.575 784.792 233.293C785.929 234.011 787.228 234.43 788.57 234.51C789.911 234.591 791.252 234.331 792.466 233.754V219.366Z" fill="#BA8071"/>
<path d="M866.908 218.595C865.633 218.591 864.376 218.9 863.247 219.494V233.625C864.319 234.183 865.503 234.489 866.71 234.522C867.917 234.554 869.116 234.312 870.215 233.813C871.315 233.314 872.287 232.571 873.057 231.641C873.827 230.711 874.376 229.618 874.662 228.445C874.948 227.272 874.963 226.049 874.707 224.869C874.45 223.689 873.929 222.582 873.182 221.633C872.435 220.685 871.482 219.918 870.395 219.392C869.308 218.865 868.116 218.593 866.908 218.595Z" fill="#BA8071"/>
<path d="M789.045 229.983C790.932 229.983 792.462 228.453 792.462 226.566C792.462 224.679 790.932 223.149 789.045 223.149C787.158 223.149 785.628 224.679 785.628 226.566C785.628 228.453 787.158 229.983 789.045 229.983Z" fill="#D37E7A"/>
<path d="M787.927 255.056V236.544C788.388 236.392 788.779 236.08 789.031 235.665C789.283 235.25 789.378 234.759 789.301 234.28C789.224 233.801 788.978 233.365 788.609 233.05C788.239 232.736 787.77 232.563 787.285 232.563C786.799 232.563 786.33 232.736 785.96 233.05C785.591 233.365 785.345 233.801 785.268 234.28C785.191 234.759 785.287 235.25 785.538 235.665C785.79 236.08 786.182 236.392 786.642 236.544V255.056C785.421 255.219 784.307 255.84 783.527 256.794C782.746 257.747 782.358 258.962 782.439 260.191C782.521 261.42 783.067 262.573 783.967 263.415C784.866 264.257 786.052 264.725 787.285 264.725C788.517 264.725 789.703 264.257 790.602 263.415C791.502 262.573 792.048 261.42 792.13 260.191C792.211 258.962 791.823 257.747 791.042 256.794C790.262 255.84 789.148 255.219 787.927 255.056Z" fill="#FFED58"/>
<path d="M866.909 229.983C868.796 229.983 870.326 228.453 870.326 226.566C870.326 224.679 868.796 223.149 866.909 223.149C865.022 223.149 863.492 224.679 863.492 226.566C863.492 228.453 865.022 229.983 866.909 229.983Z" fill="#D37E7A"/>
<path d="M869.357 255.056V236.544C869.818 236.392 870.209 236.08 870.461 235.665C870.713 235.25 870.809 234.759 870.732 234.28C870.654 233.801 870.409 233.365 870.039 233.05C869.67 232.736 869.2 232.563 868.715 232.563C868.23 232.563 867.76 232.736 867.391 233.05C867.021 233.365 866.776 233.801 866.699 234.28C866.621 234.759 866.717 235.25 866.969 235.665C867.221 236.08 867.612 236.392 868.073 236.544V255.056C866.851 255.219 865.738 255.84 864.957 256.794C864.177 257.747 863.788 258.962 863.87 260.191C863.951 261.42 864.497 262.573 865.397 263.415C866.297 264.257 867.483 264.725 868.715 264.725C869.947 264.725 871.133 264.257 872.033 263.415C872.933 262.573 873.479 261.42 873.56 260.191C873.642 258.962 873.253 257.747 872.473 256.794C871.692 255.84 870.579 255.219 869.357 255.056Z" fill="#FFED58"/>
<path d="M827.868 151H826.853C820.667 152.56 814.819 155.242 809.601 158.913C791.231 172.71 785.36 195.962 793.595 207.305C801.829 218.649 825.774 220.216 844.556 206.984C859.534 195.744 866.214 178.196 863.722 165.966C859.039 161.216 853.456 157.447 847.3 154.877C841.145 152.308 834.539 150.99 827.868 151Z" fill="#E93379"/>
<path d="M802.755 188.715C802.545 188.712 802.337 188.677 802.138 188.612C801.898 188.532 801.675 188.406 801.484 188.24C801.293 188.073 801.137 187.871 801.024 187.644C800.912 187.417 800.846 187.17 800.83 186.917C800.814 186.664 800.848 186.411 800.93 186.171C803.734 178.28 808.823 171.402 815.55 166.414C820.285 163.085 825.634 160.727 831.286 159.477C833.983 158.891 836.735 158.594 839.495 158.59C840.006 158.59 840.496 158.793 840.858 159.155C841.219 159.516 841.422 160.006 841.422 160.517C841.422 161.028 841.219 161.518 840.858 161.88C840.496 162.241 840.006 162.444 839.495 162.444C837.007 162.451 834.527 162.718 832.096 163.241C826.969 164.375 822.118 166.515 817.823 169.535C811.748 174.049 807.155 180.27 804.63 187.404C804.5 187.796 804.248 188.135 803.91 188.371C803.572 188.607 803.167 188.727 802.755 188.715Z" fill="#EB85B5"/>
</g>
<path d="M618.107 285.374L613.634 305.202L609.541 323.033C609.353 323.821 609.324 324.638 609.454 325.437C609.585 326.236 609.872 327.001 610.3 327.688C610.728 328.376 611.287 328.971 611.947 329.441C612.606 329.911 613.352 330.245 614.142 330.425C614.931 330.605 615.748 330.626 616.546 330.488C617.344 330.35 618.106 330.056 618.789 329.621C619.472 329.187 620.063 328.622 620.526 327.958C620.99 327.294 621.317 326.545 621.489 325.754L625.545 307.96L630.055 288.132L618.107 285.374Z" fill="#F5C8A6"/>
<path d="M610.697 317.973L609.214 324.455C609.027 325.243 608.997 326.06 609.128 326.859C609.258 327.658 609.545 328.423 609.973 329.111C610.401 329.798 610.961 330.394 611.62 330.863C612.279 331.333 613.025 331.667 613.815 331.847C614.604 332.027 615.421 332.048 616.219 331.911C617.017 331.773 617.779 331.478 618.462 331.044C619.146 330.609 619.736 330.044 620.199 329.38C620.663 328.716 620.99 327.967 621.162 327.176L622.645 320.693L610.697 317.973Z" fill="#101B2D"/>
<path d="M618.113 285.374L613.604 305.202L613.138 307.212L625.099 309.933L625.552 307.923L630.062 288.095L618.113 285.374Z" fill="#FDC859"/>
<path d="M653.106 288.095L657.616 307.96L661.672 325.79C661.844 326.582 662.172 327.331 662.635 327.994C663.099 328.658 663.689 329.224 664.372 329.658C665.055 330.092 665.818 330.387 666.616 330.525C667.413 330.663 668.23 330.641 669.02 330.462C669.809 330.282 670.555 329.948 671.215 329.478C671.874 329.008 672.434 328.412 672.861 327.725C673.289 327.038 673.577 326.272 673.707 325.473C673.837 324.674 673.808 323.858 673.621 323.07L669.564 305.239L665.116 285.374L653.106 288.095Z" fill="#F5C8A6"/>
<path d="M660.511 320.693L661.994 327.176C662.166 327.967 662.493 328.716 662.957 329.38C663.42 330.044 664.01 330.609 664.694 331.044C665.377 331.478 666.139 331.773 666.937 331.911C667.735 332.048 668.552 332.027 669.341 331.847C670.131 331.667 670.877 331.333 671.536 330.863C672.195 330.394 672.755 329.798 673.183 329.111C673.611 328.423 673.898 327.658 674.028 326.859C674.159 326.06 674.129 325.243 673.942 324.455L672.459 317.973L660.511 320.693Z" fill="#101B2D"/>
<path d="M608.312 262.679C603.467 271.387 598.078 279.781 592.178 287.81C590.498 290.04 588.679 292.161 586.73 294.16C586.329 294.524 586.019 294.977 585.825 295.484C585.724 295.745 585.65 296.016 585.604 296.293C585.559 296.54 585.535 296.79 585.531 297.041C585.487 298.311 585.752 299.573 586.302 300.718C586.594 301.315 587.041 301.822 587.597 302.185C588.153 302.547 588.797 302.752 589.46 302.778C589.839 302.814 590.22 302.814 590.599 302.778C590.95 302.714 591.295 302.615 591.627 302.484C592.343 302.2 592.999 301.785 593.561 301.258C595.852 298.951 597.987 296.493 599.951 293.902C606.151 285.452 611.802 276.612 616.869 267.435L608.312 262.679Z" fill="#F5C8A6"/>
<path d="M608.313 262.679C603.481 271.361 598.108 279.73 592.227 287.736L600.013 293.682C606.186 285.303 611.816 276.536 616.869 267.435L608.313 262.679Z" fill="#FFDF5B"/>
<path d="M666.016 267.57C671.089 276.694 676.731 285.489 682.909 293.902C684.881 296.488 687.015 298.944 689.299 301.258C689.868 301.782 690.528 302.197 691.246 302.484C691.578 302.615 691.922 302.714 692.274 302.778C692.648 302.814 693.026 302.814 693.4 302.778C694.065 302.755 694.712 302.551 695.27 302.188C695.829 301.825 696.278 301.317 696.571 300.718C697.115 299.571 697.379 298.31 697.342 297.041C697.332 296.79 697.307 296.541 697.268 296.293C697.213 296.017 697.135 295.747 697.036 295.484C696.842 294.98 696.536 294.528 696.142 294.16C694.191 292.164 692.371 290.043 690.695 287.81C684.795 279.778 679.402 271.385 674.548 262.679L666.016 267.57Z" fill="#F5C8A6"/>
<path d="M666.016 267.57C671.09 276.666 676.732 285.433 682.909 293.817L690.695 287.871C684.806 279.863 679.421 271.494 674.573 262.814L666.016 267.57Z" fill="#FFDF5B"/>
<path d="M653.106 288.095L657.616 307.923L658.069 309.933L670.03 307.212L669.564 305.202L665.055 285.374L653.106 288.095Z" fill="#FDC859"/>
<path d="M641.442 291.631C660.514 291.631 675.976 285.469 675.976 277.869C675.976 270.268 660.514 264.106 641.442 264.106C622.369 264.106 606.908 270.268 606.908 277.869C606.908 285.469 622.369 291.631 641.442 291.631Z" fill="#FDC859"/>
<path d="M675.988 261.132H606.908V277.627H675.988V261.132Z" fill="#FFDF5B"/>
<path d="M611.09 238.787C628.261 238.787 642.181 224.867 642.181 207.697C642.181 190.526 628.261 176.606 611.09 176.606C593.92 176.606 580 190.526 580 207.697C580 224.867 593.92 238.787 611.09 238.787Z" fill="#FDC859"/>
<path d="M671.807 238.787C688.978 238.787 702.897 224.867 702.897 207.697C702.897 190.526 688.978 176.606 671.807 176.606C654.636 176.606 640.717 190.526 640.717 207.697C640.717 224.867 654.636 238.787 671.807 238.787Z" fill="#FDC859"/>
<path d="M680.436 213.411C678.868 213.4 677.329 213.825 675.988 214.636V195.36H606.92V214.673C605.621 213.868 604.13 213.424 602.602 213.389C601.074 213.353 599.564 213.726 598.228 214.47C596.893 215.213 595.78 216.3 595.005 217.618C594.231 218.935 593.823 220.436 593.823 221.965C593.823 223.493 594.231 224.994 595.005 226.312C595.78 227.629 596.893 228.716 598.228 229.46C599.564 230.203 601.074 230.576 602.602 230.541C604.13 230.505 605.621 230.061 606.92 229.256V261.927H675.988V229.256C677.117 229.965 678.397 230.4 679.724 230.527C681.052 230.655 682.391 230.471 683.635 229.991C684.879 229.51 685.994 228.747 686.891 227.76C687.788 226.773 688.443 225.591 688.804 224.307C689.164 223.023 689.22 221.673 688.968 220.363C688.715 219.054 688.161 217.821 687.348 216.764C686.536 215.706 685.488 214.852 684.289 214.27C683.089 213.688 681.77 213.394 680.436 213.411Z" fill="#F5C8A6"/>
<path d="M602.445 225.632C604.468 225.632 606.109 223.992 606.109 221.968C606.109 219.944 604.468 218.304 602.445 218.304C600.421 218.304 598.781 219.944 598.781 221.968C598.781 223.992 600.421 225.632 602.445 225.632Z" fill="#D37E7A"/>
<path d="M654.149 227.773H636.747V232.038H654.149V227.773Z" fill="white"/>
<path d="M636.747 232.698H654.149V234.708C654.149 235.839 653.699 236.924 652.9 237.724C652.1 238.523 651.015 238.973 649.884 238.973H641.011C639.88 238.973 638.796 238.523 637.996 237.724C637.196 236.924 636.747 235.839 636.747 234.708V232.698Z" fill="#701926"/>
<path fill-rule="evenodd" clip-rule="evenodd" d="M652.891 237.736C652.092 238.528 651.013 238.972 649.888 238.972H641.016C639.885 238.972 638.8 238.523 638 237.723C637.972 237.696 637.945 237.668 637.918 237.639C638.031 235.274 641.339 233.377 645.403 233.377C649.523 233.377 652.865 235.326 652.891 237.736Z" fill="#CA3858"/>
<path d="M675.89 188.169C675.288 179.442 671.397 171.268 665.004 165.297C658.61 159.327 650.19 156.004 641.442 156C632.692 155.998 624.268 159.319 617.873 165.291C611.479 171.262 607.59 179.44 606.993 188.169H606.908V190.534V206.33H675.976V188.169H675.89Z" fill="#FFDF5B"/>
<path d="M680.43 225.632C682.454 225.632 684.094 223.992 684.094 221.968C684.094 219.944 682.454 218.304 680.43 218.304C678.406 218.304 676.766 219.944 676.766 221.968C676.766 223.992 678.406 225.632 680.43 225.632Z" fill="#D37E7A"/>
<path d="M677.022 199.351C676.119 198.45 675.047 197.737 673.867 197.254C672.687 196.77 671.422 196.525 670.147 196.533C668.014 196.54 665.936 197.212 664.203 198.457C662.453 197.202 660.352 196.529 658.199 196.533C655.863 196.512 653.6 197.345 651.836 198.875C650.071 200.405 648.926 202.527 648.615 204.842H642.304C642.03 202.763 641.078 200.833 639.596 199.351C638.693 198.45 637.621 197.737 636.441 197.254C635.261 196.77 633.996 196.525 632.721 196.533C630.571 196.531 628.475 197.204 626.728 198.457C624.978 197.202 622.877 196.529 620.723 196.533C619.428 196.522 618.144 196.774 616.949 197.272C615.753 197.77 614.671 198.505 613.767 199.432C612.862 200.359 612.155 201.46 611.687 202.667C611.218 203.875 610.999 205.165 611.042 206.459C611.106 209.135 612.204 211.683 614.106 213.567L614.498 213.959L624.988 224.449L626.728 226.189L628.456 224.449L638.959 213.959L639.351 213.567C641.037 211.878 642.096 209.665 642.353 207.293H648.48C648.74 209.685 649.818 211.915 651.532 213.604L651.924 213.996L657.169 219.241L662.414 224.486L664.203 226.189L665.931 224.449L676.434 213.959L676.826 213.567C678.724 211.682 679.818 209.134 679.877 206.459C679.916 205.142 679.682 203.831 679.191 202.608C678.699 201.385 677.961 200.276 677.022 199.351ZM637.611 211.827L637.231 212.219L626.728 222.721L616.226 212.219L615.834 211.827C614.381 210.431 613.54 208.517 613.494 206.504C613.448 204.49 614.201 202.54 615.589 201.079C616.264 200.408 617.065 199.877 617.946 199.518C618.828 199.158 619.772 198.977 620.723 198.984C621.769 198.988 622.803 199.199 623.766 199.605C624.73 200.011 625.603 200.604 626.336 201.349L626.728 201.729L627.12 201.349C627.852 200.606 628.723 200.015 629.685 199.611C630.646 199.207 631.678 198.998 632.721 198.996C633.674 198.989 634.62 199.171 635.503 199.531C636.387 199.89 637.19 200.421 637.868 201.092C639.247 202.554 639.994 204.502 639.945 206.512C639.897 208.522 639.058 210.432 637.611 211.827ZM675.037 211.827L674.644 212.219L664.203 222.721L653.701 212.219L653.309 211.827C651.856 210.431 651.015 208.517 650.969 206.504C650.923 204.49 651.676 202.54 653.064 201.079C653.739 200.408 654.54 199.877 655.421 199.518C656.303 199.158 657.247 198.977 658.199 198.984C660.293 199.005 662.294 199.856 663.762 201.349L664.154 201.729L664.534 201.349C665.269 200.606 666.143 200.016 667.106 199.613C668.069 199.209 669.103 198.999 670.147 198.996C671.101 198.989 672.046 199.171 672.929 199.531C673.813 199.89 674.616 200.421 675.294 201.092C676.673 202.554 677.42 204.502 677.371 206.512C677.323 208.522 676.484 210.432 675.037 211.827Z" fill="#4067AF"/>
<path d="M629.277 199.788C628.478 200.185 627.749 200.71 627.12 201.344L626.728 201.724L626.336 201.344C625.175 200.154 623.662 199.369 622.02 199.104C620.378 198.839 618.695 199.109 617.219 199.873L633.395 216.05L637.243 212.214L637.623 211.822C638.252 211.192 638.774 210.464 639.167 209.665L629.277 199.788Z" fill="white"/>
<path d="M615.331 201.343C614.066 202.823 613.414 204.73 613.508 206.675C613.601 208.62 614.433 210.456 615.833 211.808L616.225 212.2L626.728 222.703L631.715 217.715L615.331 201.343Z" fill="white"/>
<path d="M664.544 201.351L664.213 201.718L663.772 201.351C662.942 200.516 661.937 199.876 660.831 199.476L674.115 212.76L674.654 212.221L675.046 211.828C676.161 210.737 676.923 209.336 677.236 207.808C677.548 206.279 677.396 204.692 676.799 203.25L673.122 199.574C671.678 198.981 670.09 198.834 668.561 199.15C667.033 199.467 665.634 200.233 664.544 201.351Z" fill="white"/>
<path d="M666.364 220.511L672.43 214.384L657.05 199.065C655.51 199.282 654.084 199.999 652.992 201.107C651.901 202.214 651.204 203.65 651.009 205.193L666.364 220.511Z" fill="white"/>
<path d="M261.381 213.21C261.411 219.032 259.143 224.63 255.069 228.789C250.996 232.948 245.446 235.332 239.625 235.422C233.804 235.513 228.182 233.303 223.981 229.273C219.78 225.243 217.339 219.718 217.188 213.898L261.381 213.21Z" fill="#071B29"/>
<path d="M247.765 185.997C248.688 192.034 247.193 198.192 243.603 203.132C240.013 208.073 234.619 211.399 228.592 212.386C222.565 213.374 216.392 211.944 211.413 208.407C206.434 204.87 203.052 199.512 202 193.496L247.765 185.997Z" fill="#46525D"/>
<path d="M239.215 198.136C241.244 202.562 241.445 207.61 239.774 212.183C238.103 216.757 234.695 220.486 230.29 222.561C225.886 224.636 220.84 224.889 216.25 223.265C211.659 221.641 207.895 218.272 205.775 213.889L239.215 198.136Z" fill="#0E2732"/>
<path d="M261.783 213.21C261.752 219.032 264.02 224.63 268.094 228.789C272.168 232.948 277.718 235.332 283.539 235.422C289.359 235.513 294.981 233.303 299.182 229.273C303.383 225.243 305.824 219.718 305.975 213.898L261.783 213.21Z" fill="#071B29"/>
<path d="M275.399 191.658C274.485 197.691 275.986 203.841 279.576 208.774C283.166 213.708 288.556 217.028 294.578 218.014C300.599 219.001 306.766 217.575 311.743 214.045C316.72 210.515 320.105 205.166 321.165 199.157L275.399 191.658Z" fill="#46525D"/>
<path d="M291.082 170.142C287.338 166.474 282.299 164.432 277.057 164.459C271.816 164.486 266.798 166.579 263.092 170.285C259.386 173.991 257.292 179.01 257.264 184.251C257.237 189.492 259.279 194.532 262.947 198.276L291.082 170.142Z" fill="#46525D"/>
<path d="M283.948 198.136C281.918 202.562 281.717 207.61 283.388 212.183C285.059 216.757 288.468 220.486 292.872 222.561C297.277 224.636 302.323 224.889 306.913 223.265C311.503 221.641 315.268 218.272 317.388 213.889L283.948 198.136Z" fill="#0E2732"/>
<path d="M286.145 269.802C291.043 278.6 296.492 287.081 302.458 295.194C304.362 297.687 306.423 300.056 308.628 302.286C309.177 302.792 309.814 303.192 310.508 303.468C310.828 303.596 311.161 303.691 311.501 303.752C311.862 303.787 312.226 303.787 312.588 303.752C313.23 303.73 313.855 303.533 314.394 303.183C314.933 302.833 315.367 302.344 315.65 301.766C316.175 300.66 316.431 299.444 316.394 298.22C316.385 297.978 316.361 297.738 316.324 297.499C316.27 297.233 316.195 296.972 316.099 296.719C315.912 296.233 315.616 295.797 315.236 295.442C313.351 293.517 311.594 291.472 309.976 289.319C304.279 281.574 299.071 273.48 294.384 265.086L286.145 269.802Z" fill="#FBC295"/>
<path d="M286.145 269.802C291.044 278.574 296.493 287.027 302.458 295.111L309.976 289.378C304.289 281.656 299.089 273.586 294.407 265.216L286.145 269.802Z" fill="#DAE572"/>
<path d="M239.393 287.025L235.078 306.152L231.13 323.351C230.949 324.111 230.921 324.899 231.047 325.67C231.173 326.441 231.45 327.179 231.862 327.842C232.275 328.505 232.815 329.079 233.451 329.532C234.087 329.985 234.807 330.308 235.568 330.481C236.329 330.655 237.118 330.676 237.887 330.542C238.657 330.409 239.392 330.125 240.051 329.706C240.71 329.287 241.28 328.742 241.727 328.102C242.174 327.461 242.489 326.739 242.655 325.976L246.568 308.811L250.918 289.685L239.393 287.025Z" fill="#FBC295"/>
<path d="M232.241 318.469L230.811 324.722C230.631 325.482 230.602 326.27 230.728 327.041C230.854 327.812 231.131 328.55 231.544 329.213C231.956 329.876 232.496 330.45 233.132 330.903C233.768 331.356 234.488 331.679 235.249 331.852C236.011 332.026 236.799 332.047 237.568 331.913C238.338 331.78 239.073 331.496 239.732 331.077C240.391 330.658 240.961 330.113 241.408 329.473C241.855 328.832 242.171 328.11 242.337 327.347L243.767 321.093L232.241 318.469Z" fill="#101B2D"/>
<path d="M239.393 287.025L235.042 306.152L234.593 308.09L246.131 310.715L246.568 308.776L250.918 289.65L239.393 287.025Z" fill="#729E36"/>
<path d="M273.141 289.65L277.491 308.811L281.404 326.011C281.57 326.774 281.886 327.497 282.333 328.137C282.78 328.777 283.349 329.323 284.008 329.742C284.667 330.161 285.403 330.445 286.172 330.578C286.942 330.711 287.73 330.69 288.491 330.517C289.253 330.343 289.972 330.021 290.608 329.568C291.244 329.115 291.784 328.54 292.197 327.877C292.61 327.214 292.887 326.476 293.013 325.705C293.138 324.935 293.11 324.147 292.929 323.387L289.017 306.187L284.726 287.025L273.141 289.65Z" fill="#FBC295"/>
<path d="M280.293 321.093L281.723 327.347C281.889 328.11 282.205 328.832 282.652 329.473C283.099 330.113 283.669 330.658 284.328 331.077C284.987 331.496 285.722 331.78 286.492 331.913C287.261 332.047 288.049 332.026 288.811 331.852C289.572 331.679 290.292 331.356 290.928 330.903C291.564 330.45 292.104 329.876 292.516 329.213C292.929 328.55 293.206 327.812 293.332 327.041C293.458 326.27 293.429 325.482 293.249 324.722L291.818 318.469L280.293 321.093Z" fill="#101B2D"/>
<path d="M273.141 289.65L277.491 308.776L277.929 310.715L289.466 308.09L289.017 306.152L284.667 287.025L273.141 289.65Z" fill="#729E36"/>
<path d="M229.451 265.216C224.772 273.613 219.568 281.706 213.871 289.449C212.249 291.599 210.492 293.644 208.611 295.572C208.223 295.923 207.923 296.361 207.736 296.849C207.639 297.101 207.567 297.362 207.523 297.629C207.48 297.867 207.456 298.108 207.452 298.35C207.41 299.575 207.666 300.792 208.197 301.896C208.478 302.472 208.911 302.961 209.448 303.31C209.985 303.66 210.606 303.858 211.247 303.882C211.612 303.917 211.981 303.917 212.346 303.882C212.686 303.821 213.018 303.726 213.339 303.599C214.03 303.326 214.664 302.924 215.207 302.416C217.419 300.192 219.48 297.822 221.377 295.324C227.364 287.176 232.821 278.651 237.714 269.802L229.451 265.216Z" fill="#FBC295"/>
<path d="M229.451 265.216C224.785 273.587 219.597 281.657 213.918 289.378L221.436 295.111C227.397 287.031 232.834 278.578 237.714 269.802L229.451 265.216Z" fill="#DAE572"/>
<path d="M261.9 293.066C280.297 293.066 295.212 287.122 295.212 279.791C295.212 272.459 280.297 266.516 261.9 266.516C243.502 266.516 228.588 272.459 228.588 279.791C228.588 287.122 243.502 293.066 261.9 293.066Z" fill="#729E36"/>
<path d="M295.223 263.643H228.588V279.554H295.223V263.643Z" fill="#DAE572"/>
<path d="M299.502 217.613C297.99 217.603 296.505 218.012 295.211 218.795V200.201H228.588V218.831C227.335 218.054 225.897 217.626 224.423 217.592C222.949 217.557 221.493 217.917 220.204 218.634C218.916 219.351 217.843 220.4 217.096 221.671C216.349 222.942 215.955 224.39 215.955 225.864C215.955 227.338 216.349 228.786 217.096 230.057C217.843 231.328 218.916 232.377 220.204 233.094C221.493 233.811 222.949 234.171 224.423 234.136C225.897 234.102 227.335 233.674 228.588 232.898V264.412H295.211V232.898C296.301 233.581 297.535 234.001 298.816 234.124C300.096 234.247 301.388 234.07 302.588 233.606C303.788 233.143 304.864 232.406 305.729 231.454C306.595 230.503 307.226 229.362 307.574 228.124C307.922 226.885 307.976 225.583 307.732 224.319C307.488 223.056 306.954 221.867 306.17 220.847C305.387 219.827 304.376 219.003 303.218 218.442C302.061 217.881 300.789 217.597 299.502 217.613Z" fill="#FBC295"/>
<path d="M224.285 229.398C226.237 229.398 227.82 227.816 227.82 225.864C227.82 223.912 226.237 222.329 224.285 222.329C222.333 222.329 220.751 223.912 220.751 225.864C220.751 227.816 222.333 229.398 224.285 229.398Z" fill="#D37E7A"/>
<path d="M295.129 193.261C294.548 184.843 290.795 176.958 284.628 171.199C278.461 165.44 270.338 162.235 261.9 162.231C253.46 162.229 245.334 165.432 239.166 171.193C232.997 176.953 229.246 184.841 228.671 193.261H228.588V195.543V210.78H295.212V193.261H295.129Z" fill="#FBC295"/>
<path d="M299.502 229.398C301.454 229.398 303.036 227.816 303.036 225.864C303.036 223.912 301.454 222.329 299.502 222.329C297.55 222.329 295.967 223.912 295.967 225.864C295.967 227.816 297.55 229.398 299.502 229.398Z" fill="#D37E7A"/>
<path d="M250.305 215.284C251.245 215.284 252.007 214.522 252.007 213.582C252.007 212.642 251.245 211.879 250.305 211.879C249.365 211.879 248.603 212.642 248.603 213.582C248.603 214.522 249.365 215.284 250.305 215.284Z" fill="#231F20"/>
<path d="M259.449 193.787C261.537 197.156 264.268 200.081 267.486 202.394C270.704 204.707 274.346 206.364 278.205 207.27C282.063 208.175 286.062 208.312 289.974 207.673C293.885 207.033 297.632 205.629 301.001 203.541C304.37 201.453 307.294 198.722 309.608 195.504C311.921 192.285 313.578 188.643 314.484 184.785C315.389 180.926 315.526 176.927 314.886 173.016C314.247 169.104 312.843 165.357 310.755 161.988L259.449 193.787Z" fill="#0E2732"/>
<path d="M263.077 198.86C269.809 200.155 276.78 198.743 282.479 194.932C288.177 191.121 292.144 185.218 293.52 178.501C294.895 171.785 293.568 164.798 289.826 159.054C286.084 153.309 280.229 149.271 273.53 147.814L263.077 198.86Z" fill="#2A3D4A"/>
<path d="M234.812 191.471C242.565 193.458 250.791 192.283 257.678 188.205C264.566 184.127 269.551 177.48 271.538 169.727C273.525 161.973 272.35 153.748 268.272 146.86C264.195 139.972 257.548 134.987 249.794 133L234.812 191.471Z" fill="#071B29"/>
<path d="M222 165.926C217.966 169.271 215.415 174.071 214.9 179.285C214.385 184.499 215.948 189.706 219.249 193.775C222.55 197.844 227.322 200.447 232.531 201.018C237.739 201.589 242.963 200.083 247.067 196.826L222 165.926Z" fill="#071B29"/>
<path d="M241.47 143.207C234.45 145.255 228.524 149.994 224.983 156.392C221.443 162.791 220.575 170.329 222.569 177.364C224.563 184.4 229.257 190.362 235.628 193.951C241.999 197.54 249.531 198.465 256.581 196.525L241.47 143.207Z" fill="#0E2732"/>
<path d="M307.52 180.313C306.757 173.054 303.16 166.388 297.51 161.766C291.861 157.143 284.616 154.936 277.348 155.624C270.081 156.313 263.379 159.841 258.699 165.442C254.018 171.044 251.736 178.266 252.35 185.54L307.52 180.313Z" fill="#071B29"/>
<path d="M298.567 149.563C292.798 144.982 285.456 142.86 278.132 143.656C270.809 144.453 264.094 148.105 259.445 153.819C254.796 159.533 252.587 166.85 253.297 174.183C254.007 181.515 257.578 188.272 263.237 192.989L298.567 149.563Z" fill="#0E2732"/>
<path d="M262.993 158.72C257.754 158.777 252.748 160.898 249.063 164.623C245.378 168.348 243.312 173.376 243.312 178.615C243.312 183.855 245.378 188.883 249.063 192.608C252.748 196.333 257.754 198.454 262.993 198.51V158.72Z" fill="#2A3D4A"/>
<path d="M273.357 215.284C274.297 215.284 275.059 214.522 275.059 213.582C275.059 212.642 274.297 211.879 273.357 211.879C272.416 211.879 271.654 212.642 271.654 213.582C271.654 214.522 272.416 215.284 273.357 215.284Z" fill="#231F20"/>
<path d="M264.036 245.197C264.452 245.197 264.868 245.239 265.276 245.321C265.276 245.298 265.276 245.275 265.276 245.252C265.276 244.177 264.999 243.12 264.47 242.183C263.941 241.247 263.179 240.463 262.258 239.908L252.991 243.694C252.78 244.515 252.738 245.369 252.868 246.206C252.998 247.043 253.297 247.845 253.746 248.563C254.195 249.281 254.786 249.9 255.482 250.382C256.178 250.865 256.964 251.201 257.794 251.37C257.812 249.726 258.478 248.157 259.646 247.001C260.815 245.845 262.392 245.197 264.036 245.197Z" fill="#8F0026"/>
<path d="M265.276 245.321C264.375 245.139 263.445 245.158 262.553 245.376C261.661 245.595 260.828 246.008 260.113 246.585C259.399 247.163 258.821 247.892 258.42 248.718C258.02 249.545 257.807 250.45 257.796 251.369C258.697 251.55 259.626 251.531 260.518 251.312C261.41 251.093 262.243 250.68 262.957 250.103C263.672 249.525 264.25 248.797 264.65 247.971C265.051 247.144 265.265 246.239 265.276 245.321Z" fill="#CE003A"/>
<path d="M240.894 210.42C238.368 210.42 235.897 211.17 233.797 212.574C231.696 213.978 230.059 215.974 229.092 218.308C228.125 220.643 227.873 223.212 228.366 225.69C228.859 228.168 230.076 230.445 231.863 232.231C233.65 234.018 235.926 235.235 238.405 235.727C240.883 236.22 243.452 235.967 245.786 235C248.121 234.033 250.116 232.396 251.52 230.295C252.924 228.194 253.673 225.724 253.673 223.197C253.674 221.519 253.343 219.857 252.701 218.307C252.059 216.756 251.118 215.347 249.931 214.161C248.744 212.974 247.335 212.033 245.785 211.391C244.234 210.749 242.573 210.419 240.894 210.42Z" fill="#8BB629"/>
<path d="M273.263 210.42C270.736 210.42 268.266 211.169 266.165 212.573C264.064 213.977 262.426 215.973 261.459 218.307C260.492 220.642 260.239 223.211 260.732 225.689C261.225 228.167 262.442 230.444 264.229 232.231C266.016 234.017 268.292 235.234 270.771 235.727C273.249 236.22 275.818 235.967 278.152 235C280.487 234.033 282.482 232.396 283.886 230.295C285.29 228.194 286.04 225.724 286.04 223.197C286.04 221.519 285.71 219.857 285.068 218.307C284.426 216.757 283.485 215.348 282.298 214.161C281.112 212.975 279.703 212.034 278.153 211.392C276.602 210.75 274.941 210.419 273.263 210.42Z" fill="#8BB629"/>
<path d="M288.484 221.831C288.147 218.028 286.398 214.489 283.581 211.911C280.764 209.333 277.084 207.903 273.266 207.903C269.448 207.903 265.768 209.333 262.951 211.911C260.134 214.489 258.385 218.028 258.047 221.831H256.113C255.763 217.91 253.914 214.275 250.951 211.684C247.988 209.092 244.139 207.744 240.206 207.919C236.274 208.094 232.56 209.78 229.839 212.624C227.118 215.469 225.6 219.254 225.6 223.191C225.6 227.127 227.118 230.912 229.839 233.757C232.56 236.602 236.274 238.287 240.206 238.463C244.139 238.638 247.988 237.289 250.951 234.698C253.914 232.106 255.763 228.471 256.113 224.55H258.047C258.385 228.354 260.134 231.893 262.951 234.471C265.768 237.048 269.448 238.478 273.266 238.478C277.084 238.478 280.764 237.048 283.581 234.471C286.398 231.893 288.147 228.354 288.484 224.55H288.35V221.831H288.484ZM240.895 235.968C238.368 235.968 235.898 235.218 233.797 233.814C231.697 232.409 230.059 230.414 229.093 228.079C228.126 225.744 227.873 223.175 228.367 220.697C228.86 218.219 230.077 215.942 231.865 214.156C233.652 212.369 235.928 211.153 238.407 210.66C240.885 210.167 243.454 210.421 245.789 211.388C248.123 212.356 250.118 213.993 251.522 216.095C252.925 218.196 253.674 220.666 253.674 223.193C253.674 224.871 253.344 226.533 252.702 228.083C252.06 229.634 251.118 231.042 249.932 232.229C248.745 233.415 247.336 234.356 245.785 234.998C244.235 235.639 242.573 235.969 240.895 235.968ZM273.264 235.968C270.737 235.968 268.267 235.218 266.166 233.814C264.065 232.41 262.427 230.415 261.46 228.08C260.494 225.745 260.241 223.176 260.734 220.698C261.227 218.219 262.444 215.943 264.231 214.156C266.018 212.37 268.295 211.153 270.773 210.66C273.252 210.168 275.821 210.421 278.155 211.388C280.49 212.355 282.485 213.993 283.889 216.094C285.293 218.196 286.042 220.666 286.041 223.193C286.042 224.871 285.711 226.533 285.069 228.083C284.427 229.633 283.486 231.041 282.299 232.228C281.113 233.414 279.704 234.355 278.154 234.997C276.603 235.639 274.942 235.969 273.264 235.968Z" fill="#F7F7E5"/>
<path d="M228.119 223.193C228.118 225.852 228.947 228.446 230.492 230.612C232.036 232.777 234.217 234.407 236.732 235.273C239.247 236.139 241.969 236.198 244.519 235.443C247.07 234.687 249.32 233.154 250.957 231.058L233.027 213.129C231.497 214.323 230.26 215.849 229.409 217.593C228.559 219.337 228.117 221.252 228.119 223.193Z" fill="#C9D23A"/>
<path d="M253.669 223.045L241.045 210.42C240.994 210.42 240.945 210.42 240.896 210.42C239.272 210.418 237.662 210.727 236.154 211.331L252.76 227.937C253.364 226.43 253.675 224.821 253.675 223.197C253.675 223.141 253.67 223.094 253.669 223.045Z" fill="#C9D23A"/>
<path d="M260.488 223.193C260.487 225.852 261.316 228.446 262.86 230.612C264.404 232.777 266.586 234.407 269.101 235.273C271.615 236.139 274.338 236.199 276.888 235.443C279.438 234.687 281.689 233.154 283.326 231.058L265.398 213.129C263.868 214.322 262.63 215.849 261.779 217.593C260.928 219.337 260.486 221.252 260.488 223.193Z" fill="#C9D23A"/>
<path d="M286.037 223.045L273.413 210.42C273.363 210.42 273.315 210.42 273.263 210.42C271.641 210.418 270.033 210.728 268.528 211.331L285.13 227.937C285.734 226.43 286.043 224.821 286.043 223.197C286.041 223.141 286.037 223.094 286.037 223.045Z" fill="#C9D23A"/>
<path d="M423.309 222.115C428.425 222.115 432.572 217.968 432.572 212.853C432.572 207.737 428.425 203.59 423.309 203.59C418.194 203.59 414.047 207.737 414.047 212.853C414.047 217.968 418.194 222.115 423.309 222.115Z" fill="#DEAB7F"/>
<path d="M423.309 216.82C425.5 216.82 427.277 215.043 427.277 212.852C427.277 210.661 425.5 208.884 423.309 208.884C421.118 208.884 419.341 210.661 419.341 212.852C419.341 215.043 421.118 216.82 423.309 216.82Z" fill="#D37E7A"/>
<path d="M498.096 222.115C503.212 222.115 507.359 217.968 507.359 212.853C507.359 207.737 503.212 203.59 498.096 203.59C492.98 203.59 488.833 207.737 488.833 212.853C488.833 217.968 492.98 222.115 498.096 222.115Z" fill="#DEAB7F"/>
<path d="M498.096 216.82C500.287 216.82 502.064 215.043 502.064 212.852C502.064 210.661 500.287 208.884 498.096 208.884C495.905 208.884 494.128 210.661 494.128 212.852C494.128 215.043 495.905 216.82 498.096 216.82Z" fill="#D37E7A"/>
<path d="M440.36 184.046H481.046C485.568 184.049 489.903 185.847 493.1 189.044C496.297 192.241 498.095 196.576 498.098 201.098V256.115H423.308V201.098C423.308 196.575 425.105 192.238 428.303 189.04C431.5 185.842 435.838 184.046 440.36 184.046Z" fill="#DEAB7F"/>
<path d="M470.125 225.113H451.282V229.731H470.125V225.113Z" fill="white"/>
<path d="M447.764 205.75C448.819 205.75 449.675 204.895 449.675 203.839C449.675 202.784 448.819 201.928 447.764 201.928C446.708 201.928 445.853 202.784 445.853 203.839C445.853 204.895 446.708 205.75 447.764 205.75Z" fill="#0E2732"/>
<path d="M473.642 205.75C474.697 205.75 475.553 204.895 475.553 203.839C475.553 202.784 474.697 201.928 473.642 201.928C472.587 201.928 471.731 202.784 471.731 203.839C471.731 204.895 472.587 205.75 473.642 205.75Z" fill="#0E2732"/>
<path d="M446.247 214.843C446.247 213.329 445.646 211.878 444.576 210.808C443.506 209.738 442.054 209.137 440.541 209.137C439.028 209.137 437.576 209.738 436.506 210.808C435.436 211.878 434.835 213.329 434.835 214.843C434.942 218.194 436.349 221.372 438.758 223.704C441.166 226.037 444.387 227.341 447.74 227.341C451.093 227.341 454.314 226.037 456.723 223.704C459.131 221.372 460.538 218.194 460.645 214.843H446.247Z" fill="#404040"/>
<path d="M486.565 214.843C486.565 213.329 485.964 211.878 484.894 210.808C483.824 209.738 482.373 209.137 480.859 209.137C479.346 209.137 477.895 209.738 476.824 210.808C475.754 211.878 475.153 213.329 475.153 214.843H460.755C460.863 218.194 462.269 221.372 464.678 223.704C467.086 226.037 470.308 227.341 473.66 227.341C477.013 227.341 480.234 226.037 482.643 223.704C485.051 221.372 486.458 218.194 486.565 214.843Z" fill="#404040"/>
<path d="M423.688 257.107C418.432 266.534 412.586 275.62 406.184 284.311C404.375 286.731 402.411 289.031 400.306 291.198C399.869 291.59 399.532 292.082 399.324 292.631C399.214 292.914 399.134 293.207 399.085 293.507C399.042 293.775 399.016 294.045 399.005 294.316C398.958 295.691 399.245 297.057 399.841 298.297C400.157 298.944 400.642 299.492 401.245 299.885C401.848 300.277 402.546 300.499 403.265 300.527C403.677 300.55 404.091 300.528 404.499 300.46C404.881 300.402 405.255 300.3 405.614 300.155C406.392 299.845 407.107 299.395 407.724 298.828C410.204 296.304 412.514 293.618 414.637 290.786C421.347 281.688 427.464 272.167 432.95 262.282L423.688 257.107Z" fill="#DEAB7F"/>
<path d="M423.687 257.107C418.443 266.504 412.615 275.563 406.237 284.231L414.677 290.68C421.365 281.612 427.468 272.127 432.95 262.282L423.687 257.107Z" fill="#BFE8FB"/>
<path d="M488.173 261.269C493.678 271.142 499.808 280.654 506.525 289.746C508.648 292.578 510.958 295.264 513.439 297.788C514.056 298.355 514.771 298.805 515.549 299.115C515.907 299.26 516.281 299.362 516.664 299.42C517.071 299.488 517.485 299.51 517.898 299.487C518.617 299.459 519.315 299.237 519.917 298.845C520.52 298.452 521.005 297.903 521.321 297.257C521.912 296.015 522.198 294.651 522.157 293.276C522.147 293.005 522.12 292.735 522.078 292.467C522.024 292.167 521.939 291.873 521.826 291.591C521.622 291.043 521.29 290.551 520.857 290.158C518.738 287.995 516.765 285.694 514.952 283.27C508.55 274.58 502.704 265.494 497.448 256.067L488.173 261.269Z" fill="#DEAB7F"/>
<path d="M488.173 261.269C493.664 271.108 499.767 280.592 506.446 289.667L514.885 283.217C508.512 274.549 502.688 265.49 497.448 256.093L488.173 261.269Z" fill="#BFE8FB"/>
<path d="M451.335 230.437H470.178V232.613C470.178 233.838 469.692 235.013 468.826 235.879C467.96 236.745 466.785 237.231 465.56 237.231H455.9C454.684 237.217 453.523 236.725 452.669 235.86C451.814 234.996 451.335 233.829 451.335 232.613V230.437Z" fill="#701926"/>
<path fill-rule="evenodd" clip-rule="evenodd" d="M468.76 235.943C467.901 236.769 466.754 237.231 465.56 237.231H455.9C454.684 237.217 453.523 236.724 452.669 235.86C452.628 235.819 452.589 235.778 452.55 235.736C452.721 233.2 456.283 231.176 460.652 231.176C465.13 231.176 468.76 233.302 468.76 235.926C468.76 235.932 468.76 235.937 468.76 235.943Z" fill="#CA3858"/>
<path d="M485.345 98C480.203 98.003 475.166 99.4517 470.809 102.181C466.452 104.91 462.949 108.809 460.702 113.433C458.556 109.032 455.271 105.286 451.188 102.583C447.104 99.8803 442.372 98.32 437.482 98.064C432.592 97.8081 427.723 98.8657 423.38 101.127C419.037 103.389 415.379 106.772 412.784 110.925C410.19 115.078 408.755 119.849 408.628 124.744C408.501 129.639 409.687 134.479 412.062 138.761C414.437 143.043 417.915 146.611 422.135 149.094C426.355 151.578 431.163 152.887 436.06 152.885V169.791H485.345V152.885C492.623 152.885 499.603 149.994 504.749 144.847C509.896 139.701 512.787 132.721 512.787 125.442C512.787 118.164 509.896 111.184 504.749 106.038C499.603 100.891 492.623 98 485.345 98V98Z" fill="#A0CDE2"/>
<path d="M494.314 167.188H427.088V186.323H494.314V167.188Z" fill="#BFE8FB"/>
<path d="M429.382 167.188V186.324" stroke="#3E7A9E" stroke-width="3"/>
<path d="M438.738 167.188V186.323" stroke="#3E7A9E" stroke-width="3"/>
<path d="M447.827 167.188V186.323" stroke="#3E7A9E" stroke-width="3"/>
<path d="M456.214 167.188V186.323" stroke="#3E7A9E" stroke-width="3"/>
<path d="M465.295 167.188V186.323" stroke="#3E7A9E" stroke-width="3"/>
<path d="M474.383 167.188V186.323" stroke="#3E7A9E" stroke-width="3"/>
<path d="M483.472 167.188V186.323" stroke="#3E7A9E" stroke-width="3"/>
<path d="M491.852 167.188V186.323" stroke="#3E7A9E" stroke-width="3"/>
<path d="M435.408 281.512L428.879 310.321L426.225 322.264C425.853 323.973 426.171 325.759 427.109 327.235C428.047 328.711 429.53 329.757 431.235 330.145C432.94 330.533 434.73 330.233 436.214 329.308C437.699 328.384 438.759 326.912 439.163 325.21L441.817 313.267L448.373 284.458L435.408 281.512Z" fill="#DEAB7F"/>
<path d="M427.447 316.81L425.841 323.83C425.638 324.683 425.607 325.568 425.748 326.433C425.889 327.298 426.2 328.127 426.663 328.871C427.126 329.615 427.733 330.26 428.447 330.769C429.161 331.278 429.968 331.64 430.823 331.834C431.678 332.029 432.563 332.052 433.427 331.903C434.29 331.754 435.116 331.434 435.856 330.964C436.596 330.494 437.235 329.882 437.737 329.163C438.239 328.444 438.593 327.633 438.779 326.776L440.385 319.756L427.447 316.81Z" fill="#101B2D"/>
<path d="M435.439 281.512L428.883 310.321L428.591 311.622L441.53 314.568L441.822 313.267L448.377 284.445L435.439 281.512Z" fill="#3E7A9E"/>
<path d="M473.321 284.458L479.876 313.267L482.597 325.21C483.001 326.912 484.061 328.384 485.546 329.308C487.03 330.233 488.82 330.533 490.525 330.145C492.23 329.757 493.713 328.711 494.651 327.235C495.589 325.76 495.907 323.973 495.535 322.264L492.881 310.321L486.326 281.512L473.321 284.458Z" fill="#DEAB7F"/>
<path d="M481.351 319.756L482.957 326.776C483.143 327.633 483.497 328.444 483.999 329.163C484.501 329.882 485.14 330.494 485.88 330.964C486.62 331.434 487.445 331.754 488.309 331.903C489.173 332.052 490.058 332.029 490.913 331.834C491.768 331.64 492.575 331.278 493.289 330.769C494.003 330.26 494.609 329.615 495.073 328.871C495.536 328.127 495.847 327.298 495.988 326.433C496.129 325.568 496.098 324.683 495.895 323.83L494.302 316.81L481.351 319.756Z" fill="#101B2D"/>
<path d="M473.321 284.445L479.876 313.267L480.182 314.568L493.12 311.622L492.815 310.321L486.259 281.512L473.321 284.445Z" fill="#3E7A9E"/>
<path d="M460.703 288.29C481.356 288.29 498.098 281.618 498.098 273.388C498.098 265.158 481.356 258.486 460.703 258.486C440.05 258.486 423.308 265.158 423.308 273.388C423.308 281.618 440.05 288.29 460.703 288.29Z" fill="#3E7A9E"/>
<path d="M498.111 255.264H423.308V273.126H498.111V255.264Z" fill="#BFE8FB"/>
<defs>
<clipPath id="clip0">
<rect width="121.02" height="206.09" fill="white" transform="translate(27 126)"/>
</clipPath>
<clipPath id="clip1">
<rect width="110" height="183" fill="white" transform="translate(773 151)"/>
</clipPath>
</defs>
</svg>
