<svg width="512" height="512" viewBox="0 0 512 512" fill="none" xmlns="http://www.w3.org/2000/svg">
<g clip-path="url(#clip0)">
<path d="M255.721 570.497C335.102 570.497 399.452 544.852 399.452 513.218C399.452 481.585 335.102 455.94 255.721 455.94C176.341 455.94 111.99 481.585 111.99 513.218C111.99 544.852 176.341 570.497 255.721 570.497Z" fill="#FBAF2C"/>
<path d="M399.503 443.561H111.99V512.213H399.503V443.561Z" fill="#FFD02A"/>
<path d="M129.399 350.56C200.863 350.56 258.797 292.627 258.797 221.162C258.797 149.697 200.863 91.7632 129.399 91.7632C57.9337 91.7632 0 149.697 0 221.162C0 292.627 57.9337 350.56 129.399 350.56Z" fill="#FBAF2C"/>
<path d="M382.102 350.56C453.566 350.56 511.5 292.627 511.5 221.162C511.5 149.697 453.566 91.7632 382.102 91.7632C310.637 91.7632 252.703 149.697 252.703 221.162C252.703 292.627 310.637 350.56 382.102 350.56Z" fill="#FBAF2C"/>
<path d="M418.018 244.944C411.493 244.901 405.084 246.666 399.503 250.045V169.815H112.041V250.198C106.634 246.847 100.429 245.001 94.0692 244.852C87.7092 244.703 81.4249 246.256 75.8666 249.351C70.3082 252.445 65.6776 256.969 62.4538 262.453C59.2301 267.938 57.5303 274.184 57.5303 280.546C57.5303 286.907 59.2301 293.153 62.4538 298.638C65.6776 304.122 70.3082 308.646 75.8666 311.74C81.4249 314.835 87.7092 316.388 94.0692 316.239C100.429 316.09 106.634 314.244 112.041 310.893V446.871H399.503V310.893C404.205 313.842 409.531 315.653 415.056 316.184C420.581 316.715 426.153 315.95 431.331 313.951C436.509 311.951 441.15 308.772 444.884 304.666C448.618 300.559 451.344 295.639 452.844 290.295C454.344 284.951 454.578 279.331 453.526 273.881C452.475 268.431 450.167 263.301 446.787 258.899C443.406 254.497 439.046 250.944 434.052 248.521C429.058 246.099 423.568 244.874 418.018 244.944Z" fill="#EAC8A7"/>
<path d="M93.4154 295.811C101.838 295.811 108.666 288.983 108.666 280.561C108.666 272.138 101.838 265.311 93.4154 265.311C84.9929 265.311 78.165 272.138 78.165 280.561C78.165 288.983 84.9929 295.811 93.4154 295.811Z" fill="#D37E7A"/>
<path d="M291.96 304.723H219.534V322.472H291.96V304.723Z" fill="white"/>
<path d="M219.534 325.219H291.96V333.584C291.96 338.291 290.09 342.806 286.761 346.134C283.433 349.463 278.918 351.333 274.211 351.333H237.283C232.576 351.333 228.061 349.463 224.732 346.134C221.404 342.806 219.534 338.291 219.534 333.584V325.219Z" fill="#8F0026"/>
<path fill-rule="evenodd" clip-rule="evenodd" d="M286.724 346.187C283.401 349.483 278.909 351.333 274.227 351.333H237.299C232.592 351.333 228.077 349.463 224.748 346.134C224.634 346.019 224.521 345.903 224.41 345.786C224.878 335.941 238.646 328.045 255.561 328.045C272.706 328.045 286.616 336.157 286.724 346.187Z" fill="#CE003A"/>
<path d="M399.095 139.887C396.59 103.564 380.398 69.545 353.787 44.6955C327.177 19.846 292.13 6.01701 255.721 6C219.305 5.99288 184.245 19.8137 157.63 44.668C131.014 69.5223 114.829 103.556 112.347 139.887H111.99V149.731V215.476H399.452V139.887H399.095Z" fill="#FFD02A"/>
<path d="M417.992 295.811C426.414 295.811 433.242 288.983 433.242 280.561C433.242 272.138 426.414 265.311 417.992 265.311C409.569 265.311 402.741 272.138 402.741 280.561C402.741 288.983 409.569 295.811 417.992 295.811Z" fill="#D37E7A"/>
<path d="M387.158 186.429C383.402 182.679 378.938 179.711 374.027 177.698C369.115 175.684 363.853 174.665 358.545 174.698C349.667 174.727 341.019 177.527 333.808 182.706C326.521 177.485 317.779 174.684 308.815 174.698C299.095 174.612 289.678 178.079 282.333 184.446C274.989 190.814 270.222 199.645 268.93 209.279H242.663C241.523 200.63 237.561 192.598 231.391 186.429C227.634 182.679 223.17 179.711 218.259 177.698C213.347 175.684 208.085 174.665 202.777 174.698C193.83 174.691 185.106 177.492 177.836 182.706C170.549 177.485 161.807 174.684 152.843 174.698C147.453 174.654 142.109 175.7 137.134 177.774C132.158 179.847 127.653 182.906 123.889 186.765C120.125 190.624 117.18 195.204 115.232 200.23C113.283 205.256 112.371 210.624 112.55 216.012C112.817 227.15 117.387 237.753 125.301 245.595L126.933 247.227L170.593 290.887L177.836 298.129L185.027 290.887L228.738 247.227L230.37 245.595C237.388 238.567 241.796 229.354 242.867 219.48H268.369C269.449 229.438 273.935 238.717 281.069 245.748L282.701 247.38L304.531 269.21L326.361 291.04L333.808 298.129L340.999 290.887L384.71 247.227L386.342 245.595C394.242 237.747 398.794 227.144 399.043 216.012C399.202 210.529 398.229 205.072 396.185 199.982C394.14 194.892 391.067 190.278 387.158 186.429ZM223.128 238.352L221.547 239.984L177.836 283.695L134.125 239.984L132.493 238.352C126.447 232.544 122.946 224.579 122.754 216.197C122.563 207.815 125.698 199.699 131.473 193.621C134.282 190.828 137.617 188.619 141.285 187.122C144.953 185.625 148.882 184.869 152.843 184.899C157.194 184.916 161.499 185.795 165.508 187.485C169.517 189.174 173.153 191.641 176.204 194.743L177.836 196.324L179.468 194.743C182.512 191.65 186.14 189.191 190.141 187.51C194.142 185.829 198.437 184.959 202.777 184.95C206.746 184.922 210.682 185.678 214.358 187.175C218.034 188.671 221.378 190.879 224.199 193.672C229.939 199.76 233.046 207.867 232.846 216.232C232.645 224.597 229.153 232.546 223.128 238.352ZM378.896 238.352L377.264 239.984L333.808 283.695L290.097 239.984L288.465 238.352C282.419 232.544 278.917 224.579 278.726 216.197C278.535 207.815 281.67 199.699 287.445 193.621C290.254 190.828 293.589 188.619 297.257 187.122C300.925 185.625 304.854 184.869 308.815 184.899C317.532 184.988 325.859 188.528 331.971 194.743L333.604 196.324L335.185 194.743C338.242 191.653 341.879 189.197 345.888 187.516C349.897 185.836 354.198 184.964 358.545 184.95C362.514 184.922 366.449 185.678 370.126 187.175C373.802 188.671 377.146 190.879 379.967 193.672C385.707 199.76 388.814 207.867 388.614 216.232C388.413 224.597 384.921 232.546 378.896 238.352Z" fill="#4067AF"/>
<path d="M188.444 188.245C185.117 189.896 182.084 192.085 179.468 194.723L177.835 196.304L176.203 194.723C171.369 189.77 165.072 186.502 158.24 185.4C151.407 184.298 144.402 185.42 138.256 188.602L205.582 255.928L221.597 239.964L223.178 238.331C225.798 235.711 227.969 232.679 229.605 229.355L188.444 188.245Z" fill="white"/>
<path d="M130.398 194.717C125.136 200.879 122.423 208.816 122.812 216.91C123.2 225.004 126.661 232.645 132.489 238.275L134.121 239.907L177.832 283.618L198.591 262.859L130.398 194.717Z" fill="white"/>
<path d="M335.224 194.75L333.847 196.28L332.011 194.75C328.557 191.277 324.377 188.611 319.77 186.946L375.059 242.235L377.303 239.991L378.935 238.359C383.575 233.815 386.749 227.987 388.049 221.624C389.348 215.261 388.715 208.655 386.229 202.656L370.928 187.354C364.917 184.888 358.307 184.275 351.945 185.593C345.583 186.91 339.761 190.099 335.224 194.75Z" fill="white"/>
<path d="M342.8 274.497L368.047 248.994L304.036 185.239C297.627 186.14 291.692 189.125 287.147 193.734C282.603 198.343 279.702 204.319 278.891 210.741L342.8 274.497Z" fill="white"/>
</g>
<defs>
<clipPath id="clip0">
<rect width="511.999" height="511.999" fill="white"/>
</clipPath>
</defs>
</svg>
