<svg width="512" height="512" viewBox="0 0 512 512" fill="none" xmlns="http://www.w3.org/2000/svg">
<g clip-path="url(#clip0)">
<path d="M255.555 0V12.0069C202.565 12.015 151.584 32.2908 113.062 68.6786C74.5405 105.066 51.3952 154.81 48.3703 207.714H48V504.555H463.11V207.556C463.11 152.508 441.243 99.7158 402.319 60.7916C363.394 21.8674 310.602 0 255.555 0V0Z" fill="#953063"/>
<path d="M315.645 139.433H195.999C161.499 139.433 133.531 167.4 133.531 201.9V488.373C133.531 522.873 161.499 550.841 195.999 550.841H315.645C350.145 550.841 378.113 522.873 378.113 488.373V201.9C378.113 167.4 350.145 139.433 315.645 139.433Z" fill="#AB7F71"/>
<path d="M255.565 571.997C327.457 571.997 385.737 545.403 385.737 512.597C385.737 479.792 327.457 453.197 255.565 453.197C183.673 453.197 125.393 479.792 125.393 512.597C125.393 545.403 183.673 571.997 255.565 571.997Z" fill="#953063"/>
<path d="M385.737 440.322H125.393V511.517H385.737V440.322Z" fill="#C93676"/>
<path d="M255.555 0V12.0069C202.565 12.015 151.584 32.2908 113.062 68.6786C74.5405 105.066 51.3952 154.81 48.3703 207.714H48V504.555H133.423V201.896C133.423 193.684 135.043 185.552 138.189 177.966C141.334 170.38 145.945 163.489 151.757 157.687C157.569 151.885 164.468 147.286 172.059 144.153C179.65 141.02 187.784 139.414 195.997 139.428H315.589C323.793 139.428 331.916 141.044 339.495 144.183C347.074 147.323 353.96 151.924 359.761 157.725C365.561 163.525 370.163 170.412 373.302 177.991C376.441 185.57 378.057 193.693 378.057 201.896V504.555H463.11V207.556C463.11 152.508 441.243 99.7158 402.319 60.7916C363.394 21.8674 310.602 0 255.555 0V0Z" fill="#850F48"/>
<path d="M204.4 294.728C208.606 294.728 212.017 291.317 212.017 287.111C212.017 282.904 208.606 279.494 204.4 279.494C200.193 279.494 196.783 282.904 196.783 287.111C196.783 291.317 200.193 294.728 204.4 294.728Z" fill="#0E2732"/>
<path d="M307.967 294.728C312.174 294.728 315.584 291.317 315.584 287.111C315.584 282.904 312.174 279.494 307.967 279.494C303.761 279.494 300.351 282.904 300.351 287.111C300.351 291.317 303.761 294.728 307.967 294.728Z" fill="#0E2732"/>
<path d="M284.025 364.982H216.479V383.389H284.025V364.982Z" fill="white"/>
<path d="M216.479 386.125H284.025V394.8C284.025 399.681 282.086 404.363 278.634 407.815C275.182 411.267 270.5 413.207 265.618 413.207H234.939C230.058 413.207 225.376 411.267 221.924 407.815C218.472 404.363 216.532 399.681 216.532 394.8V386.125H216.479Z" fill="#701926"/>
<path fill-rule="evenodd" clip-rule="evenodd" d="M279.099 407.332C278.947 407.495 278.793 407.656 278.635 407.814C275.183 411.266 270.501 413.205 265.619 413.205H234.94C230.059 413.205 225.377 411.266 221.925 407.814C221.626 407.515 221.339 407.208 221.063 406.892C221.933 399.175 231.021 397.685 242.823 395.75C245.152 395.368 247.588 394.969 250.087 394.501C265.491 391.615 278.437 397.261 279.099 407.332Z" fill="#CA3858"/>
<path d="M109.797 281.494C104.798 279.119 99.2795 278.048 93.7552 278.38C88.231 278.712 82.8806 280.436 78.2023 283.393C73.5241 286.35 69.6701 290.442 66.9995 295.289C64.3288 300.137 62.9282 305.581 62.9282 311.115C62.9282 316.649 64.3288 322.093 66.9995 326.941C69.6701 331.788 73.5241 335.88 78.2023 338.837C82.8806 341.794 88.231 343.518 93.7552 343.85C99.2795 344.182 104.798 343.111 109.797 340.736V281.494Z" fill="#AB7F71"/>
<path d="M416.311 278.321C411.059 278.304 405.883 279.575 401.236 282.024V340.207C405.647 342.502 410.522 343.764 415.493 343.898C420.463 344.031 425.399 343.033 429.926 340.978C434.454 338.923 438.455 335.865 441.627 332.037C444.799 328.208 447.059 323.707 448.236 318.877C449.413 314.046 449.476 309.01 448.42 304.152C447.364 299.293 445.217 294.738 442.142 290.831C439.066 286.924 435.143 283.767 430.668 281.6C426.192 279.433 421.283 278.312 416.311 278.321Z" fill="#AB7F71"/>
<path d="M95.7119 325.209C103.482 325.209 109.782 318.91 109.782 311.14C109.782 303.369 103.482 297.07 95.7119 297.07C87.9413 297.07 81.6421 303.369 81.6421 311.14C81.6421 318.91 87.9413 325.209 95.7119 325.209Z" fill="#D37E7A"/>
<path d="M91.1084 428.446V352.226C93.0053 351.598 94.6165 350.314 95.6533 348.606C96.6901 346.898 97.0847 344.876 96.7665 342.903C96.4482 340.93 95.4379 339.135 93.9165 337.84C92.3951 336.544 90.462 335.833 88.4637 335.833C86.4653 335.833 84.5323 336.544 83.0109 337.84C81.4895 339.135 80.4791 340.93 80.1609 342.903C79.8426 344.876 80.2372 346.898 81.274 348.606C82.3108 350.314 83.922 351.598 85.819 352.226V428.446C80.7903 429.117 76.2047 431.675 72.9914 435.601C69.7781 439.527 68.1775 444.527 68.5137 449.59C68.85 454.652 71.0981 459.397 74.8024 462.863C78.5068 466.33 83.3904 468.258 88.4637 468.258C93.537 468.258 98.4206 466.33 102.125 462.863C105.829 459.397 108.077 454.652 108.414 449.59C108.75 444.527 107.149 439.527 103.936 435.601C100.723 431.675 96.1371 429.117 91.1084 428.446Z" fill="#FFED58"/>
<path d="M416.313 325.209C424.083 325.209 430.383 318.91 430.383 311.14C430.383 303.369 424.083 297.07 416.313 297.07C408.542 297.07 402.243 303.369 402.243 311.14C402.243 318.91 408.542 325.209 416.313 325.209Z" fill="#D37E7A"/>
<path d="M426.395 428.446V352.226C428.291 351.598 429.903 350.314 430.939 348.606C431.976 346.898 432.371 344.876 432.053 342.903C431.734 340.93 430.724 339.135 429.203 337.84C427.681 336.544 425.748 335.833 423.75 335.833C421.751 335.833 419.818 336.544 418.297 337.84C416.776 339.135 415.765 340.93 415.447 342.903C415.129 344.876 415.523 346.898 416.56 348.606C417.597 350.314 419.208 351.598 421.105 352.226V428.446C416.076 429.117 411.491 431.675 408.278 435.601C405.064 439.527 403.464 444.527 403.8 449.59C404.136 454.652 406.384 459.397 410.089 462.863C413.793 466.33 418.677 468.258 423.75 468.258C428.823 468.258 433.707 466.33 437.411 462.863C441.115 459.397 443.364 454.652 443.7 449.59C444.036 444.527 442.435 439.527 439.222 435.601C436.009 431.675 431.423 429.117 426.395 428.446Z" fill="#FFED58"/>
<path d="M255.566 0.000255161H251.387C225.914 6.4214 201.836 17.4654 180.351 32.583C104.713 89.3911 80.5404 185.129 114.445 231.835C148.35 278.54 246.944 284.993 324.275 230.512C385.949 184.23 413.454 111.977 403.192 61.6217C383.908 42.0646 360.923 26.5434 335.576 15.9636C310.23 5.38375 283.031 -0.0428813 255.566 0.000255161Z" fill="#CB0059"/>
<path d="M152.161 155.288C151.298 155.277 150.442 155.134 149.622 154.865C148.632 154.537 147.717 154.016 146.93 153.332C146.143 152.647 145.499 151.814 145.037 150.879C144.574 149.944 144.302 148.927 144.236 147.886C144.169 146.845 144.31 145.801 144.65 144.815C156.193 112.324 177.147 84.0041 204.843 63.4648C224.343 49.7573 246.366 40.0495 269.639 34.9021C280.744 32.4919 292.074 31.2685 303.438 31.2524C305.542 31.2524 307.56 32.0884 309.048 33.5763C310.536 35.0642 311.372 37.0823 311.372 39.1865C311.372 41.2908 310.536 43.3088 309.048 44.7967C307.56 46.2847 305.542 47.1206 303.438 47.1206C293.196 47.147 282.984 48.2461 272.971 50.4C251.863 55.0717 231.889 63.8807 214.206 76.318C189.191 94.9015 170.279 120.516 159.884 149.893C159.349 151.504 158.309 152.9 156.917 153.872C155.526 154.844 153.858 155.341 152.161 155.288Z" fill="#EB85B5"/>
</g>
<defs>
<clipPath id="clip0">
<rect width="511.999" height="511.999" fill="white"/>
</clipPath>
</defs>
</svg>
