<svg width="512" height="512" viewBox="0 0 512 512" fill="none" xmlns="http://www.w3.org/2000/svg">
<g clip-path="url(#clip0)">
<path d="M112.506 316.407C132.183 316.407 148.134 300.456 148.134 280.779C148.134 261.102 132.183 245.151 112.506 245.151C92.8291 245.151 76.8779 261.102 76.8779 280.779C76.8779 300.456 92.8291 316.407 112.506 316.407Z" fill="#D0A980"/>
<path d="M112.503 296.037C120.932 296.037 127.765 289.204 127.765 280.776C127.765 272.347 120.932 265.514 112.503 265.514C104.074 265.514 97.2412 272.347 97.2412 280.776C97.2412 289.204 104.074 296.037 112.503 296.037Z" fill="#D37E7A"/>
<path d="M400.17 316.407C419.847 316.407 435.798 300.456 435.798 280.779C435.798 261.102 419.847 245.151 400.17 245.151C380.493 245.151 364.542 261.102 364.542 280.779C364.542 300.456 380.493 316.407 400.17 316.407Z" fill="#D0A980"/>
<path d="M400.17 296.037C408.599 296.037 415.432 289.204 415.432 280.776C415.432 272.347 408.599 265.514 400.17 265.514C391.741 265.514 384.908 272.347 384.908 280.776C384.908 289.204 391.741 296.037 400.17 296.037Z" fill="#D37E7A"/>
<path d="M178.091 169.973H334.589C351.981 169.986 368.656 176.901 380.954 189.199C393.251 201.496 400.166 218.171 400.18 235.563V447.187H112.501V235.563C112.501 218.167 119.411 201.484 131.712 189.184C144.013 176.883 160.696 169.973 178.091 169.973Z" fill="#D6AD82"/>
<path d="M292.582 327.936H220.102V345.699H292.582V327.936Z" fill="white"/>
<path d="M206.568 253.459C210.627 253.459 213.918 250.168 213.918 246.109C213.918 242.049 210.627 238.758 206.568 238.758C202.509 238.758 199.218 242.049 199.218 246.109C199.218 250.168 202.509 253.459 206.568 253.459Z" fill="#0E2732"/>
<path d="M306.109 253.459C310.168 253.459 313.459 250.168 313.459 246.109C313.459 242.049 310.168 238.758 306.109 238.758C302.05 238.758 298.759 242.049 298.759 246.109C298.759 250.168 302.05 253.459 306.109 253.459Z" fill="#0E2732"/>
<path d="M200.735 288.433C200.735 282.612 198.423 277.03 194.306 272.913C190.19 268.797 184.608 266.485 178.786 266.485C172.965 266.485 167.383 268.797 163.266 272.913C159.15 277.03 156.838 282.612 156.838 288.433C157.251 301.323 162.662 313.546 171.926 322.518C181.19 331.49 193.581 336.506 206.477 336.506C219.374 336.506 231.764 331.49 241.028 322.518C250.292 313.546 255.703 301.323 256.117 288.433H200.735Z" fill="#404040"/>
<path d="M355.819 288.433C355.819 282.612 353.506 277.03 349.39 272.913C345.274 268.797 339.691 266.485 333.87 266.485C328.049 266.485 322.467 268.797 318.35 272.913C314.234 277.03 311.922 282.612 311.922 288.433H256.54C256.953 301.323 262.364 313.546 271.628 322.518C280.893 331.49 293.283 336.506 306.179 336.506C319.076 336.506 331.466 331.49 340.73 322.518C349.994 313.546 355.405 301.323 355.819 288.433Z" fill="#404040"/>
<path d="M220.306 348.416H292.787V356.787C292.787 361.498 290.915 366.016 287.584 369.347C284.253 372.679 279.735 374.55 275.024 374.55H237.864C233.189 374.496 228.723 372.601 225.436 369.276C222.149 365.95 220.305 361.463 220.306 356.787V348.416Z" fill="#701926"/>
<path fill-rule="evenodd" clip-rule="evenodd" d="M287.329 369.595C284.024 372.771 279.615 374.549 275.023 374.549H237.864C233.188 374.495 228.722 372.6 225.435 369.275C225.28 369.118 225.128 368.958 224.979 368.797C225.637 359.045 239.337 351.257 256.142 351.257C273.366 351.257 287.329 359.438 287.329 369.53C287.329 369.552 287.329 369.574 287.329 369.595Z" fill="#CA3858"/>
<path d="M351.123 -161C331.347 -160.988 311.973 -155.416 295.212 -144.919C278.451 -134.423 264.98 -119.424 256.336 -101.637C248.081 -118.566 235.444 -132.976 219.738 -143.372C204.032 -153.767 185.83 -159.769 167.021 -160.754C148.212 -161.738 129.483 -157.67 112.778 -148.971C96.0721 -140.272 81.9998 -127.26 72.0218 -111.286C62.0439 -95.3113 56.5241 -76.9571 56.0355 -58.1288C55.547 -39.3006 60.1075 -20.6848 69.2436 -4.21443C78.3797 12.256 91.7582 25.9804 107.99 35.5339C124.222 45.0873 142.715 50.1215 161.55 50.1136V115.142H351.123V50.1136C379.119 50.1136 405.967 38.9925 425.763 19.1968C445.559 -0.598984 456.68 -27.4478 456.68 -55.4432C456.68 -83.4386 445.559 -110.287 425.763 -130.083C405.967 -149.879 379.119 -161 351.123 -161V-161Z" fill="#A0CDE2"/>
<path d="M385.623 105.129H127.039V178.733H385.623V105.129Z" fill="#BFE8FB"/>
<path d="M135.865 105.129V178.734" stroke="#3E7A9E" stroke-width="8"/>
<path d="M171.851 105.129V178.734" stroke="#3E7A9E" stroke-width="8"/>
<path d="M206.81 105.129V178.734" stroke="#3E7A9E" stroke-width="8"/>
<path d="M239.071 105.129V178.734" stroke="#3E7A9E" stroke-width="8"/>
<path d="M274 105.129V178.734" stroke="#3E7A9E" stroke-width="8"/>
<path d="M308.959 105.129V178.734" stroke="#3E7A9E" stroke-width="8"/>
<path d="M343.917 105.129V178.734" stroke="#3E7A9E" stroke-width="8"/>
<path d="M376.15 105.129V178.734" stroke="#3E7A9E" stroke-width="8"/>
<path d="M256.34 570.947C335.781 570.947 400.18 545.284 400.18 513.626C400.18 481.968 335.781 456.305 256.34 456.305C176.9 456.305 112.501 481.968 112.501 513.626C112.501 545.284 176.9 570.947 256.34 570.947Z" fill="#3E7A9E"/>
<path d="M400.23 443.913H112.501V512.617H400.23V443.913Z" fill="#BFE8FB"/>
</g>
<defs>
<clipPath id="clip0">
<rect width="511.999" height="511.999" fill="white"/>
</clipPath>
</defs>
</svg>
