<svg width="512" height="512" viewBox="0 0 512 512" fill="none" xmlns="http://www.w3.org/2000/svg">
<g clip-path="url(#clip0)">
<path d="M255.276 255.792C255.392 278.27 246.635 299.885 230.906 315.944C215.178 332.002 193.749 341.205 171.274 341.555C148.799 341.905 127.093 333.373 110.872 317.812C94.6517 302.251 85.2259 280.919 84.6426 258.448L255.276 255.792Z" fill="#071B29"/>
<path d="M202.704 150.719C206.268 174.029 200.493 197.803 186.633 216.88C172.772 235.957 151.945 248.796 128.675 252.609C105.404 256.422 81.5692 250.901 62.3453 237.244C43.1214 223.588 30.0609 202.9 26 179.671L202.704 150.719Z" fill="#46525D"/>
<path d="M169.694 197.581C177.53 214.67 178.306 234.16 171.853 251.818C165.401 269.476 152.242 283.876 135.235 291.887C118.227 299.899 98.7456 300.876 81.022 294.606C63.2983 288.336 48.7647 275.326 40.5781 258.403L169.694 197.581Z" fill="#0E2732"/>
<path d="M256.818 255.792C256.701 278.27 265.458 299.885 281.187 315.944C296.915 332.002 318.345 341.205 340.82 341.555C363.295 341.905 385 333.373 401.221 317.812C417.441 302.251 426.867 280.919 427.451 258.448L256.818 255.792Z" fill="#071B29"/>
<path d="M309.403 172.576C305.876 195.869 311.672 219.614 325.534 238.662C339.396 257.711 360.206 270.529 383.455 274.339C406.704 278.148 430.517 272.641 449.733 259.012C468.949 245.382 482.019 224.729 486.11 201.528L309.403 172.576Z" fill="#46525D"/>
<path d="M369.963 89.502C355.507 75.3406 336.047 67.4556 315.811 67.5596C295.574 67.6636 276.197 75.7479 261.887 90.0571C247.578 104.366 239.492 123.744 239.388 143.98C239.283 164.216 247.168 183.677 261.329 198.133L369.963 89.502Z" fill="#46525D"/>
<path d="M342.401 197.581C334.566 214.67 333.79 234.16 340.242 251.818C346.694 269.476 359.853 283.876 376.861 291.887C393.868 299.899 413.35 300.876 431.073 294.606C448.797 288.336 463.331 275.326 471.517 258.403L342.401 197.581Z" fill="#0E2732"/>
<path d="M257.281 564.121C328.315 564.121 385.9 541.172 385.9 512.864C385.9 484.557 328.315 461.608 257.281 461.608C186.246 461.608 128.661 484.557 128.661 512.864C128.661 541.172 186.246 564.121 257.281 564.121Z" fill="#36562E"/>
<path d="M385.946 450.516H128.661V511.95H385.946V450.516Z" fill="#C9D23A"/>
<path d="M402.471 272.789C396.633 272.75 390.898 274.33 385.903 277.354V205.559H128.664V277.491C123.825 274.492 118.272 272.84 112.581 272.707C106.89 272.574 101.266 273.963 96.2923 276.733C91.3183 279.502 87.1745 283.55 84.2897 288.457C81.4049 293.365 79.8838 298.955 79.8838 304.648C79.8838 310.34 81.4049 315.93 84.2897 320.838C87.1745 325.745 91.3183 329.793 96.2923 332.563C101.266 335.332 106.89 336.722 112.581 336.588C118.272 336.455 123.825 334.803 128.664 331.805V453.486H385.903V331.805C390.111 334.443 394.876 336.064 399.821 336.539C404.765 337.014 409.752 336.33 414.385 334.541C419.018 332.751 423.171 329.907 426.513 326.232C429.854 322.557 432.293 318.154 433.636 313.372C434.978 308.59 435.188 303.561 434.247 298.684C433.306 293.807 431.241 289.216 428.215 285.277C425.19 281.338 421.288 278.158 416.819 275.99C412.35 273.822 407.438 272.726 402.471 272.789Z" fill="#EDC297"/>
<path d="M112.043 318.29C119.58 318.29 125.69 312.18 125.69 304.643C125.69 297.106 119.58 290.996 112.043 290.996C104.505 290.996 98.3955 297.106 98.3955 304.643C98.3955 312.18 104.505 318.29 112.043 318.29Z" fill="#D37E7A"/>
<path d="M385.581 178.76C383.339 146.256 368.849 115.813 345.036 93.5763C321.224 71.3394 289.862 58.9644 257.281 58.9492C224.693 58.9429 193.319 71.3106 169.502 93.5518C145.685 115.793 131.202 146.248 128.981 178.76H128.661V187.569V246.401H385.9V178.76H385.581Z" fill="#EDC297"/>
<path d="M402.468 318.29C410.005 318.29 416.115 312.18 416.115 304.643C416.115 297.106 410.005 290.996 402.468 290.996C394.931 290.996 388.821 297.106 388.821 304.643C388.821 312.18 394.931 318.29 402.468 318.29Z" fill="#D37E7A"/>
<path d="M212.512 263.795C216.142 263.795 219.084 260.852 219.084 257.222C219.084 253.593 216.142 250.65 212.512 250.65C208.882 250.65 205.939 253.593 205.939 257.222C205.939 260.852 208.882 263.795 212.512 263.795Z" fill="#231F20"/>
<path d="M247.81 180.794C255.871 193.801 266.416 205.093 278.842 214.025C291.268 222.957 305.331 229.354 320.229 232.851C335.127 236.348 350.568 236.877 365.67 234.407C380.773 231.936 395.241 226.515 408.248 218.453C421.255 210.391 432.547 199.847 441.479 187.421C450.411 174.995 456.808 160.932 460.305 146.034C463.802 131.136 464.331 115.694 461.86 100.592C459.39 85.49 453.969 71.0219 445.907 58.0146L247.81 180.794Z" fill="#0E2732"/>
<path d="M262 200.263C287.866 205.061 314.649 199.827 336.544 185.697C358.438 171.567 373.68 149.68 378.964 124.778C384.249 99.8769 379.15 73.9693 364.774 52.6711C350.398 31.3729 327.903 16.4006 302.164 11L262 200.263Z" fill="#2A3D4A"/>
<path d="M153 172.218C182.845 178.07 214.505 174.61 241.016 162.599C267.527 150.588 286.717 131.01 294.364 108.173C302.012 85.3355 297.49 61.1092 281.794 40.8228C266.098 20.5364 240.513 5.8518 210.669 0L153 172.218Z" fill="#071B29"/>
<path d="M103.221 73.2207C87.648 86.1342 77.7977 104.669 75.8089 124.802C73.82 144.935 79.8532 165.039 92.5986 180.75C105.344 196.461 123.773 206.511 143.883 208.716C163.993 210.921 184.161 205.103 200.008 192.527L103.221 73.2207Z" fill="#071B29"/>
<path d="M178.816 0C151.787 7.38953 128.97 24.4936 115.339 47.5838C101.707 70.6741 98.3659 97.8788 106.043 123.268C113.721 148.658 131.795 170.173 156.325 183.126C180.856 196.078 209.854 199.417 237 192.415L178.816 0Z" fill="#0E2732"/>
<path d="M433.431 128.777C430.484 100.746 416.596 75.0107 394.783 57.1614C372.971 39.3121 344.996 30.7912 316.936 33.4494C288.877 36.1076 263 49.7304 244.927 71.3583C226.855 92.9862 218.046 120.872 220.415 148.957L433.431 128.777Z" fill="#071B29"/>
<path d="M399 24.9543C376.635 8.38761 348.172 0.712756 319.782 3.59418C291.391 6.47561 265.363 19.6805 247.34 40.3463C229.317 61.012 220.754 87.4727 223.505 113.99C226.257 140.507 240.103 164.943 262.04 182L399 24.9543Z" fill="#0E2732"/>
<path d="M261.502 45.3945C241.272 45.6131 221.945 53.8022 207.718 68.1845C193.49 82.5668 185.51 101.981 185.51 122.212C185.51 142.442 193.49 161.857 207.718 176.239C221.945 190.621 241.272 198.81 261.502 199.029V45.3945Z" fill="#2A3D4A"/>
<path d="M301.514 263.795C305.144 263.795 308.086 260.852 308.086 257.222C308.086 253.593 305.144 250.65 301.514 250.65C297.884 250.65 294.941 253.593 294.941 257.222C294.941 260.852 297.884 263.795 301.514 263.795Z" fill="#231F20"/>
<path d="M277.111 379.292C278.719 379.292 280.323 379.452 281.899 379.77C281.899 379.681 281.899 379.593 281.899 379.505C281.901 375.352 280.829 371.27 278.787 367.654C276.745 364.038 273.803 361.011 270.246 358.869L234.466 373.489C233.652 376.656 233.491 379.956 233.992 383.187C234.493 386.419 235.646 389.514 237.381 392.286C239.115 395.058 241.396 397.449 244.083 399.312C246.77 401.176 249.808 402.473 253.012 403.126C253.081 396.78 255.651 390.718 260.163 386.256C264.675 381.793 270.765 379.29 277.111 379.292Z" fill="#8F0026"/>
<path d="M281.899 379.769C278.422 379.066 274.833 379.139 271.388 379.983C267.942 380.827 264.725 382.421 261.967 384.652C259.208 386.882 256.976 389.695 255.43 392.887C253.884 396.08 253.061 399.575 253.021 403.122C256.498 403.822 260.087 403.748 263.531 402.903C266.976 402.057 270.191 400.463 272.949 398.233C275.707 396.003 277.939 393.191 279.486 390C281.033 386.809 281.857 383.315 281.899 379.769Z" fill="#CE003A"/>
<path d="M195.485 245.016C185.728 245.017 176.191 247.912 168.08 253.333C159.969 258.755 153.647 266.46 149.915 275.475C146.182 284.489 145.207 294.407 147.111 303.976C149.015 313.545 153.714 322.334 160.613 329.232C167.512 336.13 176.302 340.829 185.871 342.732C195.44 344.635 205.358 343.658 214.372 339.924C223.386 336.19 231.09 329.868 236.511 321.756C241.932 313.644 244.825 304.107 244.826 294.35C244.827 287.871 243.551 281.454 241.072 275.468C238.593 269.481 234.958 264.042 230.376 259.46C225.794 254.879 220.354 251.245 214.368 248.767C208.381 246.288 201.964 245.014 195.485 245.016Z" fill="#8BB629"/>
<path d="M320.459 245.016C310.702 245.016 301.165 247.909 293.052 253.33C284.94 258.751 278.618 266.456 274.884 275.47C271.151 284.484 270.174 294.403 272.078 303.972C273.982 313.541 278.68 322.331 285.579 329.23C292.478 336.129 301.268 340.827 310.837 342.731C320.406 344.634 330.325 343.657 339.339 339.924C348.353 336.191 356.058 329.868 361.478 321.756C366.899 313.644 369.793 304.107 369.794 294.35C369.795 287.871 368.519 281.455 366.041 275.469C363.562 269.483 359.928 264.044 355.346 259.462C350.765 254.881 345.326 251.247 339.34 248.768C333.353 246.289 326.938 245.014 320.459 245.016Z" fill="#8BB629"/>
<path d="M379.232 289.074C377.929 274.389 371.174 260.724 360.298 250.77C349.423 240.817 335.215 235.297 320.472 235.297C305.729 235.297 291.52 240.817 280.645 250.77C269.769 260.724 263.014 274.389 261.711 289.074H254.243C252.891 273.935 245.751 259.9 234.31 249.893C222.869 239.887 208.009 234.68 192.824 235.357C177.64 236.033 163.302 242.541 152.796 253.526C142.29 264.51 136.427 279.124 136.427 294.323C136.427 309.523 142.29 324.136 152.796 335.121C163.302 346.105 177.64 352.613 192.824 353.29C208.009 353.966 222.869 348.759 234.31 338.753C245.751 328.746 252.891 314.712 254.243 299.573H261.711C263.014 314.258 269.769 327.923 280.645 337.876C291.52 347.829 305.729 353.35 320.472 353.35C335.215 353.35 349.423 347.829 360.298 337.876C371.174 327.923 377.929 314.258 379.232 299.573H378.714V289.074H379.232ZM195.484 343.658C185.728 343.657 176.191 340.761 168.079 335.339C159.968 329.917 153.646 322.212 149.914 313.197C146.182 304.183 145.206 294.263 147.111 284.694C149.016 275.125 153.716 266.336 160.616 259.438C167.516 252.54 176.307 247.843 185.877 245.941C195.446 244.039 205.365 245.017 214.379 248.753C223.392 252.488 231.096 258.811 236.515 266.925C241.935 275.038 244.827 284.576 244.825 294.333C244.827 300.812 243.551 307.228 241.072 313.214C238.592 319.2 234.958 324.639 230.376 329.219C225.793 333.8 220.353 337.433 214.367 339.91C208.38 342.388 201.964 343.662 195.484 343.658ZM320.464 343.658C310.707 343.658 301.169 340.764 293.057 335.342C284.945 329.921 278.622 322.216 274.889 313.201C271.156 304.187 270.18 294.267 272.084 284.698C273.988 275.129 278.687 266.339 285.587 259.441C292.487 252.542 301.278 247.844 310.848 245.942C320.418 244.039 330.337 245.017 339.351 248.752C348.364 252.487 356.068 258.811 361.488 266.924C366.908 275.037 369.8 284.576 369.799 294.333C369.8 300.812 368.524 307.226 366.045 313.212C363.566 319.197 359.932 324.636 355.35 329.216C350.769 333.797 345.33 337.43 339.344 339.908C333.358 342.386 326.942 343.66 320.464 343.658Z" fill="#F7F7E5"/>
<path d="M146.158 294.333C146.155 304.602 149.358 314.616 155.32 322.977C161.282 331.339 169.706 337.631 179.416 340.975C189.125 344.319 199.637 344.548 209.483 341.631C219.33 338.713 228.02 332.795 234.341 324.701L165.108 255.475C159.202 260.084 154.424 265.979 151.141 272.713C147.857 279.446 146.153 286.841 146.158 294.333Z" fill="#C9D23A"/>
<path d="M244.808 293.765L196.065 245.016C195.869 245.016 195.68 245.016 195.491 245.016C189.219 245.009 183.003 246.204 177.18 248.536L241.297 312.652C243.632 306.833 244.832 300.621 244.832 294.35C244.832 294.133 244.811 293.954 244.808 293.765Z" fill="#C9D23A"/>
<path d="M271.133 294.333C271.129 304.602 274.331 314.616 280.293 322.978C286.255 331.34 294.678 337.632 304.388 340.976C314.098 344.32 324.609 344.55 334.456 341.632C344.302 338.715 352.992 332.796 359.312 324.701L290.092 255.475C284.182 260.081 279.402 265.976 276.117 272.71C272.831 279.444 271.126 286.84 271.133 294.333Z" fill="#C9D23A"/>
<path d="M369.776 293.765L321.036 245.016C320.841 245.016 320.655 245.016 320.457 245.016C314.193 245.009 307.986 246.204 302.173 248.536L366.277 312.652C368.607 306.832 369.803 300.62 369.801 294.35C369.791 294.133 369.779 293.954 369.776 293.765Z" fill="#C9D23A"/>
</g>
<defs>
<clipPath id="clip0">
<rect width="511.999" height="511.999" fill="white"/>
</clipPath>
</defs>
</svg>
