<svg width="512" height="512" viewBox="0 0 512 512" fill="none" xmlns="http://www.w3.org/2000/svg">
<g clip-path="url(#clip0_251_1692)">
<path d="M387.062 446.227H129.777V512.001H387.062V446.227Z" fill="#7F67A1"/>
<path d="M403.587 255.946C397.749 255.904 392.014 257.596 387.019 260.833V183.966H129.78V260.979C124.941 257.769 119.389 256 113.697 255.858C108.006 255.715 102.382 257.203 97.4085 260.168C92.4345 263.133 88.2907 267.466 85.4059 272.721C82.5211 277.975 81 283.96 81 290.055C81 296.15 82.5211 302.134 85.4059 307.388C88.2907 312.643 92.4345 316.977 97.4085 319.942C102.382 322.906 108.006 324.394 113.697 324.252C119.389 324.109 124.941 322.341 129.78 319.13V449.407H387.019V319.13C391.227 321.955 395.993 323.691 400.937 324.199C405.881 324.708 410.868 323.975 415.501 322.059C420.135 320.144 424.287 317.098 427.629 313.164C430.971 309.229 433.41 304.515 434.752 299.395C436.095 294.276 436.304 288.891 435.363 283.67C434.422 278.448 432.357 273.533 429.332 269.316C426.306 265.098 422.405 261.694 417.936 259.373C413.467 257.052 408.554 255.879 403.587 255.946Z" fill="#EDC297"/>
<path d="M386.697 155.274C384.455 120.474 369.965 87.8809 346.152 64.0732C322.34 40.2655 290.978 27.0163 258.397 27C225.81 26.9932 194.436 40.2346 170.618 64.0469C146.801 87.8592 132.318 120.466 130.097 155.274H129.777V164.705V227.694H387.016V155.274H386.697Z" fill="#F6B089"/>
<path fill-rule="evenodd" clip-rule="evenodd" d="M386.019 260.832C391.014 257.595 396.749 255.904 402.587 255.946C407.554 255.878 412.467 257.052 416.936 259.373C418.862 260.373 420.684 261.575 422.375 262.957V217.153H386.019V260.832ZM128.78 217.153H93.3965V262.206C94.3614 261.469 95.3668 260.788 96.4085 260.168C101.382 257.203 107.006 255.715 112.697 255.857C118.389 256 123.941 257.768 128.78 260.979V217.153ZM93.3965 317.903V440.119H128.78V319.13C123.941 322.341 118.389 324.109 112.697 324.251C107.006 324.394 101.382 322.906 96.4085 319.941C95.3668 319.32 94.3614 318.639 93.3965 317.903ZM386.019 440.119H422.375V317.342C419.979 319.299 417.33 320.89 414.501 322.059C409.868 323.975 404.881 324.708 399.937 324.199C394.993 323.691 390.227 321.955 386.019 319.13V440.119Z" fill="#071B29"/>
<path fill-rule="evenodd" clip-rule="evenodd" d="M141.57 95.5855C172.416 62.5576 214.253 44.0006 257.878 43.9973C301.505 43.9981 343.345 62.5536 374.194 95.5817C405.043 128.61 422.374 173.405 422.375 220.114V244.062C422.374 250.087 421.931 256.063 421.064 261.941C419.753 260.979 418.374 260.119 416.936 259.372C412.467 257.052 407.554 255.878 402.587 255.946C396.749 255.904 391.014 257.595 386.019 260.832V183.966H128.78V260.979C123.941 257.768 118.389 256 112.697 255.857C107.006 255.715 101.382 257.203 96.4085 260.167C95.7981 260.531 95.2002 260.916 94.6156 261.32C93.8056 255.621 93.3962 249.852 93.3965 244.062V220.114C93.3957 173.408 110.724 128.613 141.57 95.5855ZM122.297 322.417C123.106 323.342 123.929 324.254 124.767 325.151C126.073 326.549 127.411 327.909 128.78 329.231V319.13C126.732 320.488 124.557 321.589 122.297 322.417ZM386.019 330.149C387.722 328.544 389.382 326.877 390.996 325.15C391.745 324.348 392.482 323.535 393.207 322.712C390.69 321.845 388.274 320.644 386.019 319.13V330.149Z" fill="#071B29"/>
<path d="M421.978 208.945V203.109C421.978 156.402 404.648 111.608 373.8 78.5809C342.953 45.5542 301.114 27 257.489 27C213.864 27 172.025 45.5542 141.178 78.5809C110.33 111.608 93 156.402 93 203.109V208.945H421.978Z" fill="#071B29"/>
<path d="M367.032 146.912H109V258.163C109 261.539 110.055 264.776 111.932 267.163C113.81 269.55 116.356 270.89 119.011 270.89C121.666 270.89 124.213 269.55 126.09 267.163C127.967 264.776 129.022 261.539 129.022 258.163V250.902C129.475 248.11 130.652 245.592 132.365 243.752C134.077 241.912 136.227 240.856 138.468 240.754C140.709 240.652 142.912 241.51 144.724 243.189C146.535 244.869 147.851 247.274 148.46 250.017V258.163C148.458 259.835 148.717 261.49 149.219 263.035C149.722 264.579 150.459 265.983 151.389 267.164C152.318 268.346 153.423 269.284 154.637 269.923C155.852 270.562 157.155 270.89 158.469 270.888C158.551 270.888 158.639 270.888 158.721 270.888C158.803 270.888 158.888 270.888 158.978 270.888C161.633 270.888 164.179 269.548 166.056 267.161C167.933 264.775 168.988 261.538 168.988 258.163V250.902C169.417 247.924 170.691 245.25 172.568 243.387C174.445 241.524 176.795 240.602 179.172 240.796C181.549 240.99 183.786 242.286 185.461 244.439C187.135 246.592 188.13 249.451 188.256 252.475V258.163C188.255 259.834 188.513 261.489 189.016 263.033C189.519 264.577 190.256 265.98 191.185 267.162C192.114 268.344 193.217 269.282 194.432 269.921C195.646 270.56 196.948 270.889 198.262 270.888H198.432C199.747 270.889 201.049 270.56 202.264 269.921C203.478 269.282 204.582 268.344 205.512 267.163C206.442 265.981 207.179 264.578 207.683 263.034C208.186 261.49 208.445 259.834 208.445 258.163V250.902C208.895 247.985 210.144 245.363 211.969 243.503C213.794 241.643 216.078 240.665 218.416 240.741C220.754 240.816 222.996 241.942 224.744 243.917C226.492 245.893 227.634 248.591 227.967 251.535V258.163C227.966 259.834 228.224 261.489 228.727 263.032C229.229 264.576 229.966 265.979 230.895 267.161C231.824 268.343 232.927 269.28 234.141 269.92C235.355 270.559 236.657 270.888 237.971 270.888H238.102H238.228C239.543 270.889 240.845 270.561 242.059 269.922C243.274 269.283 244.377 268.345 245.307 267.163C246.236 265.981 246.973 264.578 247.476 263.034C247.978 261.489 248.236 259.834 248.235 258.163V250.902C248.694 247.913 249.994 245.238 251.89 243.377C253.787 241.516 256.151 240.596 258.542 240.789C260.933 240.981 263.188 242.273 264.884 244.424C266.581 246.574 267.604 249.436 267.763 252.475V258.163C267.762 259.834 268.02 261.489 268.523 263.034C269.025 264.578 269.762 265.981 270.691 267.163C271.621 268.345 272.724 269.283 273.939 269.922C275.153 270.561 276.456 270.889 277.77 270.888H277.942C279.257 270.888 280.558 270.559 281.772 269.92C282.986 269.28 284.089 268.343 285.018 267.161C285.947 265.979 286.684 264.576 287.186 263.032C287.689 261.489 287.947 259.834 287.946 258.163V250.902C288.379 248.117 289.538 245.6 291.237 243.758C292.936 241.916 295.075 240.858 297.306 240.756C299.537 240.653 301.731 241.512 303.53 243.193C305.329 244.875 306.628 247.279 307.217 250.017V258.163C307.216 259.834 307.475 261.489 307.977 263.033C308.48 264.577 309.217 265.98 310.146 267.162C311.075 268.344 312.179 269.282 313.393 269.921C314.608 270.56 315.909 270.889 317.224 270.888C317.309 270.888 317.396 270.888 317.481 270.888C317.566 270.888 317.651 270.888 317.739 270.888C319.053 270.889 320.355 270.56 321.57 269.921C322.784 269.282 323.888 268.344 324.817 267.162C325.747 265.98 326.484 264.578 326.987 263.033C327.49 261.489 327.749 259.834 327.748 258.163V250.902C328.177 247.924 329.451 245.25 331.329 243.387C333.206 241.524 335.556 240.602 337.932 240.796C340.309 240.99 342.547 242.286 344.221 244.439C345.896 246.592 346.89 249.451 347.016 252.475V258.163C347.015 259.834 347.274 261.489 347.776 263.034C348.279 264.578 349.016 265.982 349.946 267.164C350.876 268.345 351.98 269.283 353.194 269.922C354.409 270.561 355.711 270.889 357.026 270.888H357.192C358.507 270.889 359.809 270.56 361.024 269.921C362.239 269.282 363.343 268.344 364.272 267.163C365.202 265.981 365.94 264.578 366.443 263.034C366.946 261.49 367.205 259.834 367.205 258.163V250.902C367.692 247.901 369.014 245.223 370.93 243.363C372.845 241.502 375.225 240.583 377.63 240.774C380.036 240.965 382.307 242.255 384.025 244.404C385.743 246.554 386.793 249.42 386.982 252.475V258.163C386.959 259.852 387.201 261.53 387.694 263.099C388.187 264.668 388.921 266.097 389.852 267.302C390.784 268.506 391.895 269.463 393.12 270.117C394.346 270.77 395.661 271.106 396.99 271.106C398.319 271.106 399.635 270.77 400.86 270.117C402.086 269.463 403.197 268.506 404.128 267.302C405.06 266.097 405.794 264.668 406.286 263.099C406.779 261.53 407.021 259.852 406.999 258.163V146.912H367.032Z" fill="#071B29"/>
<path fill-rule="evenodd" clip-rule="evenodd" d="M402.587 255.946C396.851 255.905 391.215 257.536 386.283 260.663V201.497H422.379V262.96C420.687 261.577 418.864 260.374 416.936 259.373C412.467 257.052 407.554 255.878 402.587 255.946ZM386.283 463.72V319.305C390.426 322.027 395.096 323.701 399.937 324.199C404.881 324.708 409.868 323.975 414.501 322.059C417.332 320.889 419.983 319.297 422.379 317.339V487.378C422.379 491.002 421.034 494.478 418.641 497.041C416.247 499.603 413.001 501.043 409.616 501.043C408.897 501.043 408.184 500.978 407.484 500.851C403.881 494.832 400.337 488.772 396.853 482.673V481.238C396.635 478.202 395.477 475.33 393.563 473.078C392.47 471.793 391.166 470.752 389.728 469.999C388.573 467.91 387.424 465.817 386.283 463.72Z" fill="#071B29"/>
<path fill-rule="evenodd" clip-rule="evenodd" d="M93.3979 207.758H128.78V260.979C123.941 257.768 118.389 256 112.697 255.857C107.006 255.715 101.382 257.203 96.4085 260.168C95.3673 260.788 94.3625 261.469 93.3979 262.205V207.758ZM96.4085 319.941C95.3673 319.321 94.3625 318.64 93.3979 317.904V487.378C93.3723 489.189 93.6835 490.989 94.3133 492.67C94.9432 494.352 95.879 495.883 97.0666 497.174C98.2542 498.465 99.6697 499.489 101.231 500.189C102.792 500.889 104.467 501.249 106.16 501.249C106.641 501.249 107.122 501.22 107.598 501.162C111.44 494.749 115.214 488.291 118.921 481.788V481.237C119.14 478.201 120.298 475.33 122.212 473.079C123.115 472.017 124.162 471.122 125.309 470.418C126.713 467.882 128.107 465.339 129.491 462.79V449.407H128.78V319.13C123.941 322.341 118.389 324.109 112.697 324.251C107.006 324.394 101.382 322.906 96.4085 319.941Z" fill="#071B29"/>
<path d="M407 243.269H386V329.991H407V243.269Z" fill="#071B29"/>
<path d="M129 243.269H109V329.991H129V243.269Z" fill="#071B29"/>
<path d="M208.35 286.844C212.409 286.844 215.7 283.321 215.7 278.975C215.7 274.629 212.409 271.106 208.35 271.106C204.291 271.106 201 274.629 201 278.975C201 283.321 204.291 286.844 208.35 286.844Z" fill="#0E2732"/>
<path d="M307.893 286.844C311.952 286.844 315.243 283.321 315.243 278.975C315.243 274.629 311.952 271.106 307.893 271.106C303.834 271.106 300.543 274.629 300.543 278.975C300.543 283.321 303.834 286.844 307.893 286.844Z" fill="#0E2732"/>
<path d="M277.404 373.269C279.012 373.27 280.616 373.441 282.192 373.781C282.192 373.687 282.192 373.592 282.192 373.498C282.194 369.052 281.122 364.681 279.08 360.81C277.038 356.938 274.096 353.698 270.539 351.404L234.759 367.057C233.945 370.448 233.784 373.981 234.285 377.44C234.786 380.9 235.939 384.214 237.674 387.182C239.408 390.15 241.689 392.709 244.376 394.704C247.063 396.699 250.101 398.088 253.305 398.787C253.374 391.993 255.944 385.503 260.456 380.725C264.968 375.948 271.058 373.268 277.404 373.269Z" fill="#8F0026"/>
<path d="M282.192 373.781C278.715 373.028 275.126 373.107 271.68 374.01C268.234 374.914 265.017 376.62 262.259 379.009C259.501 381.397 257.269 384.408 255.723 387.826C254.176 391.244 253.354 394.986 253.314 398.783C256.791 399.533 260.379 399.453 263.824 398.549C267.268 397.644 270.484 395.936 273.241 393.549C275.999 391.161 278.231 388.151 279.778 384.734C281.325 381.318 282.149 377.578 282.192 373.781Z" fill="#CE003A"/>
<path d="M410.461 161.124C404.931 161.124 399.626 159.26 395.715 155.942C391.804 152.624 389.607 148.124 389.606 143.431V129.276C389.606 124.583 391.803 120.082 395.714 116.764C399.625 113.445 404.93 111.581 410.461 111.581H427.147C429.886 111.581 432.598 112.039 435.128 112.928C437.658 113.817 439.957 115.121 441.893 116.764C443.829 118.407 445.366 120.358 446.413 122.505C447.461 124.652 448 126.953 448 129.276V143.431C448 148.124 445.802 152.624 441.891 155.942C437.98 159.261 432.676 161.125 427.145 161.125L410.461 161.124Z" fill="#7F67A1"/>
<path d="M362.855 201.515C357.324 201.515 352.02 199.651 348.109 196.333C344.198 193.015 342 188.515 342 183.823V169.666C342 167.342 342.54 165.041 343.588 162.894C344.636 160.747 346.172 158.797 348.109 157.154C350.046 155.511 352.345 154.207 354.876 153.318C357.406 152.429 360.118 151.972 362.857 151.972H379.541C382.279 151.972 384.991 152.429 387.521 153.318C390.051 154.207 392.35 155.51 394.287 157.153C396.223 158.795 397.759 160.746 398.807 162.892C399.856 165.039 400.395 167.339 400.395 169.663V183.821C400.393 188.514 398.195 193.013 394.284 196.331C390.373 199.649 385.069 201.514 379.539 201.515H362.855Z" fill="#7F67A1"/>
<path d="M426.12 130.146C426.363 130.351 426.556 130.595 426.687 130.863C426.818 131.131 426.886 131.419 426.886 131.71C426.886 132.001 426.818 132.288 426.687 132.557C426.556 132.825 426.363 133.069 426.12 133.274L367.567 182.948C367.325 183.153 367.038 183.316 366.722 183.428C366.406 183.539 366.067 183.596 365.725 183.596C365.383 183.596 365.044 183.539 364.728 183.428C364.412 183.316 364.125 183.153 363.883 182.948C363.641 182.743 363.449 182.5 363.318 182.231C363.186 181.963 363.119 181.675 363.119 181.385C363.119 181.094 363.186 180.807 363.318 180.538C363.449 180.27 363.641 180.026 363.883 179.821L422.433 130.146C422.675 129.94 422.962 129.776 423.278 129.665C423.595 129.554 423.934 129.496 424.277 129.496C424.619 129.496 424.959 129.554 425.275 129.665C425.591 129.776 425.878 129.94 426.12 130.146Z" fill="#353238"/>
<path d="M405.278 163.604C406.628 164.749 407.699 166.109 408.43 167.605C409.161 169.101 409.537 170.705 409.537 172.325C409.537 173.944 409.161 175.548 408.43 177.044C407.699 178.541 406.628 179.9 405.278 181.046C403.929 182.191 402.326 183.1 400.562 183.72C398.798 184.34 396.908 184.659 394.999 184.659C393.09 184.659 391.199 184.34 389.435 183.72C387.672 183.1 386.069 182.191 384.719 181.046C383.369 179.901 382.298 178.541 381.568 177.045C380.837 175.549 380.461 173.945 380.461 172.325C380.461 170.706 380.837 169.102 381.568 167.606C382.298 166.11 383.369 164.751 384.719 163.606C386.069 162.46 387.671 161.551 389.435 160.931C391.199 160.311 393.089 159.992 394.998 159.992C396.907 159.992 398.797 160.311 400.561 160.931C402.325 161.551 403.927 162.46 405.277 163.606L405.278 163.604Z" fill="#BE5A38"/>
</g>
<defs>
<clipPath id="clip0_251_1692">
<rect width="511.999" height="511.999" fill="white"/>
</clipPath>
</defs>
</svg>
