<svg width="512" height="512" viewBox="0 0 512 512" fill="none" xmlns="http://www.w3.org/2000/svg">
<g clip-path="url(#clip0_251_2117)">
<path d="M387.062 450.566H129.777V512.001H387.062V450.566Z" fill="#616247"/>
<path d="M403.587 272.84C397.749 272.801 392.014 274.381 387.019 277.405V205.61H129.78V277.542C124.941 274.543 119.389 272.891 113.697 272.758C108.006 272.625 102.382 274.014 97.4085 276.784C92.4345 279.553 88.2907 283.601 85.4059 288.508C82.5211 293.416 81 299.006 81 304.699C81 310.391 82.5211 315.981 85.4059 320.889C88.2907 325.797 92.4345 329.844 97.4085 332.614C102.382 335.383 108.006 336.773 113.697 336.639C119.389 336.506 124.941 334.855 129.78 331.856V453.537H387.019V331.856C391.227 334.494 395.993 336.115 400.937 336.59C405.881 337.065 410.868 336.381 415.501 334.592C420.135 332.802 424.287 329.958 427.629 326.283C430.971 322.608 433.41 318.205 434.752 313.423C436.095 308.641 436.304 303.612 435.363 298.735C434.422 293.858 432.357 289.267 429.332 285.328C426.306 281.389 422.405 278.209 417.936 276.041C413.467 273.873 408.554 272.777 403.587 272.84Z" fill="#E87D6A"/>
<path d="M386.697 178.81C384.455 146.307 369.965 115.864 346.152 93.6271C322.34 71.3902 290.978 59.0152 258.397 59C225.81 58.9936 194.436 71.3614 170.618 93.6026C146.801 115.844 132.318 146.299 130.097 178.81H129.777V187.619V246.452H387.016V178.81H386.697Z" fill="#E87D6A"/>
<path d="M160 239.912C160 246.301 158.367 252.427 155.46 256.945C152.554 261.462 148.612 264 144.501 264C140.39 264 136.448 261.462 133.541 256.945C130.634 252.427 129.001 246.301 129 239.912V185.089C129.001 178.7 130.634 172.573 133.541 168.055C136.448 163.538 140.39 161 144.501 161C148.612 161 152.554 163.539 155.46 168.056C158.367 172.574 160 178.7 160 185.089V239.912Z" fill="#8A5242"/>
<path d="M188 220.654C188 226.05 186.367 231.225 183.461 235.041C180.554 238.857 176.612 241 172.502 241C170.466 241 168.45 240.475 166.57 239.453C164.689 238.43 162.98 236.932 161.541 235.043C160.101 233.153 158.959 230.91 158.18 228.441C157.401 225.972 157 223.326 157 220.654V174.347C157 171.675 157.401 169.029 158.18 166.56C158.959 164.091 160.101 161.848 161.541 159.958C162.98 158.069 164.689 156.57 166.57 155.548C168.45 154.526 170.466 154 172.502 154C176.612 154 180.554 156.144 183.461 159.96C186.367 163.776 188 168.951 188 174.347V220.654Z" fill="#8A5242"/>
<path d="M230 203.355C230 208.566 227.419 213.562 222.825 217.246C218.231 220.931 212 223 205.502 223C202.285 223 199.099 222.493 196.126 221.506C193.154 220.519 190.452 219.072 188.177 217.248C185.902 215.424 184.097 213.258 182.865 210.874C181.634 208.491 181 205.936 181 203.355V158.645C181 156.065 181.634 153.51 182.865 151.127C184.097 148.743 185.902 146.577 188.177 144.753C190.452 142.929 193.154 141.482 196.126 140.495C199.099 139.508 202.285 139 205.502 139C212 139 218.231 141.07 222.825 144.755C227.419 148.439 230 153.435 230 158.645V203.355Z" fill="#8A5242"/>
<path d="M370.999 247.299L402.482 182.873C409.004 169.522 412.234 155.255 411.987 140.887C411.74 126.519 408.021 112.332 401.041 99.1346C394.062 85.9375 383.96 73.9893 371.311 63.972C358.663 53.9548 343.715 46.0649 327.323 40.7525C294.217 30.0237 257.233 30.4456 224.509 41.9256C191.785 53.4055 166.001 75.003 152.828 101.967L121.351 166.397L370.999 247.299Z" fill="#616247"/>
<path d="M402.273 235.609C399.515 242.089 393.71 247.41 386.135 250.405C378.56 253.399 369.834 253.82 361.878 251.576L125.356 184.832C117.4 182.586 110.864 177.858 107.187 171.688C103.51 165.518 102.993 158.411 105.749 151.931C108.506 145.449 114.311 140.125 121.887 137.129C129.464 134.134 138.191 133.712 146.149 135.957L382.666 202.704C386.606 203.816 390.239 205.549 393.357 207.804C396.475 210.06 399.016 212.794 400.837 215.849C402.658 218.905 403.722 222.222 403.968 225.613C404.215 229.003 403.639 232.4 402.273 235.609Z" fill="#DAA03D"/>
<path d="M346.568 227.608C346.289 228.265 345.853 228.872 345.286 229.392C344.719 229.912 344.031 230.336 343.263 230.639C342.494 230.942 341.66 231.119 340.807 231.159C339.955 231.199 339.101 231.102 338.295 230.873C337.487 230.645 336.743 230.291 336.104 229.829C335.466 229.367 334.946 228.807 334.573 228.181C334.201 227.555 333.984 226.876 333.935 226.181C333.885 225.487 334.005 224.791 334.286 224.135L340.154 210.338C340.433 209.68 340.869 209.074 341.436 208.554C342.003 208.034 342.69 207.61 343.459 207.307C344.227 207.004 345.062 206.827 345.915 206.787C346.767 206.747 347.621 206.844 348.428 207.073C349.233 207.302 349.976 207.658 350.612 208.12C351.249 208.582 351.768 209.142 352.139 209.768C352.51 210.394 352.726 211.073 352.774 211.767C352.823 212.461 352.703 213.155 352.422 213.811L346.568 227.608Z" fill="#616247"/>
<path d="M316.773 219.215C316.494 219.872 316.058 220.479 315.491 220.998C314.923 221.518 314.236 221.941 313.467 222.245C312.699 222.548 311.865 222.725 311.013 222.765C310.16 222.806 309.306 222.709 308.5 222.48C307.693 222.253 306.949 221.898 306.311 221.436C305.672 220.974 305.152 220.414 304.78 219.788C304.407 219.162 304.19 218.483 304.141 217.789C304.091 217.094 304.211 216.399 304.492 215.742L310.36 201.948C310.638 201.29 311.073 200.683 311.64 200.162C312.207 199.642 312.895 199.218 313.663 198.914C314.432 198.611 315.267 198.434 316.119 198.394C316.972 198.354 317.827 198.451 318.633 198.681C319.44 198.908 320.185 199.262 320.824 199.724C321.463 200.186 321.984 200.745 322.357 201.371C322.73 201.997 322.947 202.677 322.997 203.371C323.047 204.066 322.928 204.762 322.647 205.419L316.773 219.215Z" fill="#616247"/>
<path d="M286.993 210.799C286.714 211.457 286.278 212.063 285.711 212.583C285.144 213.103 284.457 213.526 283.688 213.83C282.92 214.134 282.086 214.311 281.233 214.352C280.381 214.393 279.526 214.297 278.72 214.068C277.913 213.84 277.17 213.485 276.532 213.023C275.894 212.561 275.374 212.001 275.002 211.376C274.63 210.75 274.412 210.071 274.363 209.377C274.313 208.682 274.432 207.987 274.712 207.33L280.58 193.535C280.859 192.878 281.294 192.272 281.861 191.751C282.428 191.231 283.115 190.807 283.884 190.503C284.652 190.2 285.487 190.023 286.34 189.983C287.192 189.942 288.046 190.039 288.853 190.269C289.659 190.496 290.403 190.852 291.04 191.314C291.677 191.776 292.196 192.336 292.567 192.962C292.938 193.588 293.154 194.268 293.202 194.962C293.25 195.656 293.129 196.351 292.847 197.007L286.993 210.799Z" fill="#616247"/>
<path d="M257.216 202.394C256.937 203.052 256.502 203.658 255.935 204.179C255.368 204.699 254.68 205.123 253.912 205.426C253.143 205.729 252.309 205.906 251.456 205.946C250.603 205.986 249.749 205.888 248.943 205.659C248.135 205.431 247.392 205.077 246.753 204.615C246.114 204.154 245.594 203.593 245.221 202.968C244.849 202.342 244.632 201.662 244.583 200.967C244.534 200.273 244.653 199.577 244.935 198.921L250.806 185.124C251.085 184.467 251.52 183.86 252.088 183.34C252.655 182.82 253.342 182.397 254.111 182.094C254.879 181.79 255.713 181.614 256.566 181.573C257.418 181.533 258.272 181.63 259.079 181.859C259.886 182.087 260.629 182.442 261.267 182.904C261.906 183.366 262.426 183.926 262.798 184.552C263.171 185.177 263.388 185.857 263.438 186.551C263.488 187.245 263.37 187.94 263.089 188.597L257.216 202.394Z" fill="#616247"/>
<path d="M227.433 193.993C227.155 194.65 226.719 195.256 226.152 195.777C225.585 196.297 224.897 196.72 224.129 197.023C223.36 197.327 222.526 197.503 221.673 197.544C220.821 197.584 219.967 197.486 219.16 197.257C218.353 197.03 217.608 196.676 216.969 196.214C216.33 195.753 215.809 195.193 215.436 194.567C215.064 193.941 214.846 193.261 214.797 192.566C214.748 191.872 214.868 191.176 215.149 190.519L221.02 176.722C221.3 176.066 221.736 175.46 222.304 174.941C222.871 174.422 223.559 173.999 224.327 173.697C225.096 173.394 225.93 173.219 226.783 173.18C227.635 173.141 228.488 173.239 229.293 173.469C230.099 173.696 230.842 174.05 231.48 174.511C232.117 174.971 232.637 175.53 233.009 176.155C233.381 176.779 233.599 177.457 233.649 178.15C233.699 178.843 233.581 179.538 233.302 180.193L227.433 193.993Z" fill="#616247"/>
<path d="M197.653 185.587C197.374 186.245 196.939 186.851 196.372 187.371C195.805 187.891 195.117 188.315 194.349 188.619C193.58 188.922 192.746 189.099 191.893 189.139C191.04 189.18 190.187 189.083 189.38 188.854C188.574 188.625 187.832 188.27 187.195 187.807C186.558 187.345 186.04 186.785 185.669 186.159C185.298 185.533 185.082 184.854 185.033 184.161C184.985 183.467 185.105 182.772 185.386 182.116L191.254 168.319C191.822 166.995 193.013 165.908 194.564 165.298C196.115 164.688 197.901 164.605 199.527 165.066C201.151 165.527 202.484 166.495 203.232 167.755C203.981 169.016 204.085 170.467 203.521 171.79L197.653 185.587Z" fill="#616247"/>
<path d="M167.876 177.188C167.596 177.845 167.16 178.45 166.593 178.97C166.026 179.49 165.339 179.914 164.57 180.217C163.802 180.52 162.968 180.697 162.115 180.737C161.263 180.777 160.409 180.681 159.603 180.452C158.796 180.225 158.051 179.87 157.413 179.408C156.774 178.947 156.253 178.387 155.881 177.761C155.508 177.135 155.291 176.455 155.241 175.761C155.192 175.067 155.311 174.371 155.592 173.714L161.46 159.917C161.74 159.26 162.176 158.655 162.744 158.136C163.311 157.617 163.999 157.195 164.768 156.892C165.536 156.59 166.371 156.415 167.223 156.376C168.075 156.336 168.928 156.435 169.733 156.664C170.539 156.892 171.283 157.248 171.92 157.71C172.558 158.172 173.077 158.732 173.448 159.358C173.819 159.984 174.035 160.664 174.082 161.358C174.13 162.052 174.009 162.746 173.727 163.402L167.876 177.188Z" fill="#616247"/>
<path d="M138.094 168.781C137.815 169.439 137.38 170.045 136.813 170.565C136.246 171.086 135.559 171.51 134.79 171.813C134.021 172.117 133.187 172.294 132.334 172.334C131.481 172.374 130.627 172.277 129.821 172.048C129.014 171.82 128.27 171.465 127.632 171.003C126.994 170.541 126.474 169.981 126.101 169.355C125.729 168.73 125.512 168.051 125.462 167.356C125.413 166.662 125.532 165.966 125.812 165.31L131.681 151.517C131.959 150.86 132.394 150.254 132.961 149.733C133.528 149.213 134.216 148.789 134.984 148.485C135.753 148.182 136.588 148.005 137.44 147.965C138.293 147.924 139.147 148.021 139.954 148.251C140.761 148.478 141.505 148.833 142.143 149.295C142.781 149.757 143.302 150.317 143.674 150.943C144.046 151.569 144.263 152.248 144.312 152.942C144.362 153.637 144.243 154.332 143.962 154.989L138.094 168.781Z" fill="#616247"/>
<path d="M201.35 305.7C205.409 305.7 208.7 302.409 208.7 298.35C208.7 294.291 205.409 291 201.35 291C197.291 291 194 294.291 194 298.35C194 302.409 197.291 305.7 201.35 305.7Z" fill="#0E2732"/>
<path d="M300.893 305.7C304.952 305.7 308.243 302.409 308.243 298.35C308.243 294.291 304.952 291 300.893 291C296.834 291 293.543 294.291 293.543 298.35C293.543 302.409 296.834 305.7 300.893 305.7Z" fill="#0E2732"/>
<g opacity="0.65">
<path opacity="0.65" d="M152 277.303L216.527 344.488C227.391 338.441 235.597 328.264 239.435 316.076L179.283 253.466C167.578 257.455 157.805 265.994 152 277.303Z" fill="white"/>
<path opacity="0.65" d="M194.086 251C193.055 251 192.048 251.046 191.034 251.112L241.67 303.833C241.738 302.774 241.779 301.719 241.779 300.655C241.779 287.486 236.754 274.857 227.81 265.545C218.866 256.233 206.735 251.001 194.086 251Z" fill="white"/>
</g>
<path d="M196.751 241C185.922 241 175.336 244.343 166.333 250.606C157.329 256.869 150.312 265.772 146.168 276.187C142.024 286.602 140.94 298.063 143.052 309.12C145.165 320.177 150.379 330.333 158.036 338.305C165.693 346.277 175.449 351.705 186.069 353.905C196.69 356.104 207.699 354.975 217.703 350.661C227.707 346.347 236.258 339.041 242.274 329.668C248.29 320.294 251.501 309.274 251.501 298C251.501 282.883 245.732 268.385 235.465 257.696C225.197 247.006 211.271 241.001 196.751 241ZM196.751 347.653C187.318 347.653 178.097 344.741 170.254 339.285C162.411 333.829 156.298 326.074 152.688 317.001C149.078 307.929 148.133 297.945 149.974 288.313C151.814 278.682 156.356 269.834 163.026 262.89C169.696 255.946 178.194 251.217 187.446 249.301C196.698 247.386 206.287 248.369 215.002 252.127C223.717 255.885 231.166 262.249 236.406 270.414C241.647 278.58 244.444 288.18 244.444 298C244.445 304.521 243.212 310.978 240.815 317.003C238.419 323.028 234.906 328.502 230.477 333.114C226.048 337.725 220.79 341.383 215.004 343.879C209.217 346.375 203.015 347.66 196.751 347.66V347.653Z" fill="#41201A"/>
<g opacity="0.65">
<path opacity="0.65" d="M267 277.303L331.527 344.488C342.39 338.442 350.593 328.264 354.425 316.076L294.283 253.466C282.577 257.451 272.802 265.992 267 277.303Z" fill="white"/>
<path opacity="0.65" d="M309.091 251C308.065 251 307.053 251.046 306.039 251.112L356.68 303.833C356.74 302.774 356.784 301.719 356.784 300.655C356.784 287.486 351.759 274.857 342.815 265.545C333.871 256.233 321.74 251.001 309.091 251Z" fill="white"/>
</g>
<path d="M312.25 241C301.421 241 290.835 244.343 281.832 250.606C272.828 256.869 265.81 265.772 261.666 276.187C257.522 286.602 256.438 298.063 258.551 309.12C260.663 320.177 265.878 330.333 273.535 338.305C281.192 346.277 290.947 351.705 301.568 353.905C312.189 356.104 323.197 354.975 333.202 350.661C343.206 346.347 351.757 339.041 357.773 329.668C363.789 320.294 367 309.274 367 298C367 282.883 361.232 268.385 350.964 257.695C340.696 247.005 326.77 241 312.25 241ZM312.25 347.653C302.817 347.653 293.596 344.741 285.752 339.285C277.909 333.829 271.796 326.074 268.187 317.001C264.577 307.929 263.632 297.945 265.472 288.313C267.313 278.682 271.855 269.834 278.525 262.89C285.195 255.946 293.693 251.217 302.945 249.301C312.197 247.386 321.786 248.369 330.501 252.127C339.216 255.885 346.665 262.249 351.905 270.414C357.146 278.58 359.943 288.18 359.943 298C359.944 304.521 358.711 310.979 356.315 317.004C353.918 323.029 350.405 328.503 345.976 333.115C341.548 337.726 336.29 341.384 330.503 343.88C324.716 346.376 318.513 347.66 312.25 347.66V347.653Z" fill="#41201A"/>
<path d="M263.561 292.458H248.464V303.558H263.561V292.458Z" fill="#41201A"/>
<path d="M269.215 401.671H290.646C291.542 398.856 291.998 395.942 292 393.012V385.842H224V393.012C223.995 398.159 225.399 403.225 228.087 407.752C230.774 412.28 234.659 416.125 239.389 418.938C242.047 413.776 246.264 409.411 251.546 406.353C256.828 403.296 262.957 401.67 269.215 401.671Z" fill="#640021"/>
<path d="M292 372H224V385.842H292V372Z" fill="white"/>
<path d="M290.646 401.671H269.215C262.957 401.67 256.828 403.295 251.546 406.353C246.264 409.411 242.047 413.776 239.389 418.938C243.835 421.591 248.901 423.258 254.182 423.803C259.462 424.348 264.809 423.758 269.794 422.078C274.778 420.399 279.261 417.677 282.882 414.133C286.504 410.589 289.163 406.321 290.646 401.671Z" fill="#CE003A"/>
<path d="M116 320.497C116.001 321.387 115.737 322.257 115.243 322.998C114.749 323.738 114.046 324.316 113.224 324.657C112.402 324.998 111.497 325.087 110.623 324.914C109.75 324.74 108.948 324.312 108.318 323.683C107.689 323.053 107.26 322.251 107.087 321.378C106.913 320.505 107.002 319.6 107.343 318.778C107.683 317.955 108.261 317.252 109.001 316.758C109.741 316.263 110.611 316 111.501 316C112.694 316.001 113.837 316.475 114.68 317.318C115.524 318.161 115.998 319.304 116 320.497Z" fill="#581238"/>
<path d="M409 320.497C409.001 321.387 408.737 322.257 408.243 322.998C407.749 323.738 407.046 324.316 406.224 324.657C405.402 324.998 404.497 325.087 403.623 324.914C402.75 324.74 401.948 324.312 401.318 323.683C400.689 323.053 400.26 322.251 400.087 321.378C399.913 320.505 400.002 319.6 400.343 318.778C400.683 317.955 401.261 317.252 402.001 316.758C402.741 316.263 403.611 316 404.501 316C405.694 316.001 406.837 316.475 407.68 317.318C408.524 318.161 408.998 319.304 409 320.497Z" fill="#581238"/>
</g>
<defs>
<clipPath id="clip0_251_2117">
<rect width="511.999" height="511.999" fill="white"/>
</clipPath>
</defs>
</svg>
