<svg width="177" height="189" viewBox="0 0 177 189" fill="none" xmlns="http://www.w3.org/2000/svg">
<path d="M54.6946 173.041C46.1356 164.91 38.0015 156.342 30.3248 147.373C26.9031 143.448 23.8042 139.254 21.0582 134.83C20.7227 134.195 20.2439 133.647 19.6597 133.229C19.3535 133.015 19.0276 132.831 18.6862 132.679C18.3734 132.547 18.0535 132.432 17.7281 132.336C16.1008 131.863 14.3832 131.793 12.7229 132.131C11.8559 132.313 11.0544 132.727 10.4037 133.328C9.753 133.929 9.27732 134.695 9.02726 135.545C8.84871 136.021 8.72369 136.515 8.65449 137.018C8.62184 137.494 8.63641 137.972 8.69801 138.445C8.82637 139.47 9.14767 140.46 9.64493 141.365C12.7625 146.461 16.285 151.298 20.1784 155.83C28.1883 165.181 36.6745 174.113 45.6033 182.591L54.6946 173.041Z" fill="#F6B089"/>
<path d="M54.6945 173.041C46.1355 164.91 38.0015 156.342 30.3248 147.373L27.7335 144.29L17.5838 152.493L20.2894 155.791C28.2993 165.142 36.7855 174.074 45.7143 182.552L54.6945 173.041Z" fill="#C9D23A"/>
<path fill-rule="evenodd" clip-rule="evenodd" d="M45.4956 188.872H129.932C132.402 186.622 133.772 184.137 133.772 181.524C133.772 171.387 113.151 163.169 87.7138 163.169C62.2767 163.169 41.6558 171.387 41.6558 181.524C41.6558 184.137 43.0259 186.622 45.4956 188.872Z" fill="#8BB629"/>
<path d="M133.788 159.196H41.6558V181.196H133.788V159.196Z" fill="#C9D23A"/>
<path d="M139.706 95.5535C137.615 95.5395 135.562 96.1053 133.773 97.188V71.4785H41.6568V97.237C39.924 96.1631 37.9358 95.5717 35.8977 95.524C33.8597 95.4763 31.8459 95.974 30.0648 96.9656C28.2836 97.9572 26.7997 99.4067 25.7667 101.164C24.7337 102.922 24.189 104.923 24.189 106.962C24.189 109 24.7337 111.002 25.7667 112.759C26.7997 114.517 28.2836 115.966 30.0648 116.958C31.8459 117.95 33.8597 118.447 35.8977 118.4C37.9358 118.352 39.924 117.761 41.6568 116.687V160.26H133.773V116.687C135.28 117.632 136.986 118.212 138.757 118.382C140.527 118.552 142.313 118.307 143.972 117.666C145.632 117.026 147.119 116.007 148.315 114.691C149.512 113.375 150.385 111.798 150.866 110.086C151.347 108.374 151.422 106.573 151.085 104.826C150.748 103.08 150.008 101.436 148.925 100.025C147.842 98.6146 146.444 97.476 144.844 96.6997C143.244 95.9235 141.484 95.531 139.706 95.5535Z" fill="#F6B089"/>
<path d="M133.657 61.8821C132.855 50.2427 127.666 39.3413 119.139 31.3783C110.611 23.4154 99.3809 18.984 87.7138 18.9785C76.0445 18.9762 64.8096 23.4051 56.2808 31.3695C47.7519 39.334 42.5655 50.2399 41.7702 61.8821H41.6558V65.0365V86.1042H133.772V61.8821H133.657Z" fill="#F6B089"/>
<path d="M130.071 180.519C139.965 173.185 149.475 165.347 158.563 157.035C162.983 153.016 167.068 148.643 170.778 143.96C171.382 143.123 171.821 142.179 172.073 141.178C172.192 140.715 172.265 140.243 172.29 139.766C172.283 139.258 172.219 138.753 172.1 138.259C171.955 137.385 171.576 136.566 171.003 135.89C170.431 135.215 169.685 134.707 168.847 134.42C167.239 133.891 165.527 133.751 163.854 134.014C163.519 134.071 163.188 134.145 162.861 134.238C162.504 134.353 162.159 134.501 161.83 134.682C161.2 135.019 160.657 135.5 160.245 136.085C156.984 140.152 153.399 143.949 149.525 147.439C140.814 155.407 131.697 162.921 122.212 169.95L130.071 180.519Z" fill="#F6B089"/>
<path d="M130.072 180.519C139.966 173.185 149.476 165.347 158.563 157.035L161.65 154.092L152.495 144.741L149.548 147.485C140.837 155.453 131.721 162.967 122.235 169.997L130.072 180.519Z" fill="#C9D23A"/>
<path d="M95.4735 121.418C96.0493 121.418 96.6237 121.475 97.1881 121.589C97.1881 121.557 97.1881 121.526 97.1881 121.494C97.1888 120.007 96.8049 118.545 96.0737 117.25C95.3425 115.956 94.2889 114.872 93.0151 114.104L80.2023 119.34C79.911 120.474 79.8532 121.656 80.0327 122.813C80.2121 123.97 80.625 125.079 81.2462 126.071C81.8674 127.064 82.684 127.92 83.6462 128.587C84.6085 129.254 85.6963 129.719 86.8437 129.953C86.8684 127.68 87.7886 125.51 89.4043 123.912C91.0201 122.314 93.201 121.417 95.4735 121.418Z" fill="#8F0026"/>
<path d="M97.1882 121.589C95.9431 121.337 94.6578 121.364 93.424 121.666C92.1901 121.968 91.0381 122.539 90.0504 123.338C89.0626 124.136 88.2634 125.143 87.7097 126.287C87.156 127.43 86.8615 128.681 86.8472 129.952C88.0922 130.203 89.3772 130.176 90.6106 129.873C91.8441 129.571 92.9955 128.999 93.983 128.201C94.9706 127.402 95.7698 126.396 96.3239 125.253C96.8779 124.11 97.173 122.859 97.1882 121.589Z" fill="#CE003A"/>
<path d="M69.7922 99.8011C71.2457 99.8011 72.4242 98.6226 72.4242 97.1691C72.4242 95.7156 71.2457 94.5371 69.7922 94.5371C68.3387 94.5371 67.1602 95.7156 67.1602 97.1691C67.1602 98.6226 68.3387 99.8011 69.7922 99.8011Z" fill="#0E2732"/>
<path d="M105.438 99.8011C106.892 99.8011 108.07 98.6226 108.07 97.1691C108.07 95.7156 106.892 94.5371 105.438 94.5371C103.985 94.5371 102.806 95.7156 102.806 97.1691C102.806 98.6226 103.985 99.8011 105.438 99.8011Z" fill="#0E2732"/>
<path d="M42.2732 58.2666L5.20996 64.3393C6.66415 72.6573 11.3411 80.0658 18.2251 84.956C25.0208 89.7836 33.4258 91.7723 41.6569 90.5089V86.8208H41.656V62.5987H41.7704C41.8699 61.1417 42.0382 59.6962 42.2732 58.2666Z" fill="#46525D"/>
<path d="M41.6558 77.8232L10.4302 92.5324C13.2877 98.4397 18.3047 103.015 24.4342 105.322C24.6881 104.115 25.1365 102.953 25.7666 101.881C26.7997 100.123 28.2835 98.6737 30.0647 97.6821C31.8458 96.6905 33.8596 96.1928 35.8976 96.2405C37.9357 96.2882 39.9239 96.8796 41.6568 97.9535V86.8206H41.6558V77.8232Z" fill="#0E2732"/>
<path d="M145.628 97.8356C149.658 96.9027 153.508 95.1902 156.947 92.7513C163.828 87.8707 168.508 80.4747 169.973 72.1667L133.772 66.2354V72.1956H133.773V97.9051C135.562 96.8224 137.615 96.2566 139.706 96.2706C141.484 96.2481 143.244 96.6406 144.844 97.4168C145.111 97.5464 145.373 97.6862 145.628 97.8356Z" fill="#46525D"/>
<path d="M151.017 105.217C157.023 102.879 161.933 98.3516 164.748 92.5324L133.773 77.9414V97.9044C135.562 96.8217 137.616 96.256 139.706 96.27C141.485 96.2475 143.244 96.6399 144.844 97.4162C146.445 98.1924 147.842 99.3311 148.925 100.742C149.941 102.064 150.655 103.592 151.017 105.217Z" fill="#0E2732"/>
<path d="M84.6392 64.741C87.526 69.3988 91.3021 73.4425 95.7517 76.6411C100.201 79.8396 105.237 82.1303 110.572 83.3826C115.907 84.6349 121.437 84.8242 126.845 83.9395C132.253 83.0549 137.434 81.1136 142.091 78.2267C146.749 75.3398 150.793 71.5638 153.991 67.1142C157.19 62.6645 159.481 57.6286 160.733 52.2936C161.985 46.9587 162.174 41.4293 161.29 36.0212C160.405 30.6132 158.464 25.4323 155.577 20.7744L84.6392 64.741Z" fill="#0E2732"/>
<path d="M89.7207 71.7137C98.9832 73.4318 108.574 71.5576 116.414 66.4977C124.255 61.4378 129.713 53.5999 131.605 44.6829C133.497 35.7659 131.672 26.4885 126.524 18.8617C121.376 11.2349 113.32 5.87337 104.103 3.93945L89.7207 71.7137Z" fill="#2A3D4A"/>
<path d="M50.688 61.6704C61.3753 63.7659 72.7126 62.5269 82.2061 58.2259C91.6995 53.925 98.5714 46.9143 101.31 38.7363C104.048 30.5583 102.429 21.8829 96.8085 14.6185C91.1878 7.35399 82.0261 2.0955 71.3388 0L50.688 61.6704Z" fill="#071B29"/>
<path d="M32.8626 26.2197C27.286 30.844 23.7586 37.4813 23.0464 44.6908C22.3342 51.9002 24.4947 59.0994 29.0588 64.7255C33.6228 70.3515 40.222 73.9502 47.4234 74.7398C54.6247 75.5294 61.8469 73.4462 67.5217 68.9429L32.8626 26.2197Z" fill="#071B29"/>
<path d="M59.9326 0C50.2537 2.64616 42.0832 8.77103 37.2018 17.0395C32.3205 25.3081 31.1239 35.05 33.8732 44.1418C36.6225 53.2336 43.0946 60.9383 51.8789 65.5765C60.6631 70.2147 71.0473 71.4105 80.7682 68.9031L59.9326 0Z" fill="#0E2732"/>
<path d="M151.109 46.1148C150.054 36.0772 145.081 26.8614 137.27 20.4697C129.458 14.0779 119.441 11.0266 109.393 11.9785C99.345 12.9304 90.0786 17.8087 83.6068 25.5535C77.135 33.2984 73.9806 43.284 74.8291 53.3412L151.109 46.1148Z" fill="#071B29"/>
<path d="M138.78 8.93594C130.771 3.0035 120.578 0.255167 110.412 1.28699C100.245 2.31882 90.9247 7.04745 84.4709 14.4477C78.0171 21.848 74.9504 31.3235 75.9358 40.8191C76.9212 50.3148 81.8793 59.0653 89.7349 65.1733L138.78 8.93594Z" fill="#0E2732"/>
<path d="M89.5419 16.2559C82.2978 16.3341 75.377 19.2666 70.2821 24.4168C65.1872 29.5671 62.3296 36.5192 62.3296 43.7637C62.3296 51.0082 65.1872 57.9604 70.2821 63.1106C75.377 68.2608 82.2978 71.1934 89.5419 71.2716V16.2559Z" fill="#2A3D4A"/>
<path d="M64.1388 78.2705C60.6451 78.2712 57.2299 79.3076 54.3253 81.2491C51.4207 83.1905 49.157 85.9498 47.8204 89.1777C46.4838 92.4056 46.1344 95.9575 46.8163 99.384C47.4983 102.81 49.1808 105.958 51.6514 108.428C54.122 110.898 57.2696 112.581 60.6963 113.262C64.1229 113.944 67.6745 113.594 70.9023 112.257C74.13 110.92 76.889 108.656 78.8301 105.751C80.7712 102.846 81.8073 99.4307 81.8076 95.937C81.808 93.6167 81.3512 91.319 80.4634 89.1752C79.5756 87.0315 78.2741 85.0836 76.6333 83.443C74.9925 81.8024 73.0445 80.5013 70.9007 79.6138C68.7568 78.7262 66.4591 78.2698 64.1388 78.2705Z" fill="#8BB629"/>
<path d="M108.891 78.2705C105.398 78.2707 101.982 79.3068 99.0774 81.248C96.1725 83.1892 93.9085 85.9482 92.5715 89.1761C91.2346 92.404 90.8849 95.956 91.5666 99.3826C92.2482 102.809 93.9307 105.957 96.4012 108.427C98.8717 110.898 102.019 112.58 105.446 113.262C108.873 113.944 112.424 113.594 115.652 112.257C118.88 110.92 121.639 108.656 123.58 105.751C125.522 102.846 126.558 99.4308 126.558 95.937C126.558 93.6169 126.102 91.3194 125.214 89.1758C124.326 87.0322 123.025 85.0844 121.385 83.4438C119.744 81.8032 117.796 80.502 115.653 79.6143C113.509 78.7266 111.212 78.2701 108.891 78.2705Z" fill="#8BB629"/>
<path d="M129.938 94.0474C129.471 88.7887 127.052 83.8953 123.158 80.331C119.263 76.7667 114.175 74.79 108.896 74.79C103.617 74.79 98.5285 76.7667 94.634 80.331C90.7395 83.8953 88.3207 88.7887 87.8541 94.0474H85.1797C84.6956 88.6261 82.1389 83.6003 78.0419 80.017C73.9449 76.4337 68.6235 74.5692 63.1859 74.8114C57.7484 75.0537 52.614 77.3843 48.852 81.3177C45.0899 85.2511 42.9902 90.4842 42.9902 95.9271C42.9902 101.37 45.0899 106.603 48.852 110.536C52.614 114.47 57.7484 116.8 63.1859 117.043C68.6235 117.285 73.9449 115.42 78.0419 111.837C82.1389 108.254 84.6956 103.228 85.1797 97.807H87.8541C88.3207 103.066 90.7395 107.959 94.634 111.523C98.5285 115.087 103.617 117.064 108.896 117.064C114.175 117.064 119.263 115.087 123.158 111.523C127.052 107.959 129.471 103.066 129.938 97.807H129.752V94.0474H129.938ZM64.1385 113.594C60.6447 113.593 57.2295 112.556 54.3248 110.615C51.4201 108.673 49.1564 105.914 47.8199 102.686C46.4834 99.4577 46.1342 95.9056 46.8164 92.479C47.4986 89.0524 49.1815 85.9051 51.6524 83.435C54.1233 80.9649 57.2712 79.2828 60.698 78.6017C64.1249 77.9206 67.6768 78.2709 70.9045 79.6084C74.1322 80.9459 76.8908 83.2105 78.8315 86.1158C80.7722 89.0211 81.8078 92.4367 81.8073 95.9306C81.8078 98.2508 81.351 100.548 80.4631 102.692C79.5753 104.835 78.2738 106.783 76.6329 108.423C74.9921 110.064 73.044 111.364 70.9001 112.252C68.7563 113.139 66.4587 113.595 64.1385 113.594ZM108.893 113.594C105.399 113.594 101.984 112.557 99.0788 110.616C96.1738 108.674 93.9098 105.915 92.5729 102.687C91.2361 99.4591 90.8866 95.9071 91.5685 92.4804C92.2504 89.0536 93.9331 85.9062 96.404 83.4358C98.8748 80.9654 102.023 79.2832 105.45 78.602C108.876 77.9207 112.428 78.2707 115.656 79.6082C118.884 80.9456 121.643 83.2102 123.584 86.1155C125.525 89.0209 126.56 92.4366 126.56 95.9306C126.56 98.2505 126.103 100.548 125.215 102.691C124.328 104.834 123.026 106.782 121.386 108.422C119.745 110.062 117.797 111.363 115.654 112.251C113.51 113.138 111.213 113.595 108.893 113.594Z" fill="#F7F7E5"/>
<path d="M46.4751 95.9303C46.4741 99.6078 47.621 103.194 49.756 106.188C51.891 109.182 54.9074 111.435 58.3844 112.633C61.8614 113.83 65.6256 113.912 69.1515 112.867C72.6775 111.823 75.7893 109.703 78.0529 106.805L53.261 82.0156C51.1459 83.666 49.4352 85.7771 48.2593 88.1884C47.0833 90.5997 46.4732 93.2476 46.4751 95.9303Z" fill="#C9D23A"/>
<path d="M81.8012 95.7273L64.3466 78.2705C64.2766 78.2705 64.209 78.2705 64.1413 78.2705C61.8951 78.2682 59.6692 78.6961 57.584 79.5311L80.544 102.491C81.3801 100.407 81.8099 98.1824 81.8102 95.937C81.8102 95.8593 81.8023 95.795 81.8012 95.7273Z" fill="#C9D23A"/>
<path d="M91.2275 95.9303C91.2262 99.6078 92.3729 103.194 94.5078 106.188C96.6426 109.182 99.659 111.436 103.136 112.633C106.613 113.831 110.377 113.913 113.903 112.868C117.429 111.823 120.541 109.704 122.804 106.805L98.0168 82.0156C95.9006 83.6651 94.1888 85.7759 93.0123 88.1873C91.8357 90.5987 91.2253 93.2472 91.2275 95.9303Z" fill="#C9D23A"/>
<path d="M126.552 95.7273L109.098 78.2705C109.028 78.2705 108.962 78.2705 108.891 78.2705C106.648 78.2683 104.425 78.6962 102.343 79.5311L125.299 102.491C126.133 100.407 126.561 98.1821 126.561 95.937C126.557 95.8593 126.553 95.795 126.552 95.7273Z" fill="#C9D23A"/>
</svg>
