<svg width="177" height="189" viewBox="0 0 177 189" fill="none" xmlns="http://www.w3.org/2000/svg">
<g clip-path="url(#clip0_251_2451)">
<path d="M140.469 105.579C138.342 105.567 136.253 106.058 134.434 106.999V84.6736H40.7229V107.041C38.9601 106.109 36.9374 105.595 34.8641 105.554C32.7908 105.512 30.7422 105.944 28.9302 106.805C27.1182 107.666 25.6086 108.925 24.5577 110.451C23.5068 111.977 22.9526 113.715 22.9526 115.486C22.9526 117.256 23.5068 118.994 24.5577 120.52C25.6086 122.046 27.1182 123.305 28.9302 124.166C30.7422 125.027 32.7908 125.459 34.8641 125.418C36.9374 125.376 38.9601 124.863 40.7229 123.93V161.768H134.434V123.93C135.967 124.751 137.703 125.255 139.504 125.403C141.305 125.55 143.122 125.337 144.809 124.781C146.497 124.225 148.01 123.34 149.228 122.197C150.445 121.055 151.333 119.686 151.822 118.199C152.312 116.712 152.388 115.148 152.045 113.631C151.702 112.115 150.95 110.687 149.848 109.462C148.746 108.237 147.324 107.249 145.696 106.575C144.068 105.9 142.279 105.56 140.469 105.579Z" fill="#E87D6A"/>
<path d="M134.316 76.34C133.499 66.2328 128.221 56.7666 119.546 49.8519C110.871 42.9373 99.4463 39.0892 87.5773 39.0845C75.7059 39.0825 64.2765 42.9283 55.6001 49.8443C46.9236 56.7603 41.6474 66.2304 40.8383 76.34H40.7219V79.0791V97.3734H134.433V76.34H134.316Z" fill="#E87D6A"/>
<path d="M51.7328 95.3402C51.7328 97.3268 51.1379 99.2319 50.0791 100.637C49.0202 102.041 47.5841 102.83 46.0867 102.83C44.5892 102.83 43.1531 102.041 42.0941 100.637C41.0351 99.232 40.44 97.327 40.4397 95.3402V78.2928C40.44 76.3061 41.0351 74.4008 42.0941 72.9961C43.1531 71.5914 44.5892 70.8022 46.0867 70.8022C47.5841 70.8022 49.0202 71.5917 50.0791 72.9964C51.1379 74.4011 51.7328 76.3062 51.7328 78.2928V95.3402Z" fill="#8A5242"/>
<path d="M61.9328 89.3517C61.9328 91.0298 61.338 92.6389 60.2792 93.8254C59.2203 95.012 57.7842 95.6785 56.2868 95.6785C55.5452 95.6786 54.811 95.5152 54.1258 95.1973C53.4407 94.8795 52.8182 94.4135 52.2938 93.826C51.7694 93.2385 51.3533 92.541 51.0695 91.7733C50.7857 91.0056 50.6396 90.1827 50.6396 89.3517V74.9525C50.6396 74.1215 50.7857 73.2987 51.0695 72.531C51.3533 71.7633 51.7694 71.0658 52.2938 70.4782C52.8182 69.8907 53.4407 69.4248 54.1258 69.1069C54.811 68.789 55.5452 68.6253 56.2868 68.6255C57.7842 68.6255 59.2203 69.2923 60.2792 70.4788C61.338 71.6653 61.9328 73.2745 61.9328 74.9525V89.3517Z" fill="#8A5242"/>
<path d="M77.2332 83.9727C77.2332 85.5929 76.2931 87.1466 74.6195 88.2922C72.9458 89.4378 70.6758 90.0813 68.3089 90.0813C67.1368 90.0814 65.9762 89.9237 64.8933 89.6168C63.8103 89.3098 62.8263 88.86 61.9974 88.2927C61.1685 87.7255 60.5109 87.052 60.0623 86.3108C59.6137 85.5695 59.3828 84.775 59.3828 83.9727V70.07C59.3828 69.2677 59.6137 68.4732 60.0623 67.732C60.5109 66.9908 61.1685 66.3173 61.9974 65.75C62.8263 65.1828 63.8103 64.7329 64.8933 64.426C65.9762 64.1191 67.1368 63.961 68.3089 63.9612C70.6758 63.9612 72.9458 64.605 74.6195 65.7506C76.2931 66.8962 77.2332 68.4499 77.2332 70.07V83.9727Z" fill="#8A5242"/>
<path d="M128.598 97.637L140.068 77.6036C142.444 73.452 143.62 69.0156 143.53 64.5479C143.44 60.0801 142.085 55.6685 139.543 51.5648C137 47.4611 133.32 43.7458 128.712 40.6309C124.104 37.516 118.659 35.0626 112.688 33.4107C100.627 30.0745 87.1544 30.2057 75.2332 33.7754C63.312 37.3452 53.9189 44.061 49.1202 52.4455L37.6531 72.4803L128.598 97.637Z" fill="#616247"/>
<path d="M139.991 94.0022C138.987 96.0171 136.872 97.6719 134.112 98.603C131.353 99.5341 128.174 99.665 125.276 98.9671L39.1121 78.2128C36.2137 77.5144 33.8328 76.0443 32.4934 74.1258C31.1539 72.2073 30.9654 69.9973 31.9693 67.9821C32.9736 65.9666 35.0884 64.3111 37.8485 63.3796C40.6086 62.448 43.7879 62.3169 46.6871 63.015L132.849 83.7701C134.284 84.1159 135.608 84.6549 136.743 85.3563C137.879 86.0576 138.805 86.9077 139.468 87.8578C140.132 88.808 140.519 89.8396 140.609 90.8939C140.699 91.9481 140.489 93.0043 139.991 94.0022Z" fill="#DAA03D"/>
<path d="M119.698 91.5143C119.597 91.7187 119.438 91.9073 119.232 92.069C119.025 92.2307 118.774 92.3624 118.494 92.4567C118.214 92.551 117.911 92.606 117.6 92.6185C117.289 92.6309 116.978 92.6007 116.685 92.5294C116.39 92.4588 116.119 92.3484 115.887 92.2048C115.654 92.0612 115.465 91.8871 115.329 91.6924C115.193 91.4978 115.114 91.2866 115.096 91.0706C115.078 90.8547 115.122 90.6384 115.224 90.4342L117.362 86.144C117.464 85.9396 117.622 85.751 117.829 85.5893C118.036 85.4276 118.286 85.2959 118.566 85.2016C118.846 85.1073 119.15 85.0523 119.46 85.0398C119.771 85.0274 120.082 85.0576 120.376 85.1289C120.669 85.2 120.94 85.3106 121.172 85.4544C121.404 85.5981 121.593 85.7722 121.728 85.9668C121.863 86.1614 121.942 86.3727 121.959 86.5884C121.977 86.8041 121.933 87.0201 121.831 87.2241L119.698 91.5143Z" fill="#616247"/>
<path d="M108.845 88.9046C108.743 89.1089 108.584 89.2973 108.377 89.459C108.171 89.6206 107.92 89.7522 107.64 89.8465C107.36 89.9408 107.057 89.9959 106.746 90.0084C106.436 90.021 106.125 89.9908 105.831 89.9197C105.537 89.849 105.266 89.7388 105.033 89.5951C104.801 89.4515 104.611 89.2774 104.476 89.0827C104.34 88.8881 104.261 88.6769 104.243 88.461C104.225 88.2451 104.268 88.0287 104.371 87.8245L106.508 83.5351C106.61 83.3305 106.768 83.1418 106.975 82.98C107.181 82.8181 107.432 82.6863 107.712 82.5919C107.992 82.4975 108.296 82.4424 108.606 82.43C108.917 82.4175 109.228 82.4479 109.522 82.5192C109.816 82.5898 110.088 82.7 110.32 82.8436C110.553 82.9872 110.743 83.1612 110.879 83.3558C111.015 83.5505 111.094 83.7618 111.112 83.9778C111.13 84.1938 111.087 84.4101 110.984 84.6144L108.845 88.9046Z" fill="#616247"/>
<path d="M97.9953 86.2873C97.8935 86.4917 97.7349 86.6801 97.5283 86.8419C97.3217 87.0036 97.0714 87.1353 96.7915 87.2297C96.5116 87.3242 96.2077 87.3793 95.8971 87.392C95.5866 87.4047 95.2753 87.3748 94.9814 87.3038C94.6876 87.233 94.4168 87.1224 94.1844 86.9787C93.952 86.8351 93.7627 86.6611 93.6271 86.4665C93.4915 86.2719 93.4123 86.0607 93.3942 85.8449C93.376 85.6291 93.4193 85.4127 93.5214 85.2085L95.6591 80.919C95.7606 80.7145 95.9192 80.5261 96.1257 80.3643C96.3323 80.2025 96.5827 80.0706 96.8627 79.9762C97.1427 79.8818 97.4466 79.8268 97.7573 79.8143C98.0679 79.8018 98.379 79.8319 98.6728 79.9032C98.9666 79.974 99.2374 80.0845 99.4697 80.2283C99.7019 80.372 99.8909 80.5462 100.026 80.7409C100.161 80.9355 100.24 81.1468 100.257 81.3626C100.275 81.5785 100.231 81.7946 100.128 81.9985L97.9953 86.2873Z" fill="#616247"/>
<path d="M87.1477 83.6735C87.0462 83.878 86.8876 84.0667 86.6811 84.2285C86.4745 84.3902 86.224 84.522 85.944 84.6163C85.664 84.7107 85.36 84.7657 85.0494 84.7781C84.7388 84.7905 84.4276 84.76 84.1339 84.6887C83.8398 84.618 83.5688 84.5079 83.3361 84.3643C83.1035 84.2207 82.9139 84.0465 82.7782 83.8519C82.6426 83.6572 82.5636 83.4458 82.5457 83.2299C82.5277 83.014 82.5713 82.7977 82.6738 82.5935L84.8126 78.3033C84.9143 78.0989 85.0729 77.9104 85.2795 77.7487C85.4861 77.5871 85.7366 77.4553 86.0166 77.361C86.2965 77.2667 86.6004 77.2118 86.911 77.1993C87.2215 77.1868 87.5326 77.217 87.8264 77.2882C88.1203 77.359 88.3912 77.4693 88.6237 77.6129C88.8562 77.7566 89.0457 77.9308 89.1814 78.1253C89.3171 78.3199 89.3964 78.5312 89.4146 78.7471C89.4328 78.963 89.3895 79.1791 89.2874 79.3834L87.1477 83.6735Z" fill="#616247"/>
<path d="M76.298 81.061C76.1964 81.2655 76.0377 81.4541 75.8312 81.6158C75.6246 81.7775 75.3741 81.9092 75.0941 82.0035C74.8141 82.0978 74.5102 82.1528 74.1996 82.1652C73.889 82.1777 73.5779 82.1474 73.2842 82.0762C72.9899 82.0057 72.7186 81.8955 72.4858 81.752C72.253 81.6084 72.0633 81.4342 71.9275 81.2395C71.7917 81.0449 71.7125 80.8336 71.6946 80.6176C71.6767 80.4016 71.7203 80.1852 71.823 79.981L73.9617 75.6908C74.0636 75.4866 74.2225 75.2984 74.4292 75.137C74.636 74.9755 74.8865 74.8439 75.1665 74.75C75.4465 74.656 75.7505 74.6014 76.0609 74.5893C76.3713 74.5771 76.6822 74.6077 76.9756 74.6792C77.2691 74.7497 77.5397 74.8598 77.772 75.0031C78.0043 75.1464 78.1936 75.3201 78.3292 75.5143C78.4648 75.7085 78.5441 75.9193 78.5623 76.1348C78.5806 76.3503 78.5376 76.5662 78.4357 76.7702L76.298 81.061Z" fill="#616247"/>
<path d="M65.4491 78.4478C65.3475 78.6522 65.189 78.8408 64.9824 79.0025C64.7759 79.1643 64.5255 79.2961 64.2455 79.3904C63.9655 79.4848 63.6615 79.5398 63.3509 79.5524C63.0403 79.5649 62.7292 79.5348 62.4354 79.4636C62.1419 79.3926 61.8714 79.282 61.6394 79.1382C61.4074 78.9944 61.2185 78.8202 61.0834 78.6256C60.9482 78.431 60.8696 78.2199 60.852 78.0042C60.8343 77.7884 60.878 77.5724 60.9805 77.3685L63.1182 73.0783C63.3251 72.6664 63.7588 72.3285 64.3239 72.1388C64.889 71.9492 65.5394 71.9232 66.132 72.0667C66.7235 72.2101 67.2089 72.5109 67.4817 72.9029C67.7545 73.295 67.7923 73.7462 67.5869 74.1576L65.4491 78.4478Z" fill="#616247"/>
<path d="M54.602 75.836C54.5002 76.0403 54.3414 76.2286 54.1348 76.3902C53.9281 76.5519 53.6777 76.6837 53.3978 76.778C53.1179 76.8722 52.814 76.9271 52.5035 76.9397C52.1929 76.9523 51.882 76.9222 51.5883 76.8512C51.2942 76.7805 51.023 76.6702 50.7903 76.5266C50.5577 76.383 50.368 76.209 50.2323 76.0144C50.0965 75.8197 50.0174 75.6083 49.9993 75.3924C49.9813 75.1765 50.0247 74.9601 50.1271 74.7558L52.2647 70.4656C52.3667 70.2615 52.5257 70.0733 52.7324 69.9119C52.9392 69.7506 53.1898 69.6191 53.4698 69.5251C53.7497 69.4312 54.0536 69.3766 54.364 69.3644C54.6744 69.3522 54.9851 69.3827 55.2785 69.4542C55.5723 69.525 55.8431 69.6356 56.0754 69.7793C56.3076 69.923 56.4966 70.0972 56.6318 70.2919C56.7669 70.4866 56.8456 70.6979 56.863 70.9137C56.8805 71.1295 56.8364 71.3454 56.7335 71.5494L54.602 75.836Z" fill="#616247"/>
<path d="M43.7525 73.2219C43.651 73.4264 43.4924 73.6148 43.2859 73.7766C43.0793 73.9384 42.8289 74.0703 42.5489 74.1647C42.2689 74.259 41.9648 74.3141 41.6542 74.3266C41.3435 74.3391 41.0324 74.309 40.7386 74.2377C40.4447 74.1669 40.1738 74.0564 39.9413 73.9128C39.7088 73.7691 39.5194 73.595 39.3838 73.4004C39.2481 73.2058 39.169 72.9946 39.151 72.7788C39.1329 72.5629 39.1762 72.3466 39.2785 72.1424L41.4162 67.8536C41.5177 67.6491 41.6763 67.4606 41.8828 67.2988C42.0893 67.137 42.3397 67.0052 42.6197 66.9108C42.8997 66.8164 43.2038 66.7614 43.5145 66.7489C43.8251 66.7363 44.1362 66.7665 44.43 66.8378C44.724 66.9085 44.995 67.0189 45.2276 67.1625C45.4602 67.3061 45.6497 67.4803 45.7853 67.6749C45.9209 67.8695 46 68.0808 46.0179 68.2967C46.0359 68.5126 45.9926 68.7289 45.8902 68.9331L43.7525 73.2219Z" fill="#616247"/>
<path d="M66.7957 115.797C68.2744 115.797 69.4733 114.774 69.4733 113.512C69.4733 112.25 68.2744 111.226 66.7957 111.226C65.3171 111.226 64.1182 112.25 64.1182 113.512C64.1182 114.774 65.3171 115.797 66.7957 115.797Z" fill="#0E2732"/>
<path d="M103.059 115.797C104.537 115.797 105.736 114.774 105.736 113.512C105.736 112.25 104.537 111.226 103.059 111.226C101.58 111.226 100.381 112.25 100.381 113.512C100.381 114.774 101.58 115.797 103.059 115.797Z" fill="#0E2732"/>
<g opacity="0.65">
<path opacity="0.65" d="M48.8186 106.967L72.3254 127.858C76.2832 125.978 79.2724 122.814 80.6706 119.024L58.7576 99.5549C54.4937 100.795 50.9332 103.451 48.8186 106.967Z" fill="white"/>
<path opacity="0.65" d="M64.1504 98.7883C63.7748 98.7883 63.408 98.8026 63.0386 98.823L81.485 115.217C81.5098 114.888 81.5248 114.56 81.5248 114.229C81.5248 110.134 79.6943 106.207 76.436 103.311C73.1777 100.415 68.7585 98.7885 64.1504 98.7883Z" fill="white"/>
</g>
<path d="M65.1209 95.679C61.1761 95.679 57.3198 96.7185 54.0398 98.6661C50.7598 100.614 48.2034 103.382 46.6938 106.621C45.1841 109.859 44.7892 113.423 45.5588 116.861C46.3284 120.299 48.228 123.458 51.0174 125.936C53.8068 128.415 57.3607 130.103 61.2297 130.787C65.0988 131.471 69.1092 131.12 72.7537 129.779C76.3982 128.437 79.5133 126.165 81.7049 123.25C83.8965 120.336 85.0662 116.909 85.0662 113.403C85.066 108.703 82.9645 104.194 79.2241 100.871C75.4837 97.5466 70.4107 95.6792 65.1209 95.679ZM65.1209 128.843C61.6846 128.843 58.3254 127.937 55.4682 126.241C52.611 124.544 50.3841 122.133 49.069 119.312C47.754 116.491 47.4099 113.386 48.0803 110.391C48.7507 107.396 50.4055 104.645 52.8353 102.486C55.2652 100.326 58.361 98.8561 61.7313 98.2603C65.1016 97.6646 68.595 97.9703 71.7698 99.1389C74.9446 100.307 77.6581 102.286 79.5673 104.825C81.4764 107.364 82.4953 110.35 82.4953 113.403C82.4956 115.431 82.0463 117.439 81.1733 119.312C80.3003 121.186 79.0206 122.888 77.4072 124.322C75.7938 125.756 73.8784 126.894 71.7703 127.67C69.6623 128.446 67.4028 128.845 65.1209 128.845V128.843Z" fill="#41201A"/>
<g opacity="0.65">
<path opacity="0.65" d="M90.7117 106.967L114.218 127.858C118.176 125.978 121.164 122.813 122.56 119.024L100.651 99.5547C96.3862 100.794 92.8252 103.45 90.7117 106.967Z" fill="white"/>
<path opacity="0.65" d="M106.045 98.7881C105.671 98.7881 105.303 98.8023 104.933 98.8228L123.382 115.217C123.404 114.888 123.42 114.559 123.42 114.229C123.42 110.134 121.589 106.206 118.331 103.311C115.072 100.415 110.653 98.7883 106.045 98.7881Z" fill="white"/>
</g>
<path d="M107.196 95.679C103.251 95.679 99.395 96.7185 96.115 98.6661C92.835 100.614 90.2786 103.382 88.769 106.621C87.2593 109.859 86.8644 113.423 87.634 116.861C88.4036 120.299 90.3032 123.458 93.0926 125.936C95.882 128.415 99.4359 130.103 103.305 130.787C107.174 131.471 111.184 131.12 114.829 129.779C118.473 128.437 121.588 126.165 123.78 123.25C125.972 120.336 127.141 116.909 127.141 113.403C127.141 108.703 125.04 104.194 121.3 100.87C117.559 97.5464 112.486 95.679 107.196 95.679ZM107.196 128.843C103.76 128.843 100.401 127.937 97.5434 126.241C94.6862 124.544 92.4592 122.133 91.1442 119.312C89.8292 116.491 89.4851 113.386 90.1555 110.391C90.8259 107.396 92.4807 104.645 94.9105 102.486C97.3404 100.326 100.436 98.8561 103.806 98.2603C107.177 97.6646 110.67 97.9703 113.845 99.1389C117.02 100.307 119.733 102.286 121.642 104.825C123.552 107.364 124.571 110.35 124.571 113.403C124.571 115.431 124.122 117.439 123.249 119.313C122.376 121.186 121.096 122.888 119.483 124.322C117.869 125.756 115.954 126.894 113.846 127.67C111.738 128.446 109.478 128.845 107.196 128.845V128.843Z" fill="#41201A"/>
<path d="M89.4594 111.68H83.9597V115.132H89.4594V111.68Z" fill="#41201A"/>
<path d="M91.5188 145.64H99.3262C99.6526 144.765 99.8187 143.859 99.8194 142.947V140.718H75.0474V142.947C75.0456 144.548 75.5572 146.123 76.5361 147.531C77.515 148.939 78.9303 150.134 80.6534 151.009C81.6219 149.404 83.1581 148.047 85.0823 147.096C87.0065 146.145 89.2392 145.64 91.5188 145.64Z" fill="#640021"/>
<path d="M99.8194 136.414H75.0474V140.718H99.8194V136.414Z" fill="white"/>
<path d="M99.3261 145.64H91.5188C89.2392 145.64 87.0064 146.145 85.0823 147.096C83.1581 148.047 81.6219 149.404 80.6533 151.01C82.2729 151.834 84.1188 152.353 86.0424 152.522C87.966 152.692 89.9138 152.508 91.7296 151.986C93.5454 151.464 95.1784 150.617 96.4978 149.515C97.8171 148.413 98.7857 147.086 99.3261 145.64Z" fill="#CE003A"/>
<path d="M131.076 180.432C140.072 171.905 148.629 162.914 156.715 153.493C160.651 148.934 164.214 144.058 167.369 138.911C167.874 137.998 168.204 136.995 168.342 135.957C168.408 135.478 168.427 134.993 168.398 134.509C168.334 133.998 168.213 133.495 168.039 133.011C167.797 132.146 167.329 131.364 166.684 130.748C166.04 130.132 165.243 129.705 164.378 129.512C162.722 129.162 161.007 129.217 159.376 129.674C159.05 129.769 158.729 129.882 158.416 130.013C158.074 130.17 157.748 130.359 157.442 130.578C156.854 130.991 156.369 131.537 156.026 132.174C153.247 136.649 150.115 140.888 146.663 144.849C138.912 153.881 130.708 162.5 122.083 170.673L131.076 180.432Z" fill="#E87D6A"/>
<path d="M131.076 180.433C140.072 171.906 148.63 162.914 156.715 153.493L159.448 150.172L149.307 141.79L146.69 144.894C138.94 153.926 130.736 162.545 122.111 170.718L131.076 180.433Z" fill="#616247"/>
<path d="M54.5057 168.573C45.0692 161.385 36.0039 153.707 27.3458 145.571C23.4952 142.018 19.9336 138.155 16.6956 134.02C16.289 133.419 15.7503 132.923 15.1221 132.571C14.7935 132.391 14.4486 132.244 14.0923 132.131C13.7666 132.035 13.4359 131.957 13.1017 131.898C11.4321 131.613 9.71951 131.745 8.11116 132.281C7.27195 132.567 6.52462 133.078 5.9486 133.761C5.37259 134.444 4.98943 135.272 4.83984 136.158C4.71785 136.659 4.65109 137.171 4.64081 137.687C4.66361 138.171 4.7335 138.651 4.84949 139.12C5.09566 140.138 5.52941 141.098 6.12778 141.952C9.81249 146.721 13.869 151.182 18.2581 155.291C27.291 163.773 36.7481 171.776 46.5917 179.27L54.5057 168.573Z" fill="#E87D6A"/>
<path d="M54.5056 168.574C45.0691 161.386 36.0038 153.709 27.3457 145.572L24.4167 142.77L15.2963 152.234L18.3636 155.239C27.3966 163.721 36.8536 171.725 46.6972 179.219L54.5056 168.574Z" fill="#616247"/>
<path fill-rule="evenodd" clip-rule="evenodd" d="M45.5213 188.822H129.65C132.19 186.511 133.601 183.952 133.601 181.259C133.601 170.971 112.999 162.632 87.5855 162.632C62.1716 162.632 41.5696 170.971 41.5696 181.259C41.5696 183.952 42.9812 186.511 45.5213 188.822Z" fill="#DAA03D"/>
<path d="M133.129 158.88H42.0811V180.803H133.129V158.88Z" fill="#616247"/>
<path d="M35 120.499C35.0002 120.796 34.9123 121.086 34.7476 121.333C34.5829 121.579 34.3488 121.772 34.0747 121.886C33.8006 121.999 33.4988 122.029 33.2078 121.971C32.9167 121.913 32.6493 121.771 32.4395 121.561C32.2296 121.351 32.0867 121.084 32.0288 120.793C31.9709 120.502 32.0006 120.2 32.1142 119.926C32.2278 119.652 32.4202 119.417 32.6669 119.253C32.9137 119.088 33.2037 119 33.5005 119C33.8979 119 34.2791 119.158 34.5601 119.439C34.8412 119.72 34.9994 120.101 35 120.499Z" fill="#581238"/>
<path d="M141 120.499C141 120.796 140.912 121.086 140.748 121.333C140.583 121.579 140.349 121.772 140.075 121.886C139.801 121.999 139.499 122.029 139.208 121.971C138.917 121.913 138.649 121.771 138.439 121.561C138.23 121.351 138.087 121.084 138.029 120.793C137.971 120.502 138.001 120.2 138.114 119.926C138.228 119.652 138.42 119.417 138.667 119.253C138.914 119.088 139.204 119 139.5 119C139.898 119 140.279 119.158 140.56 119.439C140.841 119.72 140.999 120.101 141 120.499Z" fill="#581238"/>
</g>
<defs>
<clipPath id="clip0_251_2451">
<rect width="176.74" height="188.872" fill="white"/>
</clipPath>
</defs>
</svg>
