<svg width="177" height="189" viewBox="0 0 177 189" fill="none" xmlns="http://www.w3.org/2000/svg">
<g clip-path="url(#clip0_249_2217)">
<path d="M130.075 179.314C139.071 169.025 147.629 158.175 155.715 146.807C159.65 141.306 163.214 135.422 166.369 129.212C166.874 128.109 167.204 126.9 167.342 125.647C167.408 125.068 167.427 124.483 167.398 123.9C167.334 123.283 167.213 122.676 167.039 122.092C166.797 121.048 166.329 120.105 165.684 119.361C165.039 118.618 164.243 118.103 163.378 117.87C161.722 117.448 160.007 117.514 158.376 118.065C158.05 118.18 157.729 118.317 157.415 118.475C157.074 118.663 156.748 118.892 156.442 119.157C155.854 119.654 155.369 120.314 155.026 121.082C152.247 126.482 149.115 131.597 145.662 136.377C137.912 147.275 129.708 157.676 121.083 167.539L130.075 179.314Z" fill="#EDC297"/>
<path d="M130.075 179.315C139.071 169.026 147.629 158.176 155.715 146.808L158.448 142.8L148.307 132.685L145.69 136.431C137.939 147.329 129.735 157.73 121.111 167.593L130.075 179.315Z" fill="#7F67A1"/>
<path d="M53.5059 165.005C44.0695 156.331 35.0041 147.066 26.346 137.248C22.4954 132.961 18.9337 128.3 15.6958 123.31C15.2892 122.585 14.7504 121.986 14.1222 121.561C13.7936 121.344 13.4488 121.167 13.0925 121.031C12.7667 120.915 12.436 120.821 12.1018 120.749C10.4323 120.406 8.71966 120.564 7.11131 121.212C6.27209 121.557 5.52476 122.174 4.94875 122.997C4.37274 123.821 3.98957 124.821 3.83998 125.89C3.71799 126.494 3.65123 127.113 3.64096 127.735C3.66375 128.318 3.73365 128.898 3.84963 129.464C4.09581 130.692 4.52956 131.851 5.12793 132.881C8.81264 138.636 12.8692 144.019 17.2582 148.977C26.2912 159.212 35.7483 168.87 45.5919 177.913L53.5059 165.005Z" fill="#EDC297"/>
<path d="M53.5058 165.006C44.0693 156.332 35.004 147.067 26.3459 137.249L23.4169 133.868L14.2965 145.288L17.3638 148.914C26.3968 159.149 35.8539 168.807 45.6975 177.85L53.5058 165.006Z" fill="#7F67A1"/>
<path fill-rule="evenodd" clip-rule="evenodd" d="M44.5223 189.438H128.651C131.191 186.649 132.603 183.561 132.603 180.312C132.603 167.898 112.001 157.835 86.5868 157.835C61.1729 157.835 40.5708 167.898 40.5708 180.312C40.5708 183.561 41.9824 186.649 44.5223 189.438Z" fill="#BE5A38"/>
<path d="M132.654 153.308H40.3274V179.761H132.654V153.308Z" fill="#7F67A1"/>
<path d="M136.434 94.0117C134.413 93.9989 132.428 94.5161 130.699 95.5061V72.0002H41.6589V95.5509C39.984 94.569 38.0621 94.0283 36.0922 93.9847C34.1222 93.9411 32.1757 94.3961 30.454 95.3027C28.7323 96.2094 27.298 97.5346 26.2995 99.1415C25.3009 100.748 24.7744 102.578 24.7744 104.442C24.7744 106.306 25.3009 108.136 26.2995 109.743C27.298 111.35 28.7323 112.675 30.454 113.582C32.1757 114.488 34.1222 114.943 36.0922 114.9C38.0621 114.856 39.984 114.315 41.6589 113.333V153.172H130.699V113.333C132.155 114.197 133.805 114.728 135.516 114.884C137.228 115.039 138.954 114.815 140.558 114.229C142.161 113.643 143.599 112.712 144.755 111.509C145.912 110.306 146.756 108.864 147.221 107.299C147.686 105.733 147.758 104.086 147.432 102.49C147.107 100.893 146.392 99.3899 145.345 98.1002C144.298 96.8104 142.947 95.7694 141.4 95.0596C139.853 94.3499 138.153 93.9911 136.434 94.0117Z" fill="#EDC297"/>
<path d="M130.587 63.2261C129.811 52.5844 124.796 42.6174 116.553 35.337C108.311 28.0566 97.4554 24.005 86.1779 24C74.8982 23.9979 64.0385 28.0471 55.7945 35.3289C47.5505 42.6108 42.5373 52.5818 41.7685 63.2261H41.658V66.1102V85.3721H130.698V63.2261H130.587Z" fill="#F6B089"/>
<path fill-rule="evenodd" clip-rule="evenodd" d="M130.353 95.506C132.082 94.5161 134.067 93.9989 136.088 94.0117C137.807 93.9911 139.508 94.3499 141.054 95.0596C141.721 95.3656 142.352 95.7332 142.937 96.1557V82.1487H130.353V95.506ZM41.3132 82.1487H29.0657V95.9262C29.3997 95.7009 29.7477 95.4926 30.1083 95.3027C31.8299 94.3961 33.7765 93.9411 35.7464 93.9847C37.7164 94.0283 39.6383 94.569 41.3132 95.5509V82.1487ZM29.0657 112.958V150.332H41.3132V113.333C39.6383 114.315 37.7164 114.856 35.7464 114.9C33.7765 114.943 31.8299 114.488 30.1083 113.582C29.7477 113.392 29.3997 113.183 29.0657 112.958ZM130.353 150.332H142.937V112.787C142.108 113.385 141.191 113.872 140.212 114.229C138.608 114.815 136.882 115.039 135.171 114.884C133.459 114.728 131.81 114.197 130.353 113.333V150.332Z" fill="#071B29"/>
<path fill-rule="evenodd" clip-rule="evenodd" d="M45.7404 44.9734C56.4173 34.8735 70.8987 29.1988 85.9988 29.1978C101.1 29.198 115.582 34.8723 126.26 44.9723C136.938 55.0722 142.937 68.7708 142.937 83.0543V90.3774C142.937 92.22 142.783 94.0477 142.483 95.8451C142.03 95.5508 141.552 95.288 141.054 95.0596C139.508 94.3499 137.807 93.9911 136.088 94.0117C134.067 93.9989 132.082 94.5161 130.353 95.5061V72.0002H41.3132V95.5509C39.6383 94.569 37.7164 94.0283 35.7464 93.9847C33.7765 93.9411 31.8299 94.3961 30.1083 95.3027C29.897 95.414 29.69 95.5316 29.4877 95.6552C29.2073 93.9125 29.0656 92.1483 29.0657 90.3774V83.0543C29.0654 68.7714 35.0634 55.0734 45.7404 44.9734ZM39.0693 114.339C39.3492 114.622 39.6342 114.9 39.9243 115.175C40.3764 115.602 40.8395 116.018 41.3132 116.422V113.333C40.6044 113.749 39.8514 114.085 39.0693 114.339ZM130.353 116.703C130.943 116.212 131.517 115.702 132.076 115.174C132.335 114.929 132.59 114.68 132.841 114.429C131.97 114.164 131.134 113.796 130.353 113.333V116.703Z" fill="#071B29"/>
<path d="M142.8 79.6389V77.8541C142.8 63.5711 136.801 49.873 126.124 39.7735C115.446 29.6739 100.965 24 85.8642 24C70.7639 24 56.282 29.6739 45.6045 39.7735C34.927 49.873 28.9285 63.5711 28.9285 77.8541V79.6389H142.8Z" fill="#071B29"/>
<path d="M123.781 60.6689H34.4666V94.6896C34.4666 95.7219 34.8316 96.7118 35.4815 97.4417C36.1313 98.1716 37.0127 98.5816 37.9317 98.5816C38.8508 98.5816 39.7322 98.1716 40.382 97.4417C41.0319 96.7118 41.3969 95.7219 41.3969 94.6896V92.4693C41.5537 91.6155 41.9611 90.8455 42.5539 90.2828C43.1468 89.72 43.8907 89.3972 44.6664 89.366C45.4421 89.3348 46.2046 89.597 46.8318 90.1107C47.4589 90.6243 47.9143 91.3597 48.1249 92.1987V94.6896C48.1245 95.2008 48.2139 95.7071 48.3879 96.1794C48.5618 96.6517 48.817 97.0808 49.1389 97.4423C49.4607 97.8037 49.8428 98.0904 50.2634 98.2858C50.6839 98.4812 51.1347 98.5815 51.5898 98.5811C51.6181 98.5811 51.6484 98.5811 51.6767 98.5811C51.7051 98.5811 51.7345 98.5811 51.7658 98.5811C52.6847 98.5811 53.566 98.1711 54.2157 97.4413C54.8655 96.7115 55.2305 95.7217 55.2305 94.6896V92.4693C55.379 91.5586 55.82 90.7407 56.4698 90.171C57.1196 89.6013 57.933 89.3194 58.7556 89.3788C59.5783 89.4381 60.3529 89.8345 60.9325 90.4929C61.5121 91.1512 61.8563 92.0256 61.8998 92.9502V94.6896C61.8996 95.2007 61.9891 95.7066 62.163 96.1788C62.337 96.651 62.5921 97.0802 62.9138 97.4416C63.2354 97.803 63.6173 98.0897 64.0376 98.2852C64.458 98.4807 64.9086 98.5812 65.3636 98.5811H65.4222C65.8773 98.5812 66.328 98.4807 66.7485 98.2852C67.169 98.0897 67.5511 97.8031 67.8729 97.4417C68.1947 97.0803 68.4501 96.6513 68.6243 96.1791C68.7984 95.7069 68.8881 95.2008 68.8881 94.6896V92.4693C69.044 91.577 69.4761 90.7755 70.1078 90.2067C70.7395 89.638 71.5301 89.3387 72.3394 89.3618C73.1488 89.385 73.9246 89.7291 74.5297 90.3333C75.1348 90.9374 75.5301 91.7626 75.6455 92.6626V94.6896C75.6452 95.2006 75.7345 95.7066 75.9084 96.1787C76.0823 96.6508 76.3373 97.0798 76.6589 97.4412C76.9804 97.8026 77.3623 98.0892 77.7825 98.2848C78.2028 98.4804 78.6533 98.5811 79.1082 98.5811H79.1536H79.1971C79.6522 98.5814 80.1029 98.481 80.5233 98.2855C80.9437 98.09 81.3256 97.8033 81.6473 97.4419C81.969 97.0804 82.2241 96.6514 82.398 96.1791C82.572 95.7069 82.6613 95.2007 82.6609 94.6896V92.4693C82.8198 91.5552 83.2696 90.7372 83.9261 90.1681C84.5826 89.599 85.401 89.3177 86.2286 89.3765C87.0562 89.4354 87.8366 89.8306 88.4239 90.4881C89.0112 91.1457 89.3654 92.0208 89.4204 92.9502V94.6896C89.42 95.2007 89.5093 95.7069 89.6832 96.1791C89.8571 96.6514 90.1122 97.0804 90.4339 97.4419C90.7556 97.8033 91.1375 98.09 91.5579 98.2855C91.9783 98.481 92.429 98.5814 92.8841 98.5811H92.9437C93.3986 98.5811 93.849 98.4804 94.2693 98.2848C94.6895 98.0892 95.0714 97.8026 95.3929 97.4412C95.7145 97.0798 95.9695 96.6508 96.1434 96.1787C96.3173 95.7066 96.4067 95.2006 96.4065 94.6896V92.4693C96.556 91.6177 96.9573 90.8478 97.5454 90.2846C98.1335 89.7213 98.8738 89.3977 99.6462 89.3664C100.419 89.3351 101.178 89.5978 101.8 90.1119C102.423 90.626 102.873 91.3614 103.077 92.1987V94.6896C103.076 95.2007 103.166 95.7066 103.34 96.1788C103.514 96.651 103.769 97.0802 104.091 97.4416C104.412 97.803 104.794 98.0897 105.215 98.2852C105.635 98.4807 106.085 98.5812 106.54 98.5811C106.57 98.5811 106.6 98.5811 106.63 98.5811C106.659 98.5811 106.688 98.5811 106.719 98.5811C107.174 98.5812 107.624 98.4807 108.045 98.2852C108.465 98.0897 108.847 97.803 109.169 97.4416C109.491 97.0802 109.746 96.6512 109.92 96.179C110.094 95.7068 110.183 95.2007 110.183 94.6896V92.4693C110.332 91.5586 110.773 90.7407 111.423 90.171C112.072 89.6013 112.886 89.3194 113.708 89.3788C114.531 89.4381 115.306 89.8345 115.885 90.4929C116.465 91.1512 116.809 92.0256 116.853 92.9502V94.6896C116.852 95.2007 116.942 95.7069 117.116 96.1791C117.29 96.6514 117.545 97.0806 117.867 97.442C118.189 97.8034 118.571 98.09 118.991 98.2855C119.412 98.4809 119.862 98.5814 120.317 98.5811H120.375C120.83 98.5812 121.281 98.4807 121.701 98.2852C122.122 98.0897 122.504 97.8031 122.826 97.4417C123.148 97.0803 123.403 96.6513 123.577 96.1791C123.751 95.7069 123.841 95.2008 123.841 94.6896V92.4693C124.009 91.5515 124.467 90.7327 125.13 90.1637C125.793 89.5947 126.617 89.3136 127.449 89.3721C128.282 89.4306 129.068 89.8248 129.663 90.4822C130.257 91.1396 130.621 92.0159 130.686 92.9502V94.6896C130.678 95.2062 130.762 95.7193 130.933 96.1991C131.103 96.6789 131.357 97.1158 131.68 97.4842C132.002 97.8526 132.387 98.1453 132.811 98.345C133.235 98.5448 133.69 98.6476 134.15 98.6476C134.61 98.6476 135.066 98.5448 135.49 98.345C135.914 98.1453 136.299 97.8526 136.621 97.4842C136.944 97.1158 137.198 96.6789 137.368 96.1991C137.539 95.7193 137.623 95.2062 137.615 94.6896V60.6689H123.781Z" fill="#071B29"/>
<path fill-rule="evenodd" clip-rule="evenodd" d="M136.088 94.0117C134.102 93.9991 132.152 94.4981 130.444 95.4543V77.3608H142.938V96.1568C142.353 95.7338 141.722 95.3659 141.054 95.0596C139.507 94.3499 137.807 93.9911 136.088 94.0117ZM130.444 157.549V113.387C131.878 114.219 133.495 114.731 135.17 114.884C136.882 115.039 138.608 114.815 140.212 114.229C141.191 113.871 142.109 113.385 142.938 112.786V164.783C142.938 165.892 142.473 166.955 141.645 167.738C140.816 168.522 139.692 168.962 138.521 168.962C138.272 168.962 138.025 168.942 137.783 168.904C136.536 167.063 135.309 165.21 134.103 163.344V162.906C134.028 161.977 133.627 161.099 132.964 160.411C132.586 160.018 132.135 159.699 131.637 159.469C131.237 158.83 130.84 158.19 130.444 157.549Z" fill="#071B29"/>
<path fill-rule="evenodd" clip-rule="evenodd" d="M29.0662 79.2759H41.3132V95.5509C39.6383 94.569 37.7164 94.0283 35.7464 93.9847C33.7765 93.9411 31.8299 94.3961 30.1083 95.3027C29.7479 95.4925 29.4 95.7007 29.0662 95.9259V79.2759ZM30.1083 113.582C29.7479 113.392 29.4 113.184 29.0662 112.958V164.783C29.0573 165.337 29.165 165.888 29.383 166.402C29.601 166.916 29.925 167.384 30.336 167.779C30.7471 168.174 31.2371 168.487 31.7774 168.701C32.3177 168.915 32.8977 169.025 33.4835 169.025C33.6502 169.025 33.8164 169.017 33.9814 168.999C35.311 167.038 36.6176 165.063 37.9008 163.074V162.906C37.9764 161.977 38.3772 161.099 39.0399 160.411C39.3523 160.086 39.7145 159.813 40.1117 159.597C40.5978 158.822 41.0803 158.044 41.5594 157.264V153.172H41.3132V113.333C39.6383 114.315 37.7164 114.856 35.7464 114.9C33.7765 114.943 31.8299 114.488 30.1083 113.582Z" fill="#071B29"/>
<path d="M137.615 90.135H130.346V116.655H137.615V90.135Z" fill="#071B29"/>
<path d="M41.3893 90.135H34.4666V116.655H41.3893V90.135Z" fill="#071B29"/>
<path d="M68.8551 103.461C70.2601 103.461 71.3992 102.383 71.3992 101.054C71.3992 99.7252 70.2601 98.6477 68.8551 98.6477C67.4502 98.6477 66.311 99.7252 66.311 101.054C66.311 102.383 67.4502 103.461 68.8551 103.461Z" fill="#0E2732"/>
<path d="M103.311 103.461C104.716 103.461 105.855 102.383 105.855 101.054C105.855 99.7252 104.716 98.6477 103.311 98.6477C101.906 98.6477 100.767 99.7252 100.767 101.054C100.767 102.383 101.906 103.461 103.311 103.461Z" fill="#0E2732"/>
<path d="M92.7574 129.889C93.314 129.889 93.8692 129.942 94.4148 130.046C94.4148 130.017 94.4148 129.988 94.4148 129.959C94.4154 128.599 94.0444 127.263 93.3376 126.079C92.6308 124.895 91.6123 123.904 90.3811 123.203L77.9962 127.989C77.7146 129.026 77.6588 130.107 77.8323 131.165C78.0057 132.223 78.4048 133.236 79.0052 134.144C79.6057 135.051 80.395 135.834 81.3251 136.444C82.2553 137.054 83.3067 137.479 84.4158 137.692C84.4397 135.615 85.3291 133.63 86.8909 132.169C88.4527 130.708 90.5608 129.889 92.7574 129.889Z" fill="#8F0026"/>
<path d="M94.4144 130.046C93.2109 129.815 91.9685 129.839 90.7759 130.116C89.5832 130.392 88.4697 130.914 87.5149 131.644C86.5601 132.375 85.7876 133.295 85.2524 134.341C84.7172 135.386 84.4325 136.53 84.4187 137.691C85.6221 137.921 86.8642 137.896 88.0565 137.62C89.2487 137.343 90.3617 136.821 91.3163 136.091C92.2708 135.361 93.0434 134.44 93.5789 133.395C94.1144 132.35 94.3997 131.207 94.4144 130.046Z" fill="#CE003A"/>
<path d="M138.813 65.0153C136.899 65.0153 135.063 64.4452 133.709 63.4306C132.355 62.416 131.595 61.0399 131.594 59.6049V55.2763C131.594 53.8412 132.355 52.4649 133.709 51.4501C135.062 50.4353 136.899 49.8651 138.813 49.865H144.589C145.537 49.8651 146.475 50.005 147.351 50.277C148.227 50.549 149.023 50.9476 149.693 51.4501C150.363 51.9526 150.895 52.5491 151.257 53.2056C151.62 53.8621 151.807 54.5658 151.807 55.2763V59.6049C151.806 61.0399 151.046 62.4161 149.692 63.4308C148.338 64.4455 146.502 65.0157 144.588 65.0158L138.813 65.0153Z" fill="#7F67A1"/>
<path d="M122.335 77.3668C120.42 77.3668 118.584 76.7968 117.23 75.7822C115.877 74.7675 115.116 73.3915 115.116 71.9565V67.6273C115.116 66.9167 115.303 66.2131 115.666 65.5566C116.028 64.9001 116.56 64.3036 117.23 63.8012C117.901 63.2987 118.697 62.9001 119.573 62.6282C120.449 62.3563 121.387 62.2165 122.335 62.2166H128.11C129.058 62.2165 129.997 62.3563 130.872 62.6281C131.748 62.8999 132.544 63.2985 133.214 63.8008C133.885 64.3032 134.416 64.8996 134.779 65.556C135.142 66.2124 135.329 66.9159 135.329 67.6264V71.956C135.328 73.391 134.567 74.7669 133.213 75.7816C131.86 76.7962 130.024 77.3664 128.109 77.3668H122.335Z" fill="#7F67A1"/>
<path d="M144.234 55.5419C144.318 55.6046 144.384 55.6791 144.43 55.7612C144.475 55.8433 144.499 55.9313 144.499 56.0202C144.499 56.1091 144.475 56.197 144.43 56.2791C144.384 56.3612 144.318 56.4358 144.234 56.4985L123.966 71.6888C123.882 71.7516 123.783 71.8015 123.674 71.8355C123.564 71.8694 123.447 71.8869 123.329 71.8869C123.21 71.8869 123.093 71.8694 122.983 71.8355C122.874 71.8015 122.775 71.7516 122.691 71.6888C122.607 71.6261 122.541 71.5516 122.495 71.4696C122.45 71.3876 122.426 71.2995 122.426 71.2107C122.426 71.1219 122.45 71.034 122.495 70.9519C122.541 70.8699 122.607 70.7953 122.691 70.7326L142.957 55.5419C143.041 55.4789 143.14 55.4289 143.25 55.3949C143.359 55.3608 143.477 55.3433 143.595 55.3433C143.714 55.3433 143.831 55.3608 143.941 55.3949C144.05 55.4289 144.15 55.4789 144.234 55.5419Z" fill="#353238"/>
<path d="M137.019 65.7732C137.486 66.1234 137.857 66.5392 138.11 66.9968C138.363 67.4544 138.493 67.9448 138.493 68.4401C138.493 68.9354 138.363 69.4257 138.11 69.8833C137.857 70.3409 137.486 70.7567 137.019 71.1069C136.552 71.4573 135.997 71.7351 135.387 71.9247C134.776 72.1143 134.122 72.212 133.461 72.212C132.8 72.212 132.146 72.1143 131.535 71.9247C130.925 71.7351 130.37 71.4573 129.903 71.1069C129.435 70.7568 129.065 70.341 128.812 69.8834C128.559 69.4259 128.429 68.9355 128.429 68.4403C128.429 67.945 128.559 67.4547 128.812 66.9971C129.065 66.5396 129.435 66.1239 129.903 65.7738C130.37 65.4235 130.924 65.1455 131.535 64.9559C132.145 64.7663 132.8 64.6687 133.461 64.6687C134.121 64.6687 134.776 64.7663 135.386 64.9559C135.997 65.1455 136.551 65.4235 137.018 65.7738L137.019 65.7732Z" fill="#BE5A38"/>
</g>
<defs>
<clipPath id="clip0_249_2217">
<rect width="176.74" height="188.872" fill="white"/>
</clipPath>
</defs>
</svg>
